<?xml version="1.0" encoding="UTF-8" standalone="no"?>
<svg
   height="48"
   width="48"
   version="1.1"
   id="svg4"
   sodipodi:docname="icon.svg"
   inkscape:version="1.1.2 (0a00cf5339, 2022-02-04)"
   inkscape:export-filename="icon.png"
   inkscape:export-xdpi="512"
   inkscape:export-ydpi="512"
   xmlns:inkscape="http://www.inkscape.org/namespaces/inkscape"
   xmlns:sodipodi="http://sodipodi.sourceforge.net/DTD/sodipodi-0.dtd"
   xmlns="http://www.w3.org/2000/svg"
   xmlns:svg="http://www.w3.org/2000/svg">
  <defs
     id="defs8" />
  <sodipodi:namedview
     id="namedview6"
     pagecolor="#ffffff"
     bordercolor="#666666"
     borderopacity="1.0"
     inkscape:pageshadow="2"
     inkscape:pageopacity="0.0"
     inkscape:pagecheckerboard="0"
     showgrid="false"
     borderlayer="true"
     inkscape:zoom="16"
     inkscape:cx="18.9375"
     inkscape:cy="25.5"
     inkscape:window-width="2560"
     inkscape:window-height="1347"
     inkscape:window-x="0"
     inkscape:window-y="0"
     inkscape:window-maximized="1"
     inkscape:current-layer="svg4" />
  <path
     id="rect117162-5"
     style="fill:#f0df0f;fill-opacity:1;stroke-width:1.48697;stroke-opacity:0.13739;stop-color:#000000"
     d="M 10 0 C 4.46 0 0 4.46 0 10 L 0 38 C 0 43.54 4.46 48 10 48 L 18 48 L 48 10 C 48 4.46 43.54 0 38 0 L 10 0 z " />
  <path
     id="rect117162"
     style="fill:#635c06;stroke-width:1.48697;stroke-opacity:0.13739;stop-color:#000000;fill-opacity:1"
     d="m 48,10 v 28 c 0,5.54 -4.46,10 -10,10 H 18 Z"
     sodipodi:nodetypes="csscc" />
  <g
     aria-label="©"
     id="text8373"
     style="font-weight:bold;font-size:53.3333px;font-family:'Roboto Condensed';-inkscape-font-specification:'Roboto Condensed,  Bold';fill:#000000;fill-opacity:1;stroke-width:1.88976;stroke-opacity:0.13739;stop-color:#000000"
     transform="matrix(0.81126808,0,0,0.77005394,-0.8337397,0.2558013)">
    <path
       d="m 5.9582521,24.315369 c 0,11.015618 8.2812449,19.505196 18.4895719,19.505196 10.182286,0 18.489573,-8.489578 18.489573,-19.505196 0,-11.015619 -8.307287,-19.4531139 -18.489573,-19.4531139 -10.208327,0 -18.4895719,8.4374949 -18.4895719,19.4531139 z m 3.1770815,0 c 0,-9.192703 6.8489544,-16.1979075 15.3124904,-16.1979075 8.437495,0 15.28645,7.0052045 15.28645,16.1979075 0,9.192702 -6.848955,16.24999 -15.28645,16.24999 -8.463536,0 -15.3124904,-7.057288 -15.3124904,-16.24999 z m 19.6093634,3.463539 c 0,3.385415 -1.588541,4.661456 -4.661456,4.661456 -3.333331,0 -5.05208,-2.68229 -5.05208,-6.562496 v -3.124999 c 0,-3.828122 1.718749,-6.536454 5.05208,-6.536454 3.072915,0 4.687498,1.328124 4.687498,4.661456 h 4.062497 c 0,-5.442706 -3.385415,-8.177079 -8.749995,-8.177079 -5.598955,0 -9.088536,4.114581 -9.088536,10.078119 v 3.098957 c 0,5.989579 3.489581,10.078119 9.088536,10.078119 5.36458,0 8.723953,-2.708332 8.723953,-8.177079 z"
       style="font-weight:900;font-family:Roboto;-inkscape-font-specification:'Roboto Heavy';fill:#000000;fill-opacity:1"
       id="path67279" />
  </g>
  <path
     d="m 34.987778,37.967418 -2.025088,-0.800786 -1.26803,3.206347 c -0.115677,0.292508 -0.115703,0.57221 -10e-5,0.839101 0.115623,0.26689 0.319687,0.458174 0.612199,0.573849 0.269995,0.106816 0.544085,0.104578 0.822227,-0.0066 0.27814,-0.111175 0.475048,-0.313016 0.590724,-0.605528 z m 5.400191,2.135552 -2.02509,-0.800787 -1.267936,3.206384 c -0.115679,0.29251 -0.115694,0.572213 -1e-4,0.839102 0.115622,0.266891 0.319689,0.458173 0.6122,0.57385 0.269993,0.106816 0.544084,0.104578 0.822224,-0.0066 0.278142,-0.111175 0.475049,-0.313017 0.590727,-0.605527 z m 3.418862,-4.697549 C 44.064902,34.75291 44.02072,34.091453 43.674368,33.42108 43.328011,32.750708 42.78357,32.268703 42.041043,31.975064 l 1.268028,-3.206343 -4.725171,-1.868595 -1.268029,3.206345 c -0.742505,-0.293686 -1.469377,-0.314376 -2.180557,-0.06222 -0.711181,0.252162 -1.195792,0.704503 -1.453838,1.357022 L 32.0131,35.620182 42.138459,39.624339 Z M 43.560635,24.18467 c 0.596138,-1.507567 0.571006,-2.996794 0.0134,-4.326985 -0.615005,-1.467128 -1.936103,-2.745364 -3.413476,-3.335334 -1.502537,-0.600069 -3.37425,-0.588077 -4.853319,0.06771 -1.318546,0.584612 -2.353526,1.658235 -2.949715,3.165781 l -0.867596,2.193837 2.025109,0.800794 0.867589,-2.193819 c 0.373775,-0.945012 0.983411,-1.601319 1.791813,-1.964931 0.968422,-0.435588 2.199876,-0.4399 3.185317,-0.04432 0.960298,0.385483 1.819412,1.220272 2.212629,2.17743 0.336837,0.819919 0.33697,1.713952 -0.03675,2.658985 l -1.201227,3.037616 2.025091,0.800787 z"
     id="path70730-3"
     style="stroke-width:0.72589"
     sodipodi:nodetypes="ccssssscccssssscssccccssccscaaasccsaaasccc" />
</svg>
