<?xml version="1.0" encoding="UTF-8" standalone="no"?>
<svg
   data-name="Layer 1"
   width="1200"
   height="630"
   viewBox="0 0 1200 630"
   version="1.1"
   id="svg95"
   sodipodi:docname="social_bibles.svg"
   inkscape:version="1.1.2 (0a00cf5339, 2022-02-04)"
   inkscape:export-filename="social_bibles.png"
   inkscape:export-xdpi="96"
   inkscape:export-ydpi="96"
   xmlns:inkscape="http://www.inkscape.org/namespaces/inkscape"
   xmlns:sodipodi="http://sodipodi.sourceforge.net/DTD/sodipodi-0.dtd"
   xmlns="http://www.w3.org/2000/svg"
   xmlns:svg="http://www.w3.org/2000/svg">
  <defs
     id="defs99" />
  <sodipodi:namedview
     id="namedview97"
     pagecolor="#ffffff"
     bordercolor="#666666"
     borderopacity="1.0"
     inkscape:pageshadow="2"
     inkscape:pageopacity="0.0"
     inkscape:pagecheckerboard="0"
     showgrid="false"
     inkscape:zoom="0.53033009"
     inkscape:cx="662.79475"
     inkscape:cy="182.90495"
     inkscape:window-width="2560"
     inkscape:window-height="1347"
     inkscape:window-x="0"
     inkscape:window-y="0"
     inkscape:window-maximized="1"
     inkscape:current-layer="svg95"
     inkscape:snap-bbox="true"
     inkscape:snap-page="true" />
  <rect
     style="fill:#f0df0f;fill-opacity:1;stroke:none;stroke-width:19.8788;stroke-dasharray:79.5151, 79.5151;stop-color:#000000"
     id="rect888"
     width="1200"
     height="630"
     x="0"
     y="0" />
  <path
     id="b2aec908-dac2-485e-9341-1f8763a52ddc-247"
     data-name="Path 133"
     d="m 640.44422,544.62009 a 65.622929,65.622929 0 0 1 -3.06585,18.14029 c -0.0415,0.1363 -0.0874,0.27055 -0.13216,0.40685 h -11.44018 c 0.012,-0.12222 0.0245,-0.25854 0.0365,-0.40685 0.76274,-8.76918 -3.59492,-61.50468 -8.85326,-70.6318 0.46069,0.74038 24.34201,24.62787 23.45498,52.49151 z"
     fill="#f1f1f1"
     style="fill:#00ff00;stroke-width:0.683064" />
  <path
     id="bc80851e-3fc6-46a5-adb1-be50bb758626-248"
     data-name="Path 134"
     d="m 639.58576,562.76038 c -0.0957,0.1363 -0.19514,0.27262 -0.29706,0.40685 h -8.5827 c 0.065,-0.11602 0.14045,-0.25232 0.22786,-0.40685 1.41775,-2.55876 5.61423,-10.20929 9.50952,-18.14029 4.18445,-8.52307 8.02669,-17.36929 7.70315,-20.57101 0.10026,0.72169 2.99708,22.73534 -8.56077,38.7113 z"
     fill="#f1f1f1"
     style="fill:#008000;stroke-width:0.683064" />
  <path
     id="ac74e0d2-c10f-4860-b119-67c8c5820ae0-249"
     data-name="Path 133"
     d="m 104.08248,549.39245 a 48.73754,48.73754 0 0 0 2.27698,13.47262 c 0.0307,0.10122 0.0649,0.20093 0.0982,0.30216 h 8.4965 c -0.009,-0.0908 -0.0182,-0.19202 -0.0271,-0.30216 -0.56648,-6.51278 2.66991,-45.67892 6.57523,-52.45755 -0.34215,0.54987 -18.07857,18.2909 -17.41979,38.98493 z"
     fill="#f1f1f1"
     style="fill:#008000;stroke-width:0.683064" />
  <path
     id="b887613c-750d-48e2-8424-1e5e637b4506-250"
     data-name="Path 134"
     d="m 104.72005,562.86507 c 0.0711,0.10122 0.14493,0.20247 0.22063,0.30216 h 6.37431 c -0.0483,-0.0862 -0.10431,-0.1874 -0.16923,-0.30216 -1.05295,-1.90036 -4.16964,-7.58235 -7.06263,-13.47262 -3.10777,-6.33 -5.961373,-12.9 -5.721057,-15.27789 -0.07448,0.536 -2.225907,16.88531 6.357977,28.75051 z"
     fill="#f1f1f1"
     style="fill:#00ff00;stroke-width:0.683064" />
  <path
     d="M 519.17828,462.4153 C 455.00629,435.2198 396.94953,436.25352 342.26472,452.85241 258.00706,438.13724 200.31083,440.41405 163.30197,462.4153 v -68.30639 h 355.87631 z"
     fill="#cbcbcb"
     id="path6"
     style="stroke-width:0.683064" />
  <path
     d="m 519.17828,443.63104 c -59.12071,-26.78801 -118.16973,-28.51748 -178.10892,0 -61.39237,-17.67641 -120.74122,-17.49155 -178.10892,0 V 235.97961 c 60.99351,-18.2043 120.32431,-17.76684 178.10892,0 61.0395,-17.70547 120.46242,-18.26701 178.10892,0 z"
     fill="#e5e5e5"
     id="path8"
     style="stroke-width:0.683064" />
  <path
     d="m 178.98184,261.74892 -1.9887,-5.08996 c 0.77945,-0.30451 19.4042,-7.5047 46.73768,-11.17751 25.27069,-3.39631 62.92093,-4.20711 98.77978,11.21219 l -2.15858,5.02026 c -34.65983,-14.90334 -71.19675,-14.11855 -95.74477,-10.83664 -26.71925,3.57308 -45.43947,10.79895 -45.62541,10.87166 z"
     fill="#ffffff"
     id="path10"
     style="stroke-width:0.683064;fill:#214478" />
  <path
     d="m 178.98184,280.87471 -1.9887,-5.08996 c 0.77945,-0.30451 19.4042,-7.5047 46.73768,-11.17751 25.27069,-3.39597 62.92093,-4.20677 98.77978,11.21219 l -2.15858,5.02026 c -34.65983,-14.90334 -71.19675,-14.11922 -95.74477,-10.83664 -26.71925,3.57308 -45.43947,10.79895 -45.62541,10.87166 z"
     fill="#ffffff"
     id="path12"
     style="stroke-width:0.683064;fill:#214478" />
  <path
     d="m 178.98184,300.0005 -1.9887,-5.08996 c 0.77945,-0.30451 19.4042,-7.5047 46.73768,-11.17751 25.27069,-3.39631 62.92093,-4.20711 98.77978,11.21219 l -2.15858,5.02026 c -34.65983,-14.90334 -71.19675,-14.11922 -95.74477,-10.83664 -26.71925,3.57308 -45.43947,10.79895 -45.62541,10.87166 z"
     fill="#ffffff"
     id="path14"
     style="stroke-width:0.683064;fill:#214478" />
  <path
     d="m 178.98184,319.12629 -1.9887,-5.08996 c 0.77945,-0.30451 19.4042,-7.5047 46.73768,-11.1775 25.27069,-3.39565 62.92093,-4.20745 98.77978,11.21218 l -2.15858,5.02026 c -34.65983,-14.90334 -71.19675,-14.11888 -95.74477,-10.83664 -26.71925,3.57308 -45.43947,10.79895 -45.62541,10.87166 z"
     fill="#ffffff"
     id="path16"
     style="stroke-width:0.683064;fill:#214478" />
  <path
     d="m 178.98184,338.25208 -1.9887,-5.08996 c 0.77945,-0.30451 19.4042,-7.5047 46.73768,-11.1775 25.27069,-3.39631 62.92093,-4.20712 98.77978,11.21219 l -2.15858,5.02025 c -34.65983,-14.90367 -71.19675,-14.11888 -95.74477,-10.83663 -26.71925,3.57307 -45.43947,10.79895 -45.62541,10.87165 z"
     fill="#ffffff"
     id="path18"
     style="stroke-width:0.683064;fill:#214478" />
  <path
     d="m 178.98184,357.37787 -1.9887,-5.08996 c 0.77945,-0.30451 19.4042,-7.5047 46.73768,-11.1775 25.27069,-3.39564 62.92093,-4.20711 98.77978,11.21219 l -2.15858,5.02025 c -34.65983,-14.90367 -71.19675,-14.11854 -95.74477,-10.83663 -26.71925,3.57307 -45.43947,10.79895 -45.62541,10.87165 z"
     fill="#ffffff"
     id="path20"
     style="stroke-width:0.683064;fill:#214478" />
  <path
     d="m 178.98184,377.37787 -1.9887,-5.08996 c 0.77945,-0.30451 19.4042,-7.5047 46.73768,-11.1775 25.27069,-3.39564 62.92093,-4.20711 98.77978,11.21219 l -2.15858,5.02025 c -34.65983,-14.90367 -71.19675,-14.11854 -95.74477,-10.83663 -26.71925,3.57307 -45.43947,10.79895 -45.62541,10.87165 z"
     fill="#ffffff"
     id="path20-3"
     style="fill:#214478;stroke-width:0.683064" />
  <path
     d="m 178.98184,397.37787 -1.9887,-5.08996 c 0.77945,-0.30451 19.4042,-7.5047 46.73768,-11.1775 25.27069,-3.39564 62.92093,-4.20711 98.77978,11.21219 l -2.15858,5.02025 c -34.65983,-14.90367 -71.19675,-14.11854 -95.74477,-10.83663 -26.71925,3.57307 -45.43947,10.79895 -45.62541,10.87165 z"
     fill="#ffffff"
     id="path20-6"
     style="fill:#214478;stroke-width:0.683064" />
  <path
     d="m 234.50973,452.52617 -1.0545,1.78672 -1.0806,-3.25916 c 0.58705,-0.0151 1.44316,0.55529 2.1351,1.47244 z"
     fill="#3f3d56"
     id="path44"
     style="stroke-width:0.683064" />
  <g
     id="f2202155-5d0d-4949-a3af-453985752dd6"
     data-name="Group 23"
     transform="matrix(0.68306393,0,0,0.68306393,72.422201,222.4891)">
    <path
       id="bb56e1bb-a377-463a-b777-e3f2ac15f40f-251"
       data-name="Path 385"
       d="m 904.43982,522.824 a 8.3053512,8.3053512 0 1 1 -14.42,-8.24494 q 0.0278,-0.0485 0.0562,-0.0968 a 8.9384,8.9384 0 0 1 0.78233,-1.10977 l -6.98631,-49.79568 -0.20922,-1.49188 -1.4191,-10.1611 -0.20922,-1.46457 0.77323,0.0364 13.536,0.61857 3.62961,0.16374 0.45484,9.2696 2.57439,52.11534 a 8.29444,8.29444 0 0 1 1.43729,10.16107 z"
       transform="translate(-154,-199.62501)"
       fill="#ffb8b8" />
    <path
       id="a248d591-cba6-4901-9d10-c9b24d625163-252"
       data-name="Path 386"
       d="m 883.70282,462.53612 17.18834,-1.57647 a 3.39309,3.39309 0 0 0 3.06015,-3.67235 l -3.18387,-35.743 a 13.032022,13.032022 0 0 0 -25.96079,2.3177 q 0.033,0.36922 0.0869,0.73608 l 5.15422,35.05894 a 3.38765,3.38765 0 0 0 3.34579,2.89368 2.40171,2.40171 0 0 0 0.30928,-0.0146 z"
       transform="translate(-154,-199.62501)"
       fill="#cbcbcb"
       style="fill:#000080" />
    <path
       id="f743e301-5bba-4392-b658-4efdfb4065cc-253"
       data-name="Path 387"
       d="m 896.73121,433.66028 a 23.939,23.939 0 0 0 -8.80476,-27.55227 c -6.48144,-4.43467 -15.35078,-6.02661 -24.90239,5.34435 a 118.91248,118.91248 0 0 0 -24.10642,47.758 l 39.11608,6.36773 c 0,0 13.3022,-16.26048 18.69749,-31.91781 z"
       transform="translate(-154,-199.62501)"
       fill="#cbcbcb"
       style="fill:#000080" />
    <path
       id="eac80286-6d9c-481f-b372-04b3b845d333-254"
       data-name="Path 388"
       d="m 833.466,689.83059 h -11.15267 l -5.30524,-43.0168 h 16.45968 z"
       transform="translate(-154,-199.62501)"
       fill="#ffb8b8" />
    <path
       id="e474a022-de70-4f17-bf9b-ca694d09b1b4-255"
       data-name="Path 389"
       d="M 800.80766,700.18545 H 835.8584 V 686.6431 H 814.35 a 13.54235,13.54235 0 0 0 -13.54235,13.54235 z"
       transform="translate(-154,-199.62501)"
       fill="#2f2e41" />
    <path
       id="a9ae19c7-51aa-4dd0-9022-ef91b49440e0-256"
       data-name="Path 390"
       d="m 925.15587,680.10342 -10.58863,3.50046 -18.5392,-39.178 15.62824,-5.16607 z"
       transform="translate(-154,-199.62501)"
       fill="#ffb8b8" />
    <path
       id="bdf88be3-aecd-443e-97f8-a32ede953949-257"
       data-name="Path 391"
       d="m 897.39522,700.18535 33.28,-10.99986 -4.25,-12.85819 -20.42179,6.7499 a 13.54236,13.54236 0 0 0 -8.60824,17.10815 z"
       transform="translate(-154,-199.62501)"
       fill="#2f2e41" />
    <circle
       id="e601451a-496c-4b1c-9fe2-c3a71e9d5111"
       data-name="Ellipse 65"
       cx="718.17633"
       cy="172.86134"
       r="22.34256"
       fill="#ffb8b8" />
    <path
       id="fd5880a1-dddd-4cd5-886d-5f97a9f21c4e-258"
       data-name="Path 392"
       d="m 852.61373,677.85651 10.35666,-68.35765 a 3.18387,3.18387 0 0 1 6.2422,-0.27289 l 15.772,65.14374 a 4.12355,4.12355 0 0 0 4.62841,3.07929 l 43.50529,-6.99175 a 4.09361,4.09361 0 0 0 3.26845,-5.23064 L 879.65843,478.19712 a 3.184,3.184 0 0 1 -0.0555,-1.63741 l 1.88849,-8.18709 a 4.079,4.079 0 0 0 -2.11682,-4.56112 c -7.725,-3.94164 -27.29029,-12.136 -42.05525,-3.16022 a 4.14,4.14 0 0 0 -1.89121,2.66263 l -44.31583,208.28857 a 4.09357,4.09357 0 0 0 3.63868,4.92952 l 53.44986,4.78674 q 0.18191,0.0163 0.36386,0.0164 a 4.10082,4.10082 0 0 0 4.04624,-3.47952 z"
       fill="#2f2e41"
       transform="translate(-154,-199.62501)"
       style="fill:#175255;fill-opacity:1" />
    <path
       id="acdc6559-e36c-4b0b-aac1-c1a10856fa7d-259"
       data-name="Path 393"
       d="m 886.99131,356.70074 a 16.9016,16.9016 0 0 1 -4.41647,-3.83884 5.731,5.731 0 0 1 -0.88239,-5.549 c 1.12891,-2.4907 4.48288,-3.27484 7.08274,-2.42973 2.59986,0.84511 4.60751,2.88549 6.50691,4.85131 1.6729,1.72838 3.394,3.54046 4.18452,5.81373 0.79052,2.27327 0.3857,5.156 -1.5883,6.536 -1.93761,1.35361 -4.723,0.79961 -6.58606,-0.654 a 16.8,16.8 0 0 1 -4.11628,-5.70366 z"
       transform="translate(-154,-199.62501)"
       fill="#2f2e41" />
    <path
       id="a8902353-3630-4aaa-9386-a524a4077d2f-260"
       data-name="Path 394"
       d="m 894.5589,350.33484 c 0.12372,-6.295 7.29925,-10.80968 13.49688,-9.69352 6.19763,1.11616 10.96068,6.39958 13.34495,12.227 5.03778,12.31247 1.25626,26.36151 -3.59777,38.75222 -4.85403,12.39071 -10.86154,24.9606 -10.1529,38.24552 a 39.95755,39.95755 0 0 0 23.21039,33.658 c -6.99359,3.17021 -15.35352,-0.10461 -21.23094,-5.04689 -13.052,-10.97525 -18.08982,-30.516 -11.97224,-46.43353 3.01739,-7.85142 8.33535,-14.56845 12.48713,-21.88317 4.15178,-7.31472 7.19826,-15.93572 5.05416,-24.06911 -2.1441,-8.13339 -11.26635,-14.71767 -19.065,-11.57112 z"
       transform="translate(-154,-199.62501)"
       fill="#2f2e41" />
    <path
       id="b05157c8-b93b-43b3-a4ba-0cfdfe0a562e-261"
       data-name="Path 395"
       d="m 870.83638,382.40093 c 1.94762,-3.29122 3.91161,-7.61218 0.353,-10.48948 a 7.33564,7.33564 0 0 0 -5.50354,-1.45549 c -4.0135,0.484 -8.38449,0.68317 -12.26972,-0.775 a 11.502,11.502 0 0 1 -6.67249,-5.99568 c -2.00128,-4.75215 0.50578,-10.52676 4.69848,-13.53052 a 15.82834,15.82834 0 0 1 17.51854,-0.3102 c 5.43077,-2.39881 12.01955,-1.33176 16.95363,1.97035 4.93408,3.30211 8.30989,8.59006 10.1438,14.23643 a 27.47766,27.47766 0 0 1 0.83964,15.11426 22.46169,22.46169 0 0 1 -13.93264,15.3544 8.08884,8.08884 0 0 1 -7.98877,-1.18256 15.02706,15.02706 0 0 1 -4.0426,-5.92564 c -0.74139,-2.4898 -1.1371,-5.25248 -0.0973,-7.01087 z"
       transform="translate(-154,-199.62501)"
       fill="#2f2e41" />
    <path
       id="fb245157-e4e6-4551-ad6a-dca5f4b0f94b-262"
       data-name="Path 397"
       d="m 804.55552,402.33738 a 9.57347,9.57347 0 0 1 0.21741,1.49189 l 39.077,22.54361 9.49794,-5.46805 10.12561,13.25579 -15.87386,11.31455 a 7.27742,7.27742 0 0 1 -8.7329,-0.21288 l -40.29866,-31.78953 a 9.55158,9.55158 0 1 1 5.982,-11.13535 z"
       transform="translate(-154,-199.62501)"
       fill="#ffb8b8" />
    <path
       id="b7c0657c-f78e-4619-b8ae-65b0c7791644-263"
       data-name="Path 398"
       d="m 845.15712,427.44082 12.63,16.36871 a 4.09355,4.09355 0 0 0 6.1858,0.33929 L 878.27025,429.302 a 11.371,11.371 0 1 0 -13.57752,-18.24405 q -0.18541,0.138 -0.36509,0.28341 l -17.93154,10.02647 a 4.09358,4.09358 0 0 0 -1.24172,6.073 z"
       transform="translate(-154,-199.62501)"
       fill="#cbcbcb"
       style="fill:#000080" />
  </g>
  <polygon
     points="208.552,488.809 220.675,488.808 226.443,442.047 208.55,442.048 "
     fill="#a0616a"
     id="polygon61"
     transform="matrix(0.68306393,0,0,0.68306393,72.422201,222.4891)" />
  <path
     d="m 212.76415,553.67307 16.30828,-6.8e-4 h 6.8e-4 a 10.393501,10.393501 0 0 1 10.39292,10.39275 v 0.33773 l -26.70136,6.8e-4 z"
     fill="#2f2e41"
     id="path63"
     style="stroke-width:0.683064" />
  <polygon
     points="114.156,483.561 126.143,485.373 138.836,439.999 123.121,437.325 "
     fill="#a0616a"
     id="polygon65"
     transform="matrix(0.68306393,0,0,0.68306393,72.422201,222.4891)" />
  <path
     d="m 148.7133,549.80301 16.12513,2.43725 6.5e-4,10e-5 a 10.393501,10.393501 0 0 1 8.72255,11.82959 l -0.0505,0.33394 -26.40148,-3.99057 z"
     fill="#2f2e41"
     id="path67"
     style="stroke-width:0.683064" />
  <path
     d="m 175.93035,398.08451 9.19457,2.40906 -0.61167,14.90697 -0.0758,27.141 a 5.4391971,5.4391971 0 1 1 -7.19862,0.90452 l -2.82541,-27.24041 z"
     fill="#a0616a"
     id="path69"
     style="stroke-width:0.683064" />
  <path
     d="m 174.32987,381.00994 a 7.5057114,7.5057114 0 0 1 4.63982,-6.67477 7.0171636,7.0171636 0 0 1 7.59576,1.22163 6.6905088,6.6905088 0 0 1 2.23021,5.17412 c 0.0243,8.73279 -1.94722,21.46161 -1.96717,21.58892 l -0.0315,0.2025 -13.4394,4.52571 z"
     fill="#cbcbcb"
     id="path71"
     style="stroke-width:0.683064" />
  <path
     d="m 198.36014,405.79919 20.55589,-5.32095 9.50198,32.00154 0.33773,119.2183 -15.71915,-0.0984 -6.57096,-96.49207 -41.87839,89.16039 -16.88644,-2.02637 36.81245,-95.57729 c 0,0 -2.02637,-16.88645 4.39048,-25.32967 l -1.35092,-8.78095 z"
     fill="#2f2e41"
     id="path73"
     style="stroke-width:0.683064;fill:#800000" />
  <path
     d="m 184.49964,413.76107 a 3.1496556,3.1496556 0 0 1 -0.672,-2.53363 l -9.37626,-28.12912 a 7.1563037,7.1563037 0 0 1 1.97377,-7.55339 l 4.07037,-3.69985 2.7584,-11.03358 15.85396,3.87531 -1.30622,5.22491 7.17509,-1.30409 15.1127,33.65944 -31.58952,12.62657 -1.55573,0.0244 a 3.1492048,3.1492048 0 0 1 -2.44456,-1.15698 z"
     fill="#cbcbcb"
     id="path75"
     style="stroke-width:0.683064;fill:#ffaaee" />
  <path
     d="m 206.50455,390.01102 9.05849,-2.87878 7.45131,12.92556 14.44368,22.97867 a 5.4392381,5.4392381 0 1 1 -5.6004,4.61235 l -16.94878,-21.51191 z"
     fill="#a0616a"
     id="path77"
     style="stroke-width:0.683064" />
  <path
     d="m 196.02496,376.43542 a 7.5048234,7.5048234 0 0 1 0.35356,-8.12066 7.0209409,7.0209409 0 0 1 7.07252,-3.02768 6.6906863,6.6906863 0 0 1 4.65054,3.18072 c 4.68829,7.36737 9.82613,19.1793 9.87741,19.29737 l 0.0815,0.188 -8.93909,11.00851 z"
     fill="#cbcbcb"
     id="path79"
     style="stroke-width:0.683064;fill:#ffaaee" />
  <circle
     cx="194.98378"
     cy="346.16187"
     r="12.596539"
     fill="#a0616a"
     id="circle81"
     style="stroke-width:0.683064" />
  <circle
     cx="172.72296"
     cy="328.71481"
     r="12.133674"
     fill="#2f2e41"
     id="circle83"
     style="stroke-width:0.683064" />
  <path
     d="m 162.25703,338.76229 a 12.134323,12.134323 0 0 0 18.73762,-6.37119 12.134344,12.134344 0 1 1 -23.66954,-4.97593 12.129849,12.129849 0 0 0 4.93192,11.34712 z"
     fill="#2f2e41"
     id="path85"
     style="stroke-width:0.683064" />
  <path
     d="m 210.14188,338.77577 c -2.11823,-3.79224 -2.92875,-5.37636 -5.65995,-7.68237 -2.41521,-2.03944 -5.38596,-2.63835 -7.78215,-0.70595 a 14.350039,14.350039 0 1 0 8.6584,13.172 14.469043,14.469043 0 0 0 -0.0978,-1.62258 c 2.08285,-0.2925 2.7986,-2.86857 4.88146,-3.1611 z"
     fill="#2f2e41"
     id="path87"
     style="stroke-width:0.683064" />
  <path
     d="M 333.35262,564.53336 H 73.105264 a 0.683065,0.683065 0 0 1 0,-1.36613 H 333.35262 a 0.683065,0.683065 0 0 1 0,1.36613 z"
     fill="#cbcbcb"
     id="path89"
     style="stroke-width:0.683064;fill:#373e48" />
  <path
     d="M 681.03216,564.53336 H 420.78481 a 0.683065,0.683065 0 0 1 0,-1.36613 h 260.24735 a 0.683065,0.683065 0 0 1 0,1.36613 z"
     fill="#cbcbcb"
     id="path91"
     style="stroke-width:0.683064;fill:#373e48" />
  <rect
     x="340.38629"
     y="235.97958"
     width="1.3661278"
     height="206.99438"
     fill="#cbcbcb"
     id="rect93"
     style="stroke-width:0.683064" />
  <path
     d="m 465.43138,318.53262 v -17.67008 l -25.882,-2.73226 v -27.42176 h -21.18951 v 27.42176 l -25.44202,2.73226 v 17.67008 l 25.44202,-2.73225 v 61.66219 h 21.18951 v -61.66219 z"
     id="path42313"
     style="font-weight:bold;font-size:24px;font-family:Roboto;-inkscape-font-specification:'Roboto Bold';fill:#11233e;stroke-width:11.8236;stroke-opacity:0.13739;stop-color:#000000;fill-opacity:1"
     sodipodi:nodetypes="ccccccccccccc" />
  <text
     xml:space="preserve"
     style="font-style:italic;font-weight:bold;font-size:74.6667px;line-height:normal;font-family:Roboto;-inkscape-font-specification:'Roboto Bold Italic';text-decoration-color:#000000;fill:#000000;fill-opacity:0.796308;stroke:none;stroke-width:6;stroke-dasharray:24, 24;stop-color:#000000"
     x="84.788811"
     y="136.5052"
     id="text9376"><tspan
       sodipodi:role="line"
       id="tspan9374"
       x="84.788811"
       y="136.5052"
       style="font-style:normal;font-variant:normal;font-weight:bold;font-stretch:normal;font-size:74.6667px;font-family:Roboto;-inkscape-font-specification:'Roboto Bold';fill:#000000;fill-opacity:0.796308">Is it legal to share God's Word?</tspan></text>
  <text
     xml:space="preserve"
     style="font-style:normal;font-variant:normal;font-weight:bold;font-stretch:normal;font-size:53.3333px;line-height:1.5;font-family:Roboto;-inkscape-font-specification:'Roboto Bold';text-decoration-color:#000000;fill:#000000;fill-opacity:0.55110735;stroke:none;stroke-width:6;stroke-dasharray:24, 24;stop-color:#000000"
     x="718.13196"
     y="304.26074"
     id="text15068"><tspan
       sodipodi:role="line"
       x="718.13196"
       y="304.26074"
       id="tspan15070"
       style="font-style:italic;font-variant:normal;font-weight:bold;font-stretch:normal;font-size:53.3333px;font-family:Roboto;-inkscape-font-specification:'Roboto Bold Italic';fill:#000000;fill-opacity:0.55110735">Depends which</tspan><tspan
       sodipodi:role="line"
       x="718.13196"
       y="384.26068"
       id="tspan15072"
       style="font-style:italic;font-variant:normal;font-weight:bold;font-stretch:normal;font-size:53.3333px;font-family:Roboto;-inkscape-font-specification:'Roboto Bold Italic';fill:#000000;fill-opacity:0.55110735">Bible translation</tspan><tspan
       sodipodi:role="line"
       x="718.13196"
       y="464.26065"
       id="tspan19418"
       style="font-style:italic;font-variant:normal;font-weight:bold;font-stretch:normal;font-size:53.3333px;font-family:Roboto;-inkscape-font-specification:'Roboto Bold Italic';fill:#000000;fill-opacity:0.55110735">you use ...</tspan></text>
</svg>
