<?xml version="1.0" encoding="UTF-8" standalone="no"?>
<svg
   data-name="Layer 1"
   width="1200"
   height="630"
   viewBox="0 0 1200 630"
   version="1.1"
   id="svg95"
   sodipodi:docname="social_music.svg"
   inkscape:version="1.1.2 (0a00cf5339, 2022-02-04)"
   inkscape:export-filename="social_music.png"
   inkscape:export-xdpi="96"
   inkscape:export-ydpi="96"
   xmlns:inkscape="http://www.inkscape.org/namespaces/inkscape"
   xmlns:sodipodi="http://sodipodi.sourceforge.net/DTD/sodipodi-0.dtd"
   xmlns="http://www.w3.org/2000/svg"
   xmlns:svg="http://www.w3.org/2000/svg">
  <defs
     id="defs99" />
  <sodipodi:namedview
     id="namedview97"
     pagecolor="#ffffff"
     bordercolor="#666666"
     borderopacity="1.0"
     inkscape:pageshadow="2"
     inkscape:pageopacity="0.0"
     inkscape:pagecheckerboard="0"
     showgrid="false"
     inkscape:zoom="0.53033009"
     inkscape:cx="169.70563"
     inkscape:cy="-56.568543"
     inkscape:window-width="2560"
     inkscape:window-height="1347"
     inkscape:window-x="0"
     inkscape:window-y="0"
     inkscape:window-maximized="1"
     inkscape:current-layer="svg95"
     inkscape:snap-bbox="true"
     inkscape:snap-page="true" />
  <rect
     style="fill:#fcf9cf;fill-opacity:1;stroke:none;stroke-width:19.8788;stroke-dasharray:79.5151, 79.5151;stop-color:#000000"
     id="rect888"
     width="1200"
     height="630"
     x="0"
     y="0" />
  <rect
     style="fill:#f0df0f;stroke:none;stroke-width:2.50668;stroke-opacity:0.4;stop-color:#000000;fill-opacity:1"
     id="rect19083"
     width="530.85211"
     height="630"
     x="0"
     y="0" />
  <path
     style="fill:none;stroke:#3f3d56;stroke-width:3.3;stroke-linecap:butt;stroke-linejoin:miter;stroke-miterlimit:4;stroke-dasharray:none;stroke-opacity:1"
     d="M 222.77384,132.85946 352.94186,246.2798"
     id="path31226" />
  <text
     xml:space="preserve"
     style="font-style:italic;font-weight:bold;font-size:64px;line-height:normal;font-family:Roboto;-inkscape-font-specification:'Roboto Bold Italic';text-decoration-color:#000000;fill:#000000;fill-opacity:0.796308;stroke:none;stroke-width:6;stroke-dasharray:24, 24;stop-color:#000000"
     x="575.08038"
     y="161.71532"
     id="text9376"><tspan
       sodipodi:role="line"
       x="575.08038"
       y="161.71532"
       style="font-style:normal;font-variant:normal;font-weight:bold;font-stretch:normal;font-size:64px;font-family:Roboto;-inkscape-font-specification:'Roboto Bold';fill:#000000;fill-opacity:0.796308"
       id="tspan43707">Worship has been</tspan><tspan
       sodipodi:role="line"
       x="575.08038"
       y="241.71532"
       style="font-style:normal;font-variant:normal;font-weight:bold;font-stretch:normal;font-size:64px;font-family:Roboto;-inkscape-font-specification:'Roboto Bold';fill:#000000;fill-opacity:0.796308"
       id="tspan60649">commercialized.</tspan></text>
  <text
     xml:space="preserve"
     style="font-style:italic;font-weight:bold;font-size:29.3333px;line-height:normal;font-family:Roboto;-inkscape-font-specification:'Roboto Bold Italic';text-decoration-color:#000000;fill:#000000;fill-opacity:0.796308;stroke:none;stroke-width:6;stroke-dasharray:24, 24;stop-color:#000000"
     x="933.95453"
     y="588.87018"
     id="text9376-3"><tspan
       sodipodi:role="line"
       id="tspan9374-6"
       x="933.95453"
       y="588.87018"
       style="font-style:normal;font-variant:normal;font-weight:bold;font-stretch:normal;font-size:29.3333px;font-family:Roboto;-inkscape-font-specification:'Roboto Bold';fill:#000000;fill-opacity:0.796308">Let's copy, church</tspan></text>
  <text
     xml:space="preserve"
     style="font-style:normal;font-variant:normal;font-weight:bold;font-stretch:normal;font-size:53.3333px;line-height:1.5;font-family:Roboto;-inkscape-font-specification:'Roboto Bold';text-decoration-color:#000000;fill:#000000;fill-opacity:0.551107;stroke:none;stroke-width:6;stroke-dasharray:24, 24;stop-color:#000000"
     x="575.62726"
     y="375.43027"
     id="text15068"><tspan
       sodipodi:role="line"
       x="575.62726"
       y="375.43027"
       style="font-style:italic;font-variant:normal;font-weight:bold;font-stretch:normal;font-size:53.3333px;font-family:Roboto;-inkscape-font-specification:'Roboto Bold Italic';fill:#000000;fill-opacity:0.551107"
       id="tspan7933">Let's set it free...</tspan></text>
  <g
     id="g1422"
     style="fill:#896e00;fill-opacity:1"
     transform="matrix(0.85489292,0,0,0.85489292,147.17934,239.93427)">
    <path
       d="m 395.81652,299.39217 c -0.98768,-1.66544 -5.26054,0.11777 -6.04609,-1.39368 -0.78277,-1.506 3.18724,-3.80066 5.45536,-9.04262 0.40902,-0.94533 2.98659,-6.90244 1.07842,-8.74062 -3.61682,-3.48419 -20.16758,10.89424 -25.95964,6.18894 -1.27113,-1.0326 -2.15915,-3.09405 -6.00631,-6.44093 -1.53047,-1.33144 -2.45593,-1.93261 -3.35157,-1.70894 -1.27084,0.31733 -1.37158,2.01824 -2.73431,5.36252 -2.04369,5.01544 -3.25251,4.7126 -4.44325,8.71409 -0.88394,2.97053 -0.68203,4.69751 -1.72221,5.03399 -1.47194,0.47615 -2.8268,-2.67464 -4.6922,-2.39252 -1.90357,0.28792 -3.05439,3.95645 -3.41789,6.70315 -0.68214,5.15439 1.21075,8.5556 2.25989,12.13198 1.14014,3.88661 1.8168,9.79735 -0.8162,18.16481 l -26.06075,73.42634 c 5.7534,-15.06687 22.41225,-56.36918 29.41232,-71.7174 2.02076,-4.4307 4.25202,-8.9248 8.83345,-10.69851 4.41082,-1.7077 10.46849,-0.68815 18.19133,-2.54863 0.90196,-0.21725 3.40484,-0.85406 3.71989,-2.32621 0.26045,-1.21708 -1.21178,-1.89641 -0.98558,-3.03631 0.30341,-1.52901 3.19852,-1.54776 6.7562,-3.31179 2.50866,-1.2439 4.07156,-2.72322 5.41557,-3.99536 0.40521,-0.38353 6.42839,-6.15529 5.11357,-8.3723 z"
       fill="#f2f2f2"
       id="path1408"
       style="fill:#896e00;fill-opacity:1" />
    <path
       d="m 293.28575,338.04689 c -1.10238,0.004 -1.46003,2.61589 -2.42852,2.56534 -0.96501,-0.0503 -0.94577,-2.66093 -2.86413,-5.28661 -0.34596,-0.47351 -2.52604,-3.45741 -3.9788,-3.05124 -2.75363,0.76986 -0.47203,13.04172 -4.45261,14.52687 -0.87357,0.32594 -2.14157,0.16699 -4.89427,1.08952 -1.09507,0.367 -1.65715,0.64777 -1.8058,1.15189 -0.21093,0.7153 0.59482,1.25551 1.84302,2.88928 1.87194,2.45017 1.37452,2.95609 2.99491,4.69507 1.20291,1.29094 2.10878,1.69013 1.97381,2.29774 -0.191,0.85982 -2.12835,0.61569 -2.52812,1.61265 -0.40793,1.01736 1.06056,2.64068 2.30378,3.61159 2.33299,1.822 4.54849,1.87432 6.60651,2.39129 2.23654,0.56182 5.33281,1.93515 8.67991,5.64173 l 28.51878,33.97664 c -5.73488,-7.17108 -21.19972,-27.2644 -26.71299,-35.12853 -1.59156,-2.2702 -3.15351,-4.66201 -2.70217,-7.42238 0.43451,-2.65759 2.68275,-5.33656 3.9979,-9.66379 0.15362,-0.50537 0.56323,-1.91754 -0.0684,-2.49693 -0.5222,-0.479 -1.28041,0.0476 -1.77461,-0.39234 -0.6629,-0.59009 0.16323,-2.01643 0.32393,-4.27154 0.11331,-1.59017 -0.1618,-2.78408 -0.39839,-3.81079 -0.0713,-0.30954 -1.16626,-4.93109 -2.63375,-4.92545 z"
       fill="#f2f2f2"
       id="path1410"
       style="fill:#896e00;fill-opacity:1" />
    <path
       d="m 315.27831,342.98373 -0.66418,-5.92894 0.30346,-0.44947 c 1.40422,-2.07842 2.11993,-4.10818 2.12852,-6.03487 10e-4,-0.30632 -0.0129,-0.61265 -0.0272,-0.9247 -0.0573,-1.23675 -0.12883,-2.77409 0.67277,-4.56623 0.44947,-0.99913 1.71198,-3.31231 3.61004,-3.02602 0.51102,0.0716 0.8975,0.30632 1.19094,0.58116 0.0429,-0.0687 0.0873,-0.13742 0.13455,-0.21185 0.59118,-0.90179 1.05925,-1.28828 1.51015,-1.66045 0.3464,-0.28628 0.70426,-0.58116 1.26538,-1.27969 0.2462,-0.30632 0.43801,-0.57543 0.59977,-0.8016 0.49098,-0.68422 1.13225,-1.50013 2.26308,-1.48581 1.20812,0.0573 1.84081,1.05639 2.26021,1.7177 0.74863,1.17949 1.08788,2.02975 1.31261,2.59373 0.0816,0.20612 0.17463,0.43801 0.22187,0.50959 0.38935,0.57257 3.55422,0.0372 4.74659,-0.15746 2.67819,-0.4466 4.99566,-0.83309 5.95042,0.85599 0.68422,1.20812 0.17606,2.80558 -1.55595,4.87542 -0.53965,0.64414 -1.11365,1.13369 -1.62323,1.51731 0.42227,0.25193 0.80016,0.63841 0.95333,1.24534 v 0 c 0.36072,1.43715 -0.8746,2.87716 -3.67016,4.28567 -0.69424,0.35213 -1.62896,0.82164 -2.93871,1.0478 -0.61694,0.10593 -1.17233,0.13169 -1.64757,0.146 -0.01,0.27483 -0.0744,0.57257 -0.24191,0.87889 -0.49098,0.90179 -1.51301,1.33122 -3.05322,1.22816 -1.6948,-0.0888 -3.09044,-0.41225 -4.32146,-0.69567 -1.075,-0.2462 -2.00113,-0.45519 -2.72829,-0.40652 -1.3484,0.10879 -2.38761,1.18808 -3.60718,2.58801 z"
       fill="#f2f2f2"
       id="path1412"
       style="fill:#896e00;fill-opacity:1" />
    <path
       d="m 318.35931,307.6827 -5.56657,2.14634 -0.51174,-0.17953 c -2.36663,-0.83111 -4.51154,-1.00856 -6.3774,-0.52817 -0.29667,0.0763 -0.58934,0.16786 -0.88756,0.26086 -1.18178,0.36909 -2.65069,0.82826 -4.58755,0.50746 -1.08046,-0.18134 -3.63823,-0.81582 -3.84275,-2.72443 -0.0604,-0.51246 0.0686,-0.94585 0.26007,-1.2994 -0.0773,-0.0241 -0.15507,-0.0496 -0.23905,-0.0764 -1.02225,-0.3431 -1.51483,-0.69784 -1.98919,-1.03959 -0.36479,-0.26246 -0.74079,-0.53382 -1.5588,-0.8994 -0.35876,-0.16045 -0.66771,-0.27773 -0.92751,-0.37683 -0.78638,-0.30137 -1.73826,-0.71472 -2.01125,-1.81219 -0.25106,-1.18313 0.55492,-2.04856 1.08823,-2.62199 0.95103,-1.02333 1.68743,-1.56715 2.17596,-1.92759 0.17869,-0.13121 0.37939,-0.28002 0.43664,-0.34387 0.45509,-0.52185 -0.86553,-3.44742 -1.35628,-4.55142 -1.11132,-2.47732 -2.07299,-4.62097 -0.68133,-5.97293 0.99506,-0.96828 2.66917,-0.88194 5.11064,0.26842 0.75995,0.35861 1.37909,0.78967 1.87942,1.18528 0.13658,-0.47236 0.41457,-0.93593 0.9628,-1.23803 v 0 c 1.29865,-0.71345 3.0049,0.1162 5.07645,2.46307 0.51671,0.58222 1.20795,1.36728 1.75894,2.57682 0.25895,0.5699 0.42475,1.10059 0.55914,1.55665 0.26839,-0.06 0.57272,-0.0732 0.91151,0.0111 0.99684,0.24618 1.67146,1.12587 1.96244,2.64184 0.34404,1.66189 0.38512,3.09393 0.42322,4.35659 0.0345,1.10229 0.0673,2.05114 0.2988,2.74218 0.44725,1.27671 1.75484,2.00817 3.41833,2.83276 l 4.21441,2.04244 z"
       fill="#f2f2f2"
       id="path1414"
       style="fill:#896e00;fill-opacity:1" />
    <path
       d="m 315.27831,290.21584 -0.66418,-5.92894 0.30346,-0.44947 c 1.40422,-2.07842 2.11993,-4.10818 2.12852,-6.03487 10e-4,-0.30632 -0.0129,-0.61265 -0.0272,-0.9247 -0.0573,-1.23675 -0.12883,-2.77409 0.67277,-4.56623 0.44947,-0.99913 1.71198,-3.31231 3.61004,-3.02602 0.51102,0.0716 0.8975,0.30632 1.19094,0.58116 0.0429,-0.0687 0.0873,-0.13742 0.13455,-0.21185 0.59118,-0.90179 1.05925,-1.28828 1.51015,-1.66045 0.3464,-0.28628 0.70426,-0.58116 1.26538,-1.27969 0.2462,-0.30632 0.43801,-0.57543 0.59977,-0.8016 0.49098,-0.68422 1.13225,-1.50013 2.26308,-1.48581 1.20812,0.0573 1.84081,1.05639 2.26021,1.7177 0.74863,1.17949 1.08788,2.02975 1.31261,2.59373 0.0816,0.20612 0.17463,0.43801 0.22187,0.50959 0.38935,0.57257 3.55422,0.0372 4.74659,-0.15746 2.67819,-0.4466 4.99566,-0.83309 5.95042,0.85599 0.68422,1.20812 0.17606,2.80558 -1.55595,4.87542 -0.53965,0.64414 -1.11365,1.13369 -1.62323,1.51731 0.42227,0.25193 0.80016,0.63841 0.95333,1.24534 v 0 c 0.36072,1.43715 -0.8746,2.87716 -3.67016,4.28567 -0.69424,0.35213 -1.62896,0.82164 -2.93871,1.0478 -0.61694,0.10593 -1.17233,0.13169 -1.64757,0.146 -0.01,0.27483 -0.0744,0.57257 -0.24191,0.87889 -0.49098,0.90179 -1.51301,1.33122 -3.05322,1.22816 -1.6948,-0.0888 -3.09044,-0.41225 -4.32146,-0.69567 -1.075,-0.2462 -2.00113,-0.45519 -2.72829,-0.40652 -1.3484,0.10879 -2.38761,1.18808 -3.60718,2.58801 z"
       fill="#f2f2f2"
       id="path1416"
       style="fill:#896e00;fill-opacity:1" />
    <path
       d="m 321.34467,405.30205 -1.24247,-0.77869 -0.3006,-1.43428 0.3006,1.43428 -1.4486,0.16604 c -0.0229,-0.13455 -0.10163,-0.44374 -0.22044,-0.92756 -0.64843,-2.65099 -2.62523,-10.71848 -4.27422,-23.42377 -1.15086,-8.86908 -1.80216,-17.98723 -1.93671,-27.10538 -0.13455,-9.13246 0.29774,-16.04622 0.64414,-21.603 0.26195,-4.1912 0.57973,-8.182 0.89177,-12.06974 0.83022,-10.38639 1.61321,-20.19734 1.03062,-31.05896 -0.12883,-2.42483 -0.39937,-7.47202 -3.34809,-12.8427 -1.71055,-3.11477 -4.06667,-5.88028 -7.00394,-8.21635 l 1.82649,-2.296 c 3.24217,2.58228 5.84878,5.64552 7.74828,9.10383 3.26936,5.95471 3.56424,11.45423 3.70595,14.09663 0.59261,11.05343 -0.19897,20.95886 -1.03778,31.44545 -0.30919,3.87342 -0.62696,7.84705 -0.88748,12.02107 -0.34354,5.50524 -0.77154,12.35888 -0.63841,21.37397 0.13169,9.00936 0.77583,18.01586 1.91095,26.77329 1.62896,12.54497 3.57712,20.49222 4.21696,23.10313 0.34068,1.3942 0.41225,1.68621 0.063,2.23874 z"
       fill="#f2f2f2"
       id="path1418"
       style="fill:#896e00;fill-opacity:1" />
    <path
       d="m 299.06032,272.09979 c -0.12024,0 -0.24191,-0.003 -0.36501,-0.0114 -2.4964,-0.13455 -4.80814,-1.62896 -6.87225,-4.44027 -0.96764,-1.32263 -1.46291,-2.83135 -2.45059,-5.8402 -0.15316,-0.46378 -0.8975,-2.81704 -1.34983,-6.05491 -0.2963,-2.11564 -0.25909,-3.00026 0.16032,-3.78181 0.46521,-0.8703 1.21814,-1.47723 2.06554,-1.88661 -0.0372,-0.28056 -0.007,-0.56971 0.11451,-0.86458 0.49957,-1.22243 1.82792,-1.06211 2.5465,-0.98482 0.36358,0.0458 0.81734,0.10593 1.30689,0.0802 0.7701,-0.0372 1.18378,-0.26624 1.81075,-0.60979 0.59977,-0.32923 1.34554,-0.73861 2.45202,-0.96478 2.18148,-0.45519 4.00941,0.16318 4.61204,0.36644 3.1706,1.05639 4.73371,3.52129 6.54302,6.37555 0.36072,0.57257 1.5989,2.65672 2.41624,5.51383 0.58975,2.06125 0.50672,2.97735 0.32923,3.65871 -0.36072,1.39993 -1.21241,2.20152 -3.37529,3.97076 -2.25878,1.85226 -3.39247,2.77982 -4.36583,3.3438 -2.26594,1.30832 -3.68877,2.12995 -5.57825,2.12995 z"
       fill="#f2f2f2"
       id="path1420"
       style="fill:#896e00;fill-opacity:1" />
  </g>
  <path
     d="m 353.81794,59.960742 -53.45872,14.521685 7.77819,34.688273 c -2.51507,-1.68769 -5.54027,-2.67415 -8.79669,-2.67415 -8.73144,0 -15.80961,7.07824 -15.80961,15.80961 0,8.73138 7.07817,15.80956 15.80961,15.80956 8.73144,0 15.80956,-7.07817 15.80956,-15.80956 0,-3.03481 -0.87015,-5.85979 -2.35259,-8.26738 l -6.16681,-27.502023 46.11829,-14.49942 4.21786,20.48627 c -2.5315,-1.72213 -5.58755,-2.73052 -8.8801,-2.73052 -8.73139,0 -15.80961,7.07823 -15.80961,15.809613 0,8.73137 7.07823,15.80956 15.80961,15.80956 8.73137,0 15.80956,-7.07817 15.80956,-15.80956 0,-3.06717 -0.88779,-5.920583 -2.39951,-8.344583 z"
     fill="#6c63ff"
     id="path1452"
     style="fill:#896e00;fill-opacity:1;stroke-width:1.30138" />
  <path
     d="m 416.5208,106.14498 c -8.64077,0 -15.64543,7.00466 -15.64543,15.64543 0,2.44261 0.57582,4.74524 1.57403,6.80509 l 8.92947,36.83418 5.06872,-1.22867 -6.8884,-28.41464 c 2.09876,1.04611 4.45718,1.64947 6.96162,1.64947 8.64076,0 15.64543,-7.00475 15.64543,-15.64543 0,-8.64069 -7.00467,-15.64543 -15.64543,-15.64543 z"
     fill="#6c63ff"
     id="path1454"
     style="fill:#896e00;fill-opacity:1;stroke-width:1.30138" />
  <path
     d="m 484.93039,206.42883 -8.86451,-35.45365 -5.38166,1.26484 6.93374,27.73136 c -2.13253,-0.96559 -4.50247,-1.52043 -7.01147,-1.52043 -9.17425,0 -16.6114,7.21087 -16.6114,16.10601 0,8.89515 7.43715,16.10602 16.6114,16.10602 9.17424,0 16.61139,-7.21095 16.61139,-16.10602 0,-2.9686 -0.84271,-5.74017 -2.28749,-8.12812 z"
     fill="#6c63ff"
     id="path1456"
     style="fill:#896e00;fill-opacity:1;stroke-width:1.30138" />
  <g
     id="g31429"
     transform="matrix(-1,0,0,1,348.74911,0)">
    <g
       id="g1392"
       transform="matrix(1.3013783,0,0,1.3013783,7.5499793,60.808055)">
      <polygon
         points="172.28134,364.47429 172.27946,400.51778 162.93495,400.51687 158.4897,364.47332 "
         fill="#a0616a"
         id="polygon1388" />
      <path
         d="m 140.26397,400.3058 v 0 c -0.29096,0.49002 -0.44448,2.0716 -0.44448,2.64146 v 0 c 0,1.75159 1.41992,3.17157 3.17157,3.17157 h 28.93888 c 1.19492,0 2.16366,-0.96868 2.16366,-2.16366 v -1.20482 c 0,0 1.43158,-3.62111 -1.51579,-8.08432 0,0 -3.66318,3.49476 -9.13692,-1.97897 l -1.61416,-2.92417 -11.68427,8.54529 -6.47641,0.79718 c -1.41691,0.17439 -2.67313,-0.0271 -3.40197,1.20044 z"
         fill="#2f2e41"
         id="path1390" />
    </g>
    <g
       id="g1398"
       transform="matrix(1.3013783,0,0,1.3013783,7.5499793,60.808055)">
      <polygon
         points="130.41303,364.47429 130.41116,400.51778 121.06664,400.51687 116.6214,364.47332 "
         fill="#a0616a"
         id="polygon1394" />
      <path
         d="m 98.39566,400.3058 v 0 c -0.29096,0.49002 -0.44448,2.0716 -0.44448,2.64146 v 0 c 0,1.75159 1.41992,3.17157 3.17157,3.17157 h 28.93888 c 1.19492,0 2.16366,-0.96868 2.16366,-2.16366 v -1.20482 c 0,0 1.43158,-3.62111 -1.51579,-8.08432 0,0 -3.66318,3.49476 -9.13692,-1.97897 l -1.61416,-2.92417 -11.68427,8.54529 -6.47641,0.79718 c -1.41691,0.17439 -2.67313,-0.0271 -3.40197,1.20044 z"
         fill="#2f2e41"
         id="path1396" />
    </g>
    <polygon
       points="116.26056,374.76097 96.14202,195.86912 109.46376,179.82867 173.08183,174.39122 181.78174,196.68474 174.98494,374.76097 155.95389,374.76097 138.82595,214.08455 134.74787,375.30472 "
       fill="#2f2e41"
       id="polygon1400"
       transform="matrix(1.3013783,0,0,1.3013783,7.5499793,60.808055)" />
    <path
       d="m 179.36984,123.23607 29.71991,-2.12285 9.19902,14.85996 27.59705,7.78379 -10.26044,71.82312 10.96806,107.20397 c 0,0 -39.62655,-5.66093 -42.45701,5.66093 -2.83046,11.32186 -72.17692,-11.32188 -72.17692,-11.32188 l 23.70516,-73.23835 -2.12285,-57.31697 -6.36855,-33.258 29.01229,-13.44472 z"
       fill="#e6e6e6"
       id="path1402"
       style="stroke-width:1.30138" />
    <path
       d="m 165.92512,144.46458 c 0,0 -23.68289,-0.3538 -26.87831,9.55283 -3.19541,9.90664 -13.80968,78.54549 -13.80968,78.54549 l -8.13759,30.07372 36.44227,-18.04424 -7.78379,-12.00999 25.47421,-48.84507 -5.30713,-39.27274 z"
       fill="#e6e6e6"
       id="path1404"
       style="stroke-width:1.30138" />
    <path
       d="m 180.41348,254.49899 c 3.91582,0.004 7.55628,-2.25285 9.07871,-5.8606 1.15136,-2.7284 1.0428,-5.34616 0.18128,-7.59049 0.27724,-0.11492 0.5521,-0.23443 0.83593,-0.33602 -0.417,-0.16896 -0.82224,-0.35986 -1.22722,-0.5511 -1.41062,-2.81145 -4.11501,-4.85173 -7.33608,-5.34729 -3.98987,-4.2739 -6.44236,-10.00064 -6.46794,-16.30335 -0.0527,-12.98966 10.48446,-23.83991 23.47051,-24.15151 0.10229,-0.003 0.20434,-0.004 0.30631,-0.005 5.81501,-0.067 11.09007,3.18584 14.03626,8.1997 1.71912,2.92562 4.89593,4.88959 8.53563,4.88959 2.7864,0 5.3001,-1.15197 7.09689,-3.00498 3.91475,-4.03721 8.81672,-7.04122 14.36426,-7.96278 3.64313,-0.60519 7.41367,-0.83353 11.27146,-0.64175 26.40843,1.31278 49.12861,24.71824 49.69256,51.15327 0.62812,29.44298 -23.05132,53.50786 -52.35145,53.50786 -15.24585,0 -28.96326,-6.51983 -38.52998,-16.92021 -4.24728,-4.61738 -10.19899,-7.20381 -16.47239,-7.13975 -0.0638,6.5e-4 -0.1278,9.7e-4 -0.19173,9.7e-4 -10.16094,0 -18.39804,-8.2371 -18.39804,-18.39804 0,-0.56352 0.028,-1.12015 0.0806,-1.66968 0.0983,-1.02752 0.99233,-1.8695 2.02454,-1.86843 v 0 z"
       fill="#6c63ff"
       id="path1406"
       style="fill:#666606;fill-opacity:1;stroke-width:1.30138" />
    <polygon
       points="198.09407,153.1852 199.7253,136.87287 64.33299,111.31689 63.78924,121.10429 "
       fill="#6c63ff"
       id="polygon1424"
       transform="matrix(1.3013783,0,0,1.3013783,7.5499793,60.808055)"
       style="fill:#735c4d;fill-opacity:1" />
    <path
       d="m 93.394384,207.7963 -2.122848,-2.12285 c 0,0 -9.199013,-4.2457 -9.199013,-4.95332 0,-0.44291 -13.583761,-5.0441 -23.746823,-8.42464 -5.67587,-1.88796 -11.669993,1.84805 -12.478187,7.77483 l -1.273568,9.33946 c -0.761515,5.58442 3.452036,10.6109 9.083646,10.83617 l 24.876835,0.99507 12.029486,-2.83047 z"
       fill="#6c63ff"
       id="path1426"
       style="fill:#666606;fill-opacity:1;stroke-width:1.30138" />
    <polygon
       points="64.06112,114.30749 199.45343,139.86346 199.77628,138.50888 64.29741,112.60828 "
       fill="#3f3d56"
       id="polygon1428"
       transform="matrix(1.3013783,0,0,1.3013783,7.5499793,60.808055)"
       style="fill:#363636;fill-opacity:1" />
    <polygon
       points="64.06112,117.02621 199.14306,142.43563 199.45343,140.95095 64.15006,115.28931 "
       fill="#3f3d56"
       id="polygon1430"
       transform="matrix(1.3013783,0,0,1.3013783,7.5499793,60.808055)"
       style="fill:#363636;fill-opacity:1" />
    <polygon
       points="64.06112,118.65744 198.83269,145.51809 198.90968,143.12593 64.04386,117.24126 "
       fill="#3f3d56"
       id="polygon1432"
       transform="matrix(1.3013783,0,0,1.3013783,7.5499793,60.808055)"
       style="fill:#363636;fill-opacity:1" />
    <polygon
       points="63.73136,119.72369 198.47134,149.09809 198.36594,146.93214 63.84712,119.19269 "
       fill="#3f3d56"
       id="polygon1434"
       transform="matrix(1.3013783,0,0,1.3013783,7.5499793,60.808055)"
       style="fill:#363636;fill-opacity:1" />
    <polygon
       points="63.9289,120.62002 198.46895,151.26882 198.36594,149.65086 64.04943,120.09008 "
       fill="#3f3d56"
       id="polygon1436"
       transform="matrix(1.3013783,0,0,1.3013783,7.5499793,60.808055)"
       style="fill:#363636;fill-opacity:1" />
    <path
       d="m 164.5879,139.95299 8.7672,-4.8546 3.80275,77.65122 -1.3261,9.55283 c 0,0 -22.13392,-61.033 -11.24387,-82.34945 z"
       fill="#3f3d56"
       id="path1438"
       style="stroke-width:1.30138" />
    <circle
       cx="-193.22583"
       cy="95.869965"
       r="21.936123"
       fill="#a0616a"
       id="circle1440"
       style="stroke-width:1.30138"
       transform="scale(-1,1)" />
    <path
       d="m 211.97767,108.96088 -5.24423,4.18647 5.95184,-22.584514 c 0,0 -16.629,-0.353805 -18.04424,-9.552832 0,0 -13.09091,-0.353806 -16.629,-0.353806 -3.53808,0 -5.13447,23.411032 -5.13447,23.411032 0,0 -6.89501,-19.165324 0.18115,-29.071962 7.07617,-9.906639 4.59952,-3.891889 6.01475,-7.429973 1.41524,-3.538083 15.92139,-6.79201 25.12041,-3.184277 9.19901,3.607733 9.55283,8.750494 12.38329,8.797851 2.83046,0.04736 12.73711,14.199703 3.53808,25.521564 -9.19903,11.321857 -8.1376,10.260447 -8.1376,10.260447 z"
       fill="#2f2e41"
       id="path1442"
       style="stroke-width:1.30138" />
    <path
       d="m 242.84796,250.91047 c 2.60005,-2.07459 4.51597,-4.56443 5.59571,-7.02541 l 26.01725,-18.19871 -9.02183,-12.12673 -25.42055,19.76643 c -2.63931,0.50642 -5.49235,1.82176 -8.0924,3.89635 -5.93981,4.7394 -8.31,11.64559 -5.29402,15.42545 3.01599,3.77986 10.27602,3.002 16.21583,-1.73738 v 0 z"
       fill="#a0616a"
       id="path1444"
       style="stroke-width:1.30138" />
    <path
       d="m 143.17179,223.22833 c -1.92925,2.70964 -3.08656,5.63037 -3.44786,8.29341 l -20.00916,24.65205 12.00897,9.17801 19.00432,-25.99523 c 2.39827,-1.21274 4.77956,-3.26198 6.70882,-5.97162 4.40737,-6.19017 4.78688,-13.4819 0.84769,-16.28657 -3.9392,-2.80468 -10.70537,-0.0602 -15.11275,6.12994 v 0 z"
       fill="#a0616a"
       id="path1446"
       style="stroke-width:1.30138" />
    <path
       d="m 234.56396,148.35647 c 0,0 6.36855,-10.61425 12.73711,-4.24571 5.03943,5.03943 32.67586,37.10665 43.99182,50.27201 3.12055,3.63056 4.83375,8.25643 4.83375,13.04378 v 0 c 0,7.40518 -4.08844,14.20528 -10.62869,17.67822 l -35.36641,18.77997 -9.90664,-14.85995 30.42753,-21.93613 -46.70272,-25.4742 10.61425,-33.258 z"
       fill="#e6e6e6"
       id="path1448"
       style="stroke-width:1.30138" />
    <polyline
       points="88.5082 142.43563 84.17965 155.0883 96.68577 161.61323 106.20129 155.0883 112.18248 141.22282 94.51079 136.05725"
       fill="#e6e6e6"
       id="polyline1450"
       transform="matrix(1.3013783,0,0,1.3013783,7.5499793,60.808055)" />
  </g>
  <g
     id="g1175"
     transform="matrix(0.33225246,0.19096437,-0.19096437,0.33225246,224.25683,-3.8022041)">
    <path
       d="m 439.62571,400.64259 0.24115,0.0582 a 21.33444,21.33444 0 0 1 3.27859,40.39908 21.00225,21.00225 0 0 1 -5.08833,1.436 21.34077,21.34077 0 1 1 1.56859,-41.89335 z"
       transform="translate(-356,-103.84676)"
       fill="#6c63ff"
       id="path1139"
       style="fill:#000000;fill-opacity:1" />
    <path
       d="m 439.62571,400.64259 a 306.27742,306.27742 0 0 1 3.51974,40.4573 21.00225,21.00225 0 0 1 -5.08833,1.436 222.04709,222.04709 0 0 0 -3.70668,-42.43177 21.30753,21.30753 0 0 1 5.27527,0.53847 z"
       transform="translate(-356,-103.84676)"
       fill="#e6e6e6"
       id="path1141"
       style="fill:#cccccc" />
    <path
       d="m 524.56253,405.09768 -73.20361,2.97092 2.06193,24.23171 72.75248,-10.97276 a 4.99071,4.99071 0 0 0 4.27457,-5.51429 l -0.0986,-0.85622 2.872,-0.11908 a 2.52094,2.52094 0 0 0 2.39056,-2.87965 l -0.0176,-0.1216 a 2.521,2.521 0 0 0 -2.76211,-2.1459 l -3.05154,0.32519 -0.0578,-0.5023 a 4.99072,4.99072 0 0 0 -5.16033,-4.41602 z"
       transform="translate(-356,-103.84676)"
       fill="#3f3d56"
       id="path1143" />
    <path
       d="m 484.01382,419.36341 a 1.48742,1.48742 0 0 1 -1.38507,1.13831 l -5.25786,0.21789 a 1.49506,1.49506 0 0 1 -1.52607,-1.219 l -0.53279,-2.90545 a 1.48864,1.48864 0 0 1 1.3066,-1.74866 l 5.32,-0.567 a 1.48379,1.48379 0 0 1 1.63088,1.267 l -2.4e-4,-5e-5 0.47111,3.25492 a 1.49366,1.49366 0 0 1 -0.0266,0.56204 z M 476.29348,416.21 a 0.49544,0.49544 0 0 0 -0.005,0.20606 l 0.533,2.90574 a 0.49811,0.49811 0 0 0 0.50851,0.40637 l 5.25786,-0.21789 a 0.49633,0.49633 0 0 0 0.47059,-0.567 l -0.47093,-3.25464 a 0.4942,0.4942 0 0 0 -0.54331,-0.42224 l -5.32019,0.567 a 0.48875,0.48875 0 0 0 -0.34468,0.19618 0.49436,0.49436 0 0 0 -0.0855,0.18042 z"
       transform="translate(-356,-103.84676)"
       fill="#e6e6e6"
       id="path1145" />
  </g>
  <g
     id="g2289"
     transform="matrix(1.1026425,0,0,1.1026425,857.15388,552.53634)">
    <path
       id="rect117162-5"
       style="fill:#f0df0f;fill-opacity:1;stroke-width:1.48697;stroke-opacity:0.13739;stop-color:#000000"
       d="M 10,0 C 4.46,0 0,4.46 0,10 v 28 c 0,5.54 4.46,10 10,10 h 8 L 48,10 C 48,4.46 43.54,0 38,0 Z" />
    <path
       id="rect117162"
       style="fill:#635c06;fill-opacity:1;stroke-width:1.48697;stroke-opacity:0.13739;stop-color:#000000"
       d="m 48,10 v 28 c 0,5.54 -4.46,10 -10,10 H 18 Z"
       sodipodi:nodetypes="csscc" />
    <g
       aria-label="©"
       id="text8373"
       style="font-weight:bold;font-size:53.3333px;font-family:'Roboto Condensed';-inkscape-font-specification:'Roboto Condensed,  Bold';fill:#000000;fill-opacity:1;stroke-width:1.88976;stroke-opacity:0.13739;stop-color:#000000"
       transform="matrix(0.81126808,0,0,0.77005394,-0.8337397,0.2558013)">
      <path
         d="m 5.9582521,24.315369 c 0,11.015618 8.2812449,19.505196 18.4895719,19.505196 10.182286,0 18.489573,-8.489578 18.489573,-19.505196 0,-11.015619 -8.307287,-19.4531139 -18.489573,-19.4531139 -10.208327,0 -18.4895719,8.4374949 -18.4895719,19.4531139 z m 3.1770815,0 c 0,-9.192703 6.8489544,-16.1979075 15.3124904,-16.1979075 8.437495,0 15.28645,7.0052045 15.28645,16.1979075 0,9.192702 -6.848955,16.24999 -15.28645,16.24999 -8.463536,0 -15.3124904,-7.057288 -15.3124904,-16.24999 z m 19.6093634,3.463539 c 0,3.385415 -1.588541,4.661456 -4.661456,4.661456 -3.333331,0 -5.05208,-2.68229 -5.05208,-6.562496 v -3.124999 c 0,-3.828122 1.718749,-6.536454 5.05208,-6.536454 3.072915,0 4.687498,1.328124 4.687498,4.661456 h 4.062497 c 0,-5.442706 -3.385415,-8.177079 -8.749995,-8.177079 -5.598955,0 -9.088536,4.114581 -9.088536,10.078119 v 3.098957 c 0,5.989579 3.489581,10.078119 9.088536,10.078119 5.36458,0 8.723953,-2.708332 8.723953,-8.177079 z"
         style="font-weight:900;font-family:Roboto;-inkscape-font-specification:'Roboto Heavy';fill:#000000;fill-opacity:1"
         id="path67279" />
    </g>
    <path
       d="m 34.987778,37.967418 -2.025088,-0.800786 -1.26803,3.206347 c -0.115677,0.292508 -0.115703,0.57221 -10e-5,0.839101 0.115623,0.26689 0.319687,0.458174 0.612199,0.573849 0.269995,0.106816 0.544085,0.104578 0.822227,-0.0066 0.27814,-0.111175 0.475048,-0.313016 0.590724,-0.605528 z m 5.400191,2.135552 -2.02509,-0.800787 -1.267936,3.206384 c -0.115679,0.29251 -0.115694,0.572213 -1e-4,0.839102 0.115622,0.266891 0.319689,0.458173 0.6122,0.57385 0.269993,0.106816 0.544084,0.104578 0.822224,-0.0066 0.278142,-0.111175 0.475049,-0.313017 0.590727,-0.605527 z m 3.418862,-4.697549 C 44.064902,34.75291 44.02072,34.091453 43.674368,33.42108 43.328011,32.750708 42.78357,32.268703 42.041043,31.975064 l 1.268028,-3.206343 -4.725171,-1.868595 -1.268029,3.206345 c -0.742505,-0.293686 -1.469377,-0.314376 -2.180557,-0.06222 -0.711181,0.252162 -1.195792,0.704503 -1.453838,1.357022 L 32.0131,35.620182 42.138459,39.624339 Z M 43.560635,24.18467 c 0.596138,-1.507567 0.571006,-2.996794 0.0134,-4.326985 -0.615005,-1.467128 -1.936103,-2.745364 -3.413476,-3.335334 -1.502537,-0.600069 -3.37425,-0.588077 -4.853319,0.06771 -1.318546,0.584612 -2.353526,1.658235 -2.949715,3.165781 l -0.867596,2.193837 2.025109,0.800794 0.867589,-2.193819 c 0.373775,-0.945012 0.983411,-1.601319 1.791813,-1.964931 0.968422,-0.435588 2.199876,-0.4399 3.185317,-0.04432 0.960298,0.385483 1.819412,1.220272 2.212629,2.17743 0.336837,0.819919 0.33697,1.713952 -0.03675,2.658985 l -1.201227,3.037616 2.025091,0.800787 z"
       id="path70730-3"
       style="stroke-width:0.72589"
       sodipodi:nodetypes="ccssssscccssssscssccccssccscaaasccsaaasccc" />
  </g>
  <path
     style="fill:none;stroke:#3f3d56;stroke-width:3.276;stroke-linecap:butt;stroke-linejoin:miter;stroke-opacity:1;stroke-miterlimit:4;stroke-dasharray:none"
     d="M 315.3909,588.82967 V 214.05161"
     id="path31228" />
</svg>
