<?xml version="1.0" encoding="UTF-8" standalone="no"?>
<svg
   width="1283.4348"
   height="591.14398"
   data-name="Layer 1"
   version="1.1"
   viewBox="0 0 1283.4348 591.14398"
   id="svg96"
   sodipodi:docname="social_cover.svg"
   inkscape:version="1.1.2 (0a00cf5339, 2022-02-04)"
   inkscape:export-filename="/home/me/Downloads/splash.png"
   inkscape:export-xdpi="265.84387"
   inkscape:export-ydpi="265.84387"
   xmlns:inkscape="http://www.inkscape.org/namespaces/inkscape"
   xmlns:sodipodi="http://sodipodi.sourceforge.net/DTD/sodipodi-0.dtd"
   xmlns="http://www.w3.org/2000/svg"
   xmlns:svg="http://www.w3.org/2000/svg">
  <defs
     id="defs100" />
  <sodipodi:namedview
     id="namedview98"
     pagecolor="#f0df0f"
     bordercolor="#666666"
     borderopacity="1.0"
     inkscape:pageshadow="2"
     inkscape:pageopacity="1"
     inkscape:pagecheckerboard="0"
     showgrid="false"
     inkscape:zoom="0.6836091"
     inkscape:cx="561.72453"
     inkscape:cy="264.7712"
     inkscape:window-width="2560"
     inkscape:window-height="1347"
     inkscape:window-x="0"
     inkscape:window-y="0"
     inkscape:window-maximized="1"
     inkscape:current-layer="svg96"
     fit-margin-right="200"
     lock-margins="true"
     fit-margin-top="100"
     fit-margin-left="200"
     fit-margin-bottom="100" />
  <path
     d="m 1070.905,491.14396 v -72.34 c 0,0 28.192,51.286 0,72.34 z"
     fill="#008080"
     id="path2" />
  <path
     d="m 1072.645,491.13396 -53.29,-48.921 c 0,0 56.845,13.916 53.29,48.921 z"
     fill="#008000"
     id="path4"
     style="fill:#00ba00;fill-opacity:1" />
  <path
     d="M 515.39032,393.93694 278.13124,459.36991 200,176.07329 437.25908,110.64031 Z"
     fill="#ffffff"
     id="path6"
     style="fill:#eeeee3;fill-opacity:1;stroke-width:0.736601" />
  <path
     d="M 515.39032,393.93694 278.13124,459.36991 200,176.07329 437.25908,110.64031 Z m -234.23166,60.09336 228.8913,-63.12447 -75.8183,-274.92148 -228.8913,63.12447 z"
     fill="#f1f1f1"
     id="path8"
     style="stroke-width:0.736601" />
  <path
     d="m 385.63074,237.54924 -59.47388,16.40189 a 3.2853864,3.2853864 0 0 1 -4.03598,-2.29105 l -16.40189,-59.47387 a 3.2853864,3.2853864 0 0 1 2.29105,-4.03599 l 59.47388,-16.40188 a 3.2853864,3.2853864 0 0 1 4.03598,2.29104 l 16.40189,59.47388 a 3.2853864,3.2853864 0 0 1 -2.29112,4.03598 z m -77.26941,-48.13317 a 1.9711435,1.9711435 0 0 0 -1.37465,2.42158 l 16.40189,59.47387 a 1.9711435,1.9711435 0 0 0 2.42158,1.37465 l 59.47387,-16.40189 a 1.9711435,1.9711435 0 0 0 1.37465,-2.42158 l -16.40189,-59.47387 a 1.9711435,1.9711435 0 0 0 -2.42157,-1.37465 z"
     fill="#e5e5e5"
     id="path10"
     style="stroke-width:0.736601" />
  <path
     d="m 370.55252,249.5411 -59.47387,16.40189 a 2.9567889,2.9567889 0 0 1 -3.63233,-2.06197 l -16.40188,-59.47387 a 2.9567889,2.9567889 0 0 1 2.06196,-3.63233 l 59.47388,-16.40189 a 2.9567889,2.9567889 0 0 1 3.63232,2.06197 l 16.40189,59.47388 a 2.9567889,2.9567889 0 0 1 -2.06189,3.63232 z"
     fill="#f0df0f"
     id="path12"
     style="stroke-width:0.736601" />
  <g
     fill="#f1f1f1"
     id="g26"
     transform="matrix(0.7366007,0,0,0.7366007,185.26799,66.444271)"
     style="fill:#8a8a8a;fill-opacity:1">
    <rect
       transform="rotate(-15.418)"
       x="29.910999"
       y="341.98999"
       width="233.73"
       height="9.0320997"
       id="rect14"
       style="fill:#8a8a8a;fill-opacity:1" />
    <rect
       transform="rotate(-15.418)"
       x="29.910999"
       y="365.54001"
       width="233.73"
       height="9.0320997"
       id="rect16"
       style="fill:#8a8a8a;fill-opacity:1" />
    <rect
       transform="rotate(-15.418)"
       x="29.910999"
       y="389.09"
       width="233.73"
       height="9.0320997"
       id="rect18"
       style="fill:#8a8a8a;fill-opacity:1" />
    <rect
       transform="rotate(-15.418)"
       x="29.910999"
       y="430.53"
       width="233.73"
       height="9.0320997"
       id="rect20"
       style="fill:#8a8a8a;fill-opacity:1" />
    <rect
       transform="rotate(-15.418)"
       x="29.910999"
       y="454.07999"
       width="233.73"
       height="9.0320997"
       id="rect22"
       style="fill:#8a8a8a;fill-opacity:1" />
    <rect
       transform="rotate(-15.418)"
       x="29.910999"
       y="477.63"
       width="233.73"
       height="9.0320997"
       id="rect24"
       style="fill:#8a8a8a;fill-opacity:1" />
  </g>
  <path
     d="M 591.34122,458.41896 H 345.22083 V 164.54475 h 246.12039 z"
     fill="#ffffff"
     id="path28"
     style="fill:#eeeee3;fill-opacity:1;stroke-width:0.736601" />
  <path
     d="M 591.34122,458.41896 H 345.22083 V 164.54475 H 591.34122 Z M 349.56677,454.07707 H 587.00264 V 168.88738 H 349.56677 Z"
     fill="#e5e5e5"
     id="path30"
     style="stroke-width:0.736601" />
  <g
     fill="#f0df0f"
     id="g40"
     transform="matrix(0.7366007,0,0,0.7366007,185.26799,66.444271)">
    <rect
       x="299.41"
       y="304.69"
       width="191.03"
       height="9.0320997"
       id="rect32" />
    <rect
       x="299.41"
       y="328.17999"
       width="191.03"
       height="9.0320997"
       id="rect34" />
    <rect
       x="299.41"
       y="351.66"
       width="191.03"
       height="9.0320997"
       id="rect36" />
    <circle
       cx="283.88"
       cy="310.53"
       r="5.8944998"
       id="circle38" />
  </g>
  <g
     fill="#e5e5e5"
     id="g58"
     transform="matrix(0.7366007,0,0,0.7366007,185.26799,66.444271)"
     style="fill:#888888;fill-opacity:1">
    <rect
       x="299.41"
       y="203.50999"
       width="191.03"
       height="9.0320997"
       id="rect42"
       style="fill:#888888;fill-opacity:1" />
    <rect
       x="299.41"
       y="226.99001"
       width="191.03"
       height="9.0320997"
       id="rect44"
       style="fill:#888888;fill-opacity:1" />
    <rect
       x="299.41"
       y="250.47"
       width="191.03"
       height="9.0320997"
       id="rect46"
       style="fill:#888888;fill-opacity:1" />
    <circle
       cx="283.88"
       cy="208.36"
       r="5.8944998"
       id="circle48"
       style="fill:#888888;fill-opacity:1" />
    <rect
       x="299.41"
       y="406.87"
       width="191.03"
       height="9.0320997"
       id="rect50"
       style="fill:#888888;fill-opacity:1" />
    <rect
       x="299.41"
       y="430.35001"
       width="191.03"
       height="9.0320997"
       id="rect52"
       style="fill:#888888;fill-opacity:1" />
    <rect
       x="299.41"
       y="453.82999"
       width="191.03"
       height="9.0320997"
       id="rect54"
       style="fill:#888888;fill-opacity:1" />
    <circle
       cx="283.88"
       cy="411.72"
       r="5.8944998"
       id="circle56"
       style="fill:#888888;fill-opacity:1" />
  </g>
  <path
     id="path12437"
     style="color:#000000;fill:#000000;fill-opacity:0.8;stroke-width:10.1;-inkscape-stroke:none"
     d="M 834.95117 271.0957 C 820.99682 271.0957 808.58219 276.21218 798.76172 286.0332 C 788.94175 295.85372 783.82422 308.26818 783.82422 322.22266 L 783.82422 340.45312 L 694.29492 340.45312 C 689.07448 340.45312 684.09616 342.49563 680.41602 346.17578 C 676.73604 349.85602 674.69531 354.83594 674.69531 360.05469 L 674.69531 465.30469 C 674.69531 470.52351 676.73505 475.50263 680.41602 479.18359 C 684.09625 482.86357 689.07456 484.90625 694.29492 484.90625 L 820.4043 484.90625 C 825.62474 484.90625 830.60388 482.86292 834.2832 479.18359 C 837.96318 475.50336 840.00586 470.52506 840.00586 465.30469 L 840.00586 360.05469 C 840.00586 354.83424 837.96253 349.85511 834.2832 346.17578 C 830.60379 342.49663 825.62467 340.45314 820.4043 340.45312 L 808.47461 340.45312 L 808.47461 322.22266 C 808.47461 314.67722 810.91489 308.77982 816.21289 303.48242 C 821.51076 298.18455 827.40553 295.74609 834.95117 295.74609 C 842.4968 295.74609 848.39449 298.1849 853.69141 303.48242 C 858.98883 308.78045 861.42773 314.6773 861.42773 322.22266 L 861.42773 327.27148 L 886.07812 327.27148 L 886.07812 322.22266 C 886.07812 308.26831 880.96139 295.85342 871.14062 286.0332 C 861.32011 276.21323 848.90565 271.0957 834.95117 271.0957 z M 760.43555 394.29297 C 765.9555 394.29297 770.13027 396.14549 774.11133 400.48047 C 778.20453 404.93756 779.96289 409.33809 779.96289 414.45898 C 779.96289 419.83294 778.24057 423.91149 774.30078 427.76367 C 770.36884 431.60827 766.08744 433.3457 760.43555 433.3457 C 754.78373 433.3457 750.50421 431.60818 746.57227 427.76367 C 742.63258 423.91182 740.91016 419.83325 740.91016 414.45898 C 740.91016 409.33825 742.66855 404.93753 746.76172 400.48047 C 750.74274 396.14551 754.91561 394.29297 760.43555 394.29297 z " />
  <path
     d="m 868.36503,293.05396 a 9.0954,9.0954 0 0 1 9.8515,-9.872 l 9.6066,-18.431 12.624,3.1061 -13.932,25.838 a 9.1446,9.1446 0 0 1 -18.15,-0.64078 z"
     fill="#ffb7b7"
     id="path66" />
  <polygon
     transform="translate(291.83502,-152.91304)"
     points="633.87,625.53 623.22,625.53 618.15,584.44 633.87,584.44 "
     fill="#ffb7b7"
     id="polygon68" />
  <path
     d="m 928.42503,482.94396 -34.349,-10e-4 v -0.43446 a 13.37,13.37 0 0 1 13.37,-13.369 h 8.5e-4 l 20.979,8.5e-4 z"
     fill="#2f2e41"
     id="path70"
     style="fill:#3d3c55;fill-opacity:1" />
  <polygon
     transform="translate(291.83502,-152.91304)"
     points="719.55,617.57 709.27,620.37 693.57,582.06 708.74,577.93 "
     fill="#ffb7b7"
     id="polygon72" />
  <path
     d="m 1016.725,473.90396 -33.13897,9.0366 -0.11432,-0.41915 a 13.37,13.37 0 0 1 9.3807,-16.416 l 8.2e-4,-2.2e-4 20.23997,-5.5192 z"
     fill="#2f2e41"
     id="path74"
     style="fill:#3d3c55;fill-opacity:1" />
  <polygon
     transform="translate(291.83502,-152.91304)"
     points="620.52,619.26 639.22,613.55 640.01,532.66 654.97,486.02 699.25,610.6 719.52,603.12 702.79,522.23 693.34,446.26 614.42,448.03 609.11,528.73 "
     fill="#2f2e41"
     id="polygon76"
     style="fill:#3d3a8e;fill-opacity:1" />
  <path
     d="m 957.91503,153.42396 -31.486,4.6428 -11.343,11.218 -3.5219,40.307 2.1874,35.702 -9.1187,62.959 c 0,0 22.93,-12.729 40.701,3.2052 17.771,15.9342 42.635,2.816 43.147,-7.784 z"
     fill="#cbcbcb"
     id="path78"
     style="fill:#324949;fill-opacity:1" />
  <g
     fill="#2f2e41"
     id="g86"
     transform="translate(242.90502,-72.276038)"
     style="fill:#20ac95;fill-opacity:1">
    <path
       d="m 699.03,276.25 -4.3e-4,-0.0453 15.641,-50.984 0.20211,-0.0132 c 1.1133,-0.0725 27.337,-1.618 33.202,11.33 l 0.0284,0.0625 -1.7816,52.983 2.4537,82.979 -48.501,10.505 -0.35252,0.0768 z"
       id="path80"
       style="fill:#20ac95;fill-opacity:1" />
    <path
       d="m 681.69,272.72 2.8693,-43.221 c -20.407,1.2694 -20.099,15.738 -20.076,16.369 l -0.223,64.65 -4.0871,69.164 14.86,-1.1144 z"
       id="path82"
       style="fill:#20ac95;fill-opacity:1" />
    <path
       d="m 635.68,351.37 18.117,-42.047 12.645,-23.222 6.6021,41.889 -22.922,34.384 z"
       id="path84"
       style="fill:#20ac95;fill-opacity:1" />
  </g>
  <path
     d="m 953.45503,263.62396 a 9.0953,9.0953 0 0 1 12.325,-6.5264 l 14.616,-14.777 11.146,6.6922 -20.934,20.578 a 9.1446,9.1446 0 0 1 -17.154,-5.9668 z"
     fill="#ffb7b7"
     id="path88" />
  <path
     d="m 965.74503,251.70396 29.801,-32.692 -19.727,-28.149 2.0304,-13.762 11.627,-14.362 0.2269,0.29336 c 1.2393,1.6037 30.36197,39.439 31.19797,53.763 0.8386,14.376 -41.02097,50.742 -42.80297,52.282 l -0.24766,0.21428 z"
     fill="#2f2e41"
     id="path90"
     style="fill:#20ac95;fill-opacity:1" />
  <circle
     cx="939.755"
     cy="128.69397"
     r="21.181"
     fill="#ffb7b7"
     id="circle92" />
  <path
     d="m 959.67503,111.76396 1.0269,-2.0668 -5.1669,-2.5672 c 0,0 -5.6999,-9.274395 -16.014,-6.6681 -10.3141,2.6063 -14.955,4.1661 -14.955,4.1661 l -5.1538,2.5932 2.5867,2.5737 -4.6404,1.5599 3.1001,1.5403 -3.6071,2.0733 1.9418,10.628 c 0,0 3.2251,-8.0612 9.4254,-4.9806 6.2003,3.0806 17.541,-1.5924 17.541,-1.5924 l 9.853,19.069 c 0,0 2.0327,-6.6845 5.6568,-4.9021 2e-5,3e-5 9.2587,-14.745 -1.595,-21.426 z"
     fill="#2f2e41"
     id="path94"
     style="fill:#855e5e;fill-opacity:1" />
  <text
     xml:space="preserve"
     style="font-style:normal;font-variant:normal;font-weight:bold;font-stretch:normal;font-size:37.3333px;line-height:normal;font-family:Roboto;-inkscape-font-specification:'Roboto Bold';text-decoration-color:#000000;white-space:pre;opacity:1;fill:#000000;fill-opacity:0.8;stroke:none;stroke-width:2;stroke-opacity:0.8;stop-color:#000000"
     x="671.987"
     y="126.54164"
     id="text3067"><tspan
       sodipodi:role="line"
       x="671.987"
       y="126.54164"
       id="tspan3069"
       style="font-size:37.3333px;fill:#000000;fill-opacity:0.8">Free</tspan><tspan
       sodipodi:role="line"
       x="671.987"
       y="173.20827"
       style="font-size:37.3333px;fill:#000000;fill-opacity:0.8"
       id="tspan54969">Ministry</tspan><tspan
       sodipodi:role="line"
       x="671.987"
       y="219.87489"
       style="font-size:37.3333px;fill:#000000;fill-opacity:0.8"
       id="tspan54971">Resources</tspan></text>
</svg>
