<?xml version="1.0" encoding="UTF-8" standalone="no"?>
<svg
   data-name="Layer 1"
   width="1200"
   height="630"
   viewBox="0 0 1200 630"
   version="1.1"
   id="svg95"
   sodipodi:docname="social_opposition.svg"
   inkscape:version="1.1.2 (0a00cf5339, 2022-02-04)"
   inkscape:export-filename="opposition.png"
   inkscape:export-xdpi="96"
   inkscape:export-ydpi="96"
   xmlns:inkscape="http://www.inkscape.org/namespaces/inkscape"
   xmlns:sodipodi="http://sodipodi.sourceforge.net/DTD/sodipodi-0.dtd"
   xmlns="http://www.w3.org/2000/svg"
   xmlns:svg="http://www.w3.org/2000/svg">
  <defs
     id="defs99" />
  <sodipodi:namedview
     id="namedview97"
     pagecolor="#ffffff"
     bordercolor="#666666"
     borderopacity="1.0"
     inkscape:pageshadow="2"
     inkscape:pageopacity="0.0"
     inkscape:pagecheckerboard="0"
     showgrid="false"
     inkscape:zoom="0.53033009"
     inkscape:cx="170.64844"
     inkscape:cy="94.280903"
     inkscape:window-width="2560"
     inkscape:window-height="1347"
     inkscape:window-x="0"
     inkscape:window-y="0"
     inkscape:window-maximized="1"
     inkscape:current-layer="svg95"
     inkscape:snap-bbox="true"
     inkscape:snap-page="true" />
  <rect
     style="fill:#fcf9cf;fill-opacity:1;stroke:none;stroke-width:19.8788;stroke-dasharray:79.5151, 79.5151;stop-color:#000000"
     id="rect888"
     width="1200"
     height="630"
     x="0"
     y="0" />
  <rect
     style="fill:#f0df0f;stroke:none;stroke-width:2.50668;stroke-opacity:0.4;stop-color:#000000;fill-opacity:1"
     id="rect19083"
     width="530.85211"
     height="630"
     x="0"
     y="0" />
  <text
     xml:space="preserve"
     style="font-style:italic;font-weight:bold;font-size:64px;line-height:normal;font-family:Roboto;-inkscape-font-specification:'Roboto Bold Italic';text-decoration-color:#000000;white-space:pre;inline-size:624.92;fill:#000000;fill-opacity:0.796308;stroke:none;stroke-width:6;stroke-dasharray:24, 24;stop-color:#000000"
     x="575.08038"
     y="161.71532"
     id="text9376"><tspan
       x="575.08038"
       y="161.71532"
       id="tspan22372"><tspan
         style="font-style:normal;-inkscape-font-specification:'Roboto Bold'"
         id="tspan22370">Know of any
</tspan></tspan><tspan
       x="575.08038"
       y="241.71531"
       id="tspan22376"><tspan
         style="font-style:normal;-inkscape-font-specification:'Roboto Bold'"
         id="tspan22374">argument for selling </tspan></tspan><tspan
       x="575.08038"
       y="321.71531"
       id="tspan22380"><tspan
         style="font-style:normal;-inkscape-font-specification:'Roboto Bold'"
         id="tspan22378">ministry?</tspan></tspan></text>
  <text
     xml:space="preserve"
     style="font-style:italic;font-weight:bold;font-size:29.3333px;line-height:normal;font-family:Roboto;-inkscape-font-specification:'Roboto Bold Italic';text-decoration-color:#000000;fill:#000000;fill-opacity:0.796308;stroke:none;stroke-width:6;stroke-dasharray:24, 24;stop-color:#000000"
     x="933.95453"
     y="588.87018"
     id="text9376-3"><tspan
       sodipodi:role="line"
       id="tspan9374-6"
       x="933.95453"
       y="588.87018"
       style="font-style:normal;font-variant:normal;font-weight:bold;font-stretch:normal;font-size:29.3333px;font-family:Roboto;-inkscape-font-specification:'Roboto Bold';fill:#000000;fill-opacity:0.796308">Let's copy, church</tspan></text>
  <text
     xml:space="preserve"
     style="font-style:normal;font-variant:normal;font-weight:bold;font-stretch:normal;font-size:53.3333px;line-height:1.5;font-family:Roboto;-inkscape-font-specification:'Roboto Bold';text-decoration-color:#000000;fill:#000000;fill-opacity:0.551107;stroke:none;stroke-width:6;stroke-dasharray:24, 24;stop-color:#000000"
     x="575.62726"
     y="435.43027"
     id="text15068"><tspan
       sodipodi:role="line"
       x="575.62726"
       y="435.43027"
       style="font-style:italic;font-variant:normal;font-weight:bold;font-stretch:normal;font-size:53.3333px;font-family:Roboto;-inkscape-font-specification:'Roboto Bold Italic';fill:#000000;fill-opacity:0.551107"
       id="tspan7933">We'll post it in full!</tspan></text>
  <g
     id="g2289"
     transform="matrix(1.1026425,0,0,1.1026425,857.15388,552.53634)">
    <path
       id="rect117162-5"
       style="fill:#f0df0f;fill-opacity:1;stroke-width:1.48697;stroke-opacity:0.13739;stop-color:#000000"
       d="M 10,0 C 4.46,0 0,4.46 0,10 v 28 c 0,5.54 4.46,10 10,10 h 8 L 48,10 C 48,4.46 43.54,0 38,0 Z" />
    <path
       id="rect117162"
       style="fill:#635c06;fill-opacity:1;stroke-width:1.48697;stroke-opacity:0.13739;stop-color:#000000"
       d="m 48,10 v 28 c 0,5.54 -4.46,10 -10,10 H 18 Z"
       sodipodi:nodetypes="csscc" />
    <g
       aria-label="©"
       id="text8373"
       style="font-weight:bold;font-size:53.3333px;font-family:'Roboto Condensed';-inkscape-font-specification:'Roboto Condensed,  Bold';fill:#000000;fill-opacity:1;stroke-width:1.88976;stroke-opacity:0.13739;stop-color:#000000"
       transform="matrix(0.81126808,0,0,0.77005394,-0.8337397,0.2558013)">
      <path
         d="m 5.9582521,24.315369 c 0,11.015618 8.2812449,19.505196 18.4895719,19.505196 10.182286,0 18.489573,-8.489578 18.489573,-19.505196 0,-11.015619 -8.307287,-19.4531139 -18.489573,-19.4531139 -10.208327,0 -18.4895719,8.4374949 -18.4895719,19.4531139 z m 3.1770815,0 c 0,-9.192703 6.8489544,-16.1979075 15.3124904,-16.1979075 8.437495,0 15.28645,7.0052045 15.28645,16.1979075 0,9.192702 -6.848955,16.24999 -15.28645,16.24999 -8.463536,0 -15.3124904,-7.057288 -15.3124904,-16.24999 z m 19.6093634,3.463539 c 0,3.385415 -1.588541,4.661456 -4.661456,4.661456 -3.333331,0 -5.05208,-2.68229 -5.05208,-6.562496 v -3.124999 c 0,-3.828122 1.718749,-6.536454 5.05208,-6.536454 3.072915,0 4.687498,1.328124 4.687498,4.661456 h 4.062497 c 0,-5.442706 -3.385415,-8.177079 -8.749995,-8.177079 -5.598955,0 -9.088536,4.114581 -9.088536,10.078119 v 3.098957 c 0,5.989579 3.489581,10.078119 9.088536,10.078119 5.36458,0 8.723953,-2.708332 8.723953,-8.177079 z"
         style="font-weight:900;font-family:Roboto;-inkscape-font-specification:'Roboto Heavy';fill:#000000;fill-opacity:1"
         id="path67279" />
    </g>
    <path
       d="m 34.987778,37.967418 -2.025088,-0.800786 -1.26803,3.206347 c -0.115677,0.292508 -0.115703,0.57221 -10e-5,0.839101 0.115623,0.26689 0.319687,0.458174 0.612199,0.573849 0.269995,0.106816 0.544085,0.104578 0.822227,-0.0066 0.27814,-0.111175 0.475048,-0.313016 0.590724,-0.605528 z m 5.400191,2.135552 -2.02509,-0.800787 -1.267936,3.206384 c -0.115679,0.29251 -0.115694,0.572213 -1e-4,0.839102 0.115622,0.266891 0.319689,0.458173 0.6122,0.57385 0.269993,0.106816 0.544084,0.104578 0.822224,-0.0066 0.278142,-0.111175 0.475049,-0.313017 0.590727,-0.605527 z m 3.418862,-4.697549 C 44.064902,34.75291 44.02072,34.091453 43.674368,33.42108 43.328011,32.750708 42.78357,32.268703 42.041043,31.975064 l 1.268028,-3.206343 -4.725171,-1.868595 -1.268029,3.206345 c -0.742505,-0.293686 -1.469377,-0.314376 -2.180557,-0.06222 -0.711181,0.252162 -1.195792,0.704503 -1.453838,1.357022 L 32.0131,35.620182 42.138459,39.624339 Z M 43.560635,24.18467 c 0.596138,-1.507567 0.571006,-2.996794 0.0134,-4.326985 -0.615005,-1.467128 -1.936103,-2.745364 -3.413476,-3.335334 -1.502537,-0.600069 -3.37425,-0.588077 -4.853319,0.06771 -1.318546,0.584612 -2.353526,1.658235 -2.949715,3.165781 l -0.867596,2.193837 2.025109,0.800794 0.867589,-2.193819 c 0.373775,-0.945012 0.983411,-1.601319 1.791813,-1.964931 0.968422,-0.435588 2.199876,-0.4399 3.185317,-0.04432 0.960298,0.385483 1.819412,1.220272 2.212629,2.17743 0.336837,0.819919 0.33697,1.713952 -0.03675,2.658985 l -1.201227,3.037616 2.025091,0.800787 z"
       id="path70730-3"
       style="stroke-width:0.72589"
       sodipodi:nodetypes="ccssssscccssssscssccccssccscaaasccsaaasccc" />
  </g>
  <g
     id="g15093"
     transform="matrix(0.50440256,0,0,0.50440256,60.165422,160.10761)">
    <path
       d="M 602.65363,129.74161 H 226.33527 a 48.17928,48.17928 0 0 0 -48.125,48.12512 v 441.87579 a 48.17923,48.17923 0 0 0 48.125,48.12506 h 376.31836 a 48.17923,48.17923 0 0 0 48.125,-48.12506 V 177.86673 a 48.17928,48.17928 0 0 0 -48.125,-48.12512 z"
       transform="translate(-178.21027,-129.74161)"
       fill="#f2f2f2"
       id="path14988" />
    <path
       d="M 602.65412,143.59579 H 226.33527 a 34.30948,34.30948 0 0 0 -34.271,34.27094 v 441.87579 a 34.30946,34.30946 0 0 0 34.271,34.27088 h 376.31885 a 34.30937,34.30937 0 0 0 34.27051,-34.27088 V 177.86673 a 34.30938,34.30938 0 0 0 -34.27051,-34.27094 z"
       transform="translate(-178.21027,-129.74161)"
       fill="#ffffff"
       id="path14990" />
    <path
       d="M 546.01784,272.08142 H 355.71616 a 8.01411,8.01411 0 0 1 0,-16.02822 h 190.30168 a 8.01411,8.01411 0 1 1 0,16.02822 z"
       transform="translate(-178.21027,-129.74161)"
       fill="#f2f2f2"
       id="path14992" />
    <path
       d="m 579.07606,299.12906 h -223.3599 a 8.01412,8.01412 0 0 1 0,-16.02823 h 223.3599 a 8.01412,8.01412 0 0 1 0,16.02823 z"
       transform="translate(-178.21027,-129.74161)"
       fill="#f2f2f2"
       id="path14994" />
    <path
       d="M 546.01784,393.29489 H 355.71616 a 8.01411,8.01411 0 0 1 0,-16.02822 h 190.30168 a 8.01411,8.01411 0 1 1 0,16.02822 z"
       transform="translate(-178.21027,-129.74161)"
       fill="#f2f2f2"
       id="path14996" />
    <path
       d="m 579.07606,420.34253 h -223.3599 a 8.01412,8.01412 0 0 1 0,-16.02823 h 223.3599 a 8.01412,8.01412 0 0 1 0,16.02823 z"
       transform="translate(-178.21027,-129.74161)"
       fill="#f2f2f2"
       id="path14998" />
    <path
       d="M 546.01784,514.50836 H 355.71616 a 8.014115,8.014115 0 0 1 0,-16.02823 h 190.30168 a 8.01412,8.01412 0 1 1 0,16.02823 z"
       transform="translate(-178.21027,-129.74161)"
       fill="#f2f2f2"
       id="path15000" />
    <path
       d="m 579.07606,541.556 h -223.3599 a 8.01412,8.01412 0 0 1 0,-16.02823 h 223.3599 a 8.01412,8.01412 0 0 1 0,16.02823 z"
       transform="translate(-178.21027,-129.74161)"
       fill="#f2f2f2"
       id="path15002" />
    <path
       d="M 313.08745,311.40753 H 245.7415 a 3.847,3.847 0 0 1 -3.84277,-3.84277 v -59.94727 a 3.847,3.847 0 0 1 3.84277,-3.84277 h 67.34595 a 3.847,3.847 0 0 1 3.84277,3.84277 v 59.94727 a 3.847,3.847 0 0 1 -3.84277,3.84277 z"
       transform="translate(-178.21027,-129.74161)"
       fill="#e6e6e6"
       id="path15004" />
    <path
       d="M 313.08745,432.621 H 245.7415 a 3.847,3.847 0 0 1 -3.84277,-3.84277 V 368.831 a 3.847,3.847 0 0 1 3.84277,-3.84277 h 67.34595 a 3.847,3.847 0 0 1 3.84277,3.84277 v 59.94727 a 3.847,3.847 0 0 1 -3.84277,3.84273 z"
       transform="translate(-178.21027,-129.74161)"
       fill="#e6e6e6"
       id="path15006" />
    <path
       d="M 313.08745,553.83447 H 245.7415 a 3.847,3.847 0 0 1 -3.84277,-3.84277 v -59.94727 a 3.847,3.847 0 0 1 3.84277,-3.84277 h 67.34595 a 3.847,3.847 0 0 1 3.84277,3.84277 v 59.94727 a 3.847,3.847 0 0 1 -3.84277,3.84277 z"
       transform="translate(-178.21027,-129.74161)"
       fill="#e6e6e6"
       id="path15008" />
    <path
       d="m 934.16522,547.652 2.98548,-26.10867 14.969,-130.90768 2.98548,-26.10867 A 48.17929,48.17929 0 0 0 912.75901,311.24616 L 573.09668,272.40642 a 48.17924,48.17924 0 0 0 -53.28086,42.346 l -0.008,0.0674 -20.92459,182.99019 -0.008,0.0674 a 48.17923,48.17923 0 0 0 42.34611,53.2808 L 880.8843,589.99806 A 48.17929,48.17929 0 0 0 934.16522,547.652 Z"
       transform="translate(-178.21027,-129.74161)"
       fill="#e6e6e6"
       id="path15010" />
    <path
       d="m 920.40067,546.07857 3.5361,-30.924 13.86792,-121.278 3.536,-30.92349 a 34.30948,34.30948 0 0 0 -30.1556,-37.94256 L 571.52276,286.17073 a 34.30948,34.30948 0 0 0 -37.94245,30.15568 l -0.008,0.0674 -20.9246,182.99016 -0.008,0.0679 a 34.30934,34.30934 0 0 0 30.1556,37.94208 l 339.66238,38.83977 a 34.30936,34.30936 0 0 0 37.94245,-30.1552 z"
       transform="translate(-178.21027,-129.74161)"
       fill="#ffffff"
       id="path15012" />
    <path
       d="m 864.80353,380.15794 -189.0696,-21.61976 a 8.01412,8.01412 0 1 1 1.82093,-15.92446 l 189.0696,21.61976 a 8.01412,8.01412 0 0 1 -1.82093,15.92446 z"
       transform="translate(-178.21027,-129.74161)"
       fill="#e6e6e6"
       id="path15014" />
    <path
       d="M 894.5749,410.78613 672.6611,385.4107 a 8.01412,8.01412 0 1 1 1.82094,-15.92446 l 221.91379,25.37544 a 8.0141109,8.0141109 0 0 1 -1.82093,15.92445 z"
       transform="translate(-178.21027,-129.74161)"
       fill="#e6e6e6"
       id="path15016" />
    <path
       d="M 888.38764,464.38258 561.218,426.97133 a 8.01412,8.01412 0 0 1 1.82093,-15.92446 l 327.16968,37.41125 a 8.01412,8.01412 0 1 1 -1.82094,15.92446 z"
       transform="translate(-178.21027,-129.74161)"
       fill="#e6e6e6"
       id="path15018" />
    <path
       d="m 886.36619,491.37532 -328.221,-37.53147 a 8.01412,8.01412 0 0 1 1.82093,-15.92446 l 328.221,37.53147 a 8.01412,8.01412 0 0 1 -1.82093,15.92446 z"
       transform="translate(-178.21027,-129.74161)"
       fill="#e6e6e6"
       id="path15020" />
    <path
       d="M 882.36643,517.03944 555.19676,479.62819 a 8.01412,8.01412 0 1 1 1.82093,-15.92446 L 884.18736,501.115 a 8.01412,8.01412 0 0 1 -1.82093,15.92446 z"
       transform="translate(-178.21027,-129.74161)"
       fill="#e6e6e6"
       id="path15022" />
    <path
       d="M 880.345,544.03218 552.124,506.50071 a 8.01412,8.01412 0 0 1 1.82093,-15.92446 l 328.221,37.53147 a 8.01412,8.01412 0 1 1 -1.82093,15.92446 z"
       transform="translate(-178.21027,-129.74161)"
       fill="#e6e6e6"
       id="path15024" />
    <path
       d="m 628.91345,392.76672 -66.90992,-7.651 a 3.847,3.847 0 0 1 -3.38133,-4.25447 l 6.81048,-59.55914 a 3.847,3.847 0 0 1 4.25446,-3.38133 l 66.90993,7.651 a 3.847,3.847 0 0 1 3.38132,4.25446 l -6.81047,59.55915 a 3.847,3.847 0 0 1 -4.25447,3.38133 z"
       transform="translate(-178.21027,-129.74161)"
       fill="#6c63ff"
       id="path15026" />
    <path
       d="M 1020.7897,770.09988 H 801.78973 a 1,1 0 0 1 0,-2 h 218.99997 a 1,1 0 0 1 0,2 z"
       transform="translate(-178.21027,-129.74161)"
       fill="#3f3d56"
       id="path15028" />
    <path
       d="m 938.55609,388.06207 a 9.37695,9.37695 0 0 0 8.41945,11.6556 l 6.77492,20.32879 13.35789,-1.10405 -9.9707,-28.5738 a 9.42779,9.42779 0 0 0 -18.58156,-2.30654 z"
       transform="translate(-178.21027,-129.74161)"
       fill="#ffb8b8"
       id="path15030" />
    <path
       d="m 948.78649,521.187 v 0 a 12.08366,12.08366 0 0 0 19.9793,-6.32315 l 10.57975,-48.473 a 47.876,47.876 0 0 0 -1.23439,-24.98 L 965.7291,403.23538 a 4,4 0 0 0 -5.59557,-2.34269 l -8.08121,4.04582 a 4,4 0 0 0 -2.05021,4.69365 l 0.81477,2.802 a 134.70325,134.70325 0 0 1 1.02888,71.4844 l -6.58107,25.33 a 12.08364,12.08364 0 0 0 3.5218,11.93844 z"
       transform="translate(-178.21027,-129.74161)"
       fill="#6c63ff"
       id="path15032" />
    <polygon
       points="728.243,629.901 716.811,629.9 711.374,585.804 728.247,585.805 "
       fill="#ffb8b8"
       id="polygon15034" />
    <path
       d="m 708.64439,626.63322 h 22.04781 v 13.88195 h -35.92974 v 0 a 13.88193,13.88193 0 0 1 13.88193,-13.88195 z"
       fill="#2f2e41"
       id="path15036" />
    <polygon
       points="789.864,629.901 778.432,629.9 772.995,585.804 789.868,585.805 "
       fill="#ffb8b8"
       id="polygon15038" />
    <path
       d="m 770.26564,626.63322 h 22.04781 v 13.88195 h -35.92974 v 0 a 13.88193,13.88193 0 0 1 13.88193,-13.88195 z"
       fill="#2f2e41"
       id="path15040" />
    <circle
       cx="756.38306"
       cy="291.86469"
       r="24.561029"
       fill="#ffb8b8"
       id="circle15042" />
    <path
       d="m 850.61084,581.78436 a 9.377,9.377 0 0 1 12.09228,-7.77927 l 13.72625,-16.45445 12.03377,5.90259 -19.71048,22.96462 a 9.42779,9.42779 0 0 1 -18.14182,-4.63349 z"
       transform="translate(-178.21027,-129.74161)"
       fill="#ffb8b8"
       id="path15044" />
    <path
       d="m 940.57354,446.16634 a 26.205,26.205 0 1 0 -4.91018,-51.82531 c -5.40118,-3.27952 -11.6809,-5.48627 -17.97478,-4.925 -6.29388,0.56127 -12.51835,4.29788 -14.87192,10.16207 -2.35357,5.86419 0.17487,13.59411 6.02708,15.97731 3.75184,1.52786 7.98866,0.78692 11.99255,0.1708 4.00389,-0.61612 8.37171,-1.01817 11.85634,1.04774 3.48463,2.06591 5.05107,7.60548 1.93026,10.18835 a 10.73847,10.73847 0 0 0 -3.0842,11.82027 c 1.56846,4.0563 5.84936,7.31495 9.03485,7.38377 z"
       transform="translate(-178.21027,-129.74161)"
       fill="#2f2e41"
       id="path15046" />
    <path
       d="m 971.04643,580.81327 4.35678,165.33964 a 4,4 0 0 1 -4.20243,4.10017 l -14.35213,-0.73225 A 4,4 0 0 1 953.10207,746.154 L 936.031,638.76494 a 2,2 0 0 0 -3.92705,-0.12222 l -23.10758,103.3966 a 4,4 0 0 1 -5.24374,2.89644 l -14.24374,-0.87 a 4,4 0 0 1 -2.64986,-4.05306 l 12.434,-160.76415 z"
       transform="translate(-178.21027,-129.74161)"
       fill="#2f2e41"
       id="path15048" />
    <path
       d="m 978.03835,502.28255 c 2.403,-25.05537 -16.01923,-47.71792 -41.12634,-49.5007 -10.81772,-0.76813 -27.61219,-1.04273 -33.14841,13.13648 -16.6774,42.71375 12.51774,41.67582 2.45884,78.68292 -10.0589,37.0071 -18.94294,39.128 -5.14121,41.80029 13.80173,2.67229 75.86671,18.447 73.31817,-7.60005 -1.56653,-16.01054 1.24199,-51.52613 3.63895,-76.51894 z"
       transform="translate(-178.21027,-129.74161)"
       fill="#6c63ff"
       id="path15050" />
    <path
       d="m 908.71686,461.57372 v 0 a 12.08366,12.08366 0 0 1 16.29393,13.1781 l -7.8391,48.991 a 47.876,47.876 0 0 1 -10.26518,22.80677 l -25.45946,31.02411 a 4,4 0 0 1 -6.06458,0.13914 L 869.335,570.997 a 4,4 0 0 1 -0.196,-5.11813 l 1.78109,-2.31142 a 134.7031,134.7031 0 0 0 27.04467,-66.179 l 3.11643,-25.98473 a 12.08366,12.08366 0 0 1 7.63567,-9.83 z"
       transform="translate(-178.21027,-129.74161)"
       fill="#6c63ff"
       id="path15052" />
  </g>
</svg>
