<?xml version="1.0" encoding="UTF-8"?>
<svg width="898.67" height="755" data-name="Layer 1" version="1.1" viewBox="0 0 898.67 755" xmlns="http://www.w3.org/2000/svg"><path d="m404 674h-306c-9.3845-0.0105-16.989-7.6155-17-17v-559c0.01052-9.3845 7.6155-16.989 17-17h306c9.3845 0.01056 16.989 7.6155 17 17v559c-0.0106 9.3845-7.6155 16.989-17 17z" fill="#808080" fill-opacity=".1" stroke="#808080" stroke-width="2"/><path d="m349.43 531.57a24.3 24.3 0 0 1 9.7432-30.085c1.6474-1.0016 0.14149-3.5971-1.5142-2.5904a27.008 27.008 0 0 0-10.819 34.19c0.75686 1.7698 3.342 0.24315 2.5904-1.5142z" fill="#889"/><path d="m350.28 535.61c-4.0463-7.1684-3.0941-15.747-1.6387-23.499 1.5193-8.0923 3.5109-16.309 1.7877-24.539a22.527 22.527 0 0 0-5.353-10.734c-1.3106-1.4234-3.4278 0.70229-2.1213 2.1213 5.0888 5.527 5.6788 13.545 4.8534 20.665-0.9735 8.3986-3.7326 16.583-3.3901 25.117a27.202 27.202 0 0 0 3.2716 12.382 1.5011 1.5011 0 0 0 2.5904-1.5142z" fill="#889"/><path d="m372 558.5h-51a4.5051 4.5051 0 0 1-4.5-4.5v-14.98a14.536 14.536 0 0 1 14.52-14.52h7.4802a1.5016 1.5016 0 0 0 1.5-1.5v-7a2.5029 2.5029 0 0 1 2.5-2.5h8a2.5029 2.5029 0 0 1 2.5 2.5v7a1.5016 1.5016 0 0 0 1.5 1.5h7.4802a14.536 14.536 0 0 1 14.52 14.52v14.98a4.5051 4.5051 0 0 1-4.5 4.5z" fill="#ccc"/><path d="m347.28 468.54c1.0738 5.6987-0.25563 10.733-2.9693 11.244s-5.784-3.6939-6.8578-9.3926 2.2286-15.175 2.2286-15.175 6.5247 7.6247 7.5984 13.323z" fill="#008000"/><path d="m367.88 495.05c-3.4004 4.6974-7.9703 7.1927-10.207 5.5735s-1.2936-6.7399 2.1068-11.437 12.553-8.8136 12.553-8.8136-1.0519 9.98-4.4523 14.677z" fill="#0f0"/><path d="m255.43 171.57a24.3 24.3 0 0 1 9.7432-30.085c1.6474-1.0016 0.14149-3.5971-1.5142-2.5904a27.008 27.008 0 0 0-10.819 34.19c0.75686 1.7698 3.342 0.24315 2.5904-1.5142z" fill="#889"/><path d="m256.28 175.61c-4.0463-7.1684-3.0941-15.747-1.6387-23.499 1.5193-8.0923 3.5109-16.309 1.7877-24.539a22.527 22.527 0 0 0-5.353-10.734c-1.3106-1.4234-3.4278 0.70229-2.1213 2.1213 5.0888 5.527 5.6788 13.545 4.8534 20.665-0.9735 8.3986-3.7326 16.583-3.3901 25.117a27.202 27.202 0 0 0 3.2716 12.382 1.5011 1.5011 0 0 0 2.5904-1.5142z" fill="#889"/><path d="m278 198.5h-51a4.505 4.505 0 0 1-4.5-4.5v-14.98a14.536 14.536 0 0 1 14.52-14.52h7.4804a1.5016 1.5016 0 0 0 1.5-1.5v-7a2.5029 2.5029 0 0 1 2.5-2.5h8a2.5029 2.5029 0 0 1 2.5 2.5v7a1.5016 1.5016 0 0 0 1.5 1.5h7.4804a14.536 14.536 0 0 1 14.52 14.52v14.98a4.505 4.505 0 0 1-4.5 4.5z" fill="#ccc"/><path d="m253.28 108.54c1.0738 5.6987-0.25563 10.733-2.9693 11.244s-5.784-3.6939-6.8578-9.3926 2.2286-15.175 2.2286-15.175 6.5247 7.6247 7.5984 13.323z" fill="#008000"/><path d="m273.88 135.05c-3.4004 4.6974-7.9703 7.1927-10.207 5.5735s-1.2936-6.7399 2.1068-11.437 12.553-8.8136 12.553-8.8136-1.0519 9.98-4.4523 14.677z" fill="#0f0"/><rect x="113" y="353" width="41" height="15" fill="#f0df0f"/><rect x="113" y="402" width="41" height="15" fill="#f0df0f"/><g fill="#889"><rect x="82" y="196.45" width="338" height="2"/><rect x="82" y="316.48" width="338" height="2"/><rect x="82" y="436.52" width="338" height="2"/><rect x="82" y="556.55" width="338" height="2"/><path d="m151 439h-34a5.0058 5.0058 0 0 1-5-5v-97a5.0058 5.0058 0 0 1 5-5h34a5.0058 5.0058 0 0 1 5 5v97a5.0058 5.0058 0 0 1-5 5zm-34-105a3.0034 3.0034 0 0 0-3 3v97a3.0034 3.0034 0 0 0 3 3h34a3.0034 3.0034 0 0 0 3-3v-97a3.0034 3.0034 0 0 0-3-3z"/></g><rect x="176" y="353" width="41" height="15" fill="#f0df0f"/><rect x="176" y="402" width="41" height="15" fill="#f0df0f"/><path d="m214 439h-34a5.0058 5.0058 0 0 1-5-5v-97a5.0058 5.0058 0 0 1 5-5h34a5.0058 5.0058 0 0 1 5 5v97a5.0058 5.0058 0 0 1-5 5zm-34-105a3.0034 3.0034 0 0 0-3 3v97a3.0034 3.0034 0 0 0 3 3h34a3.0034 3.0034 0 0 0 3-3v-97a3.0034 3.0034 0 0 0-3-3z" fill="#889"/><rect x="276" y="232" width="41" height="15" fill="#f0df0f"/><rect x="276" y="281" width="41" height="15" fill="#f0df0f"/><path d="m314 318h-34a5.0058 5.0058 0 0 1-5-5v-97a5.0058 5.0058 0 0 1 5-5h34a5.0057 5.0057 0 0 1 5 5v97a5.0057 5.0057 0 0 1-5 5zm-34-105a3.0034 3.0034 0 0 0-3 3v97a3.0034 3.0034 0 0 0 3 3h34a3.0033 3.0033 0 0 0 3-3v-97a3.0033 3.0033 0 0 0-3-3z" fill="#889"/><g transform="translate(41,41)"><rect x="298" y="191" width="41" height="15" fill="#f0df0f"/><rect x="298" y="240" width="41" height="15" fill="#f0df0f"/><path d="m336 277h-34a5.0057 5.0057 0 0 1-5-5v-97a5.0057 5.0057 0 0 1 5-5h34a5.0057 5.0057 0 0 1 5 5v97a5.0057 5.0057 0 0 1-5 5zm-34-105a3.0033 3.0033 0 0 0-3 3v97a3.0033 3.0033 0 0 0 3 3h34a3.0033 3.0033 0 0 0 3-3v-97a3.0033 3.0033 0 0 0-3-3z" fill="#889"/></g><g transform="translate(-128.2 -78.978)"><rect x="298" y="191" width="41" height="15" fill="#f0df0f"/><rect x="298" y="240" width="41" height="15" fill="#f0df0f"/><path d="m336 277h-34a5.0057 5.0057 0 0 1-5-5v-97a5.0057 5.0057 0 0 1 5-5h34a5.0057 5.0057 0 0 1 5 5v97a5.0057 5.0057 0 0 1-5 5zm-34-105a3.0033 3.0033 0 0 0-3 3v97a3.0033 3.0033 0 0 0 3 3h34a3.0033 3.0033 0 0 0 3-3v-97a3.0033 3.0033 0 0 0-3-3z" fill="#889"/></g><g transform="translate(-49,281)"><rect x="298" y="191" width="41" height="15" fill="#f0df0f"/><rect x="298" y="240" width="41" height="15" fill="#f0df0f"/><path d="m336 277h-34a5.0057 5.0057 0 0 1-5-5v-97a5.0057 5.0057 0 0 1 5-5h34a5.0057 5.0057 0 0 1 5 5v97a5.0057 5.0057 0 0 1-5 5zm-34-105a3.0033 3.0033 0 0 0-3 3v97a3.0033 3.0033 0 0 0 3 3h34a3.0033 3.0033 0 0 0 3-3v-97a3.0033 3.0033 0 0 0-3-3z" fill="#889"/></g><g transform="translate(-110,281)"><rect x="298" y="191" width="41" height="15" fill="#f0df0f"/><rect x="298" y="240" width="41" height="15" fill="#f0df0f"/><path d="m336 277h-34a5.0057 5.0057 0 0 1-5-5v-97a5.0057 5.0057 0 0 1 5-5h34a5.0057 5.0057 0 0 1 5 5v97a5.0057 5.0057 0 0 1-5 5zm-34-105a3.0033 3.0033 0 0 0-3 3v97a3.0033 3.0033 0 0 0 3 3h34a3.0033 3.0033 0 0 0 3-3v-97a3.0033 3.0033 0 0 0-3-3z" fill="#889"/></g><g transform="translate(-174.68 397.7)"><rect x="298" y="191" width="41" height="15" fill="#f0df0f"/><rect x="298" y="240" width="41" height="15" fill="#f0df0f"/><path d="m336 277h-34a5.0057 5.0057 0 0 1-5-5v-97a5.0057 5.0057 0 0 1 5-5h34a5.0057 5.0057 0 0 1 5 5v97a5.0057 5.0057 0 0 1-5 5zm-34-105a3.0033 3.0033 0 0 0-3 3v97a3.0033 3.0033 0 0 0 3 3h34a3.0033 3.0033 0 0 0 3-3v-97a3.0033 3.0033 0 0 0-3-3z" fill="#889"/></g><g transform="translate(41,41)"><rect transform="rotate(-20.595)" x="64.232" y="363.27" width="41" height="15" fill="#f0df0f"/><rect transform="rotate(-20.595)" x="64.232" y="412.27" width="41" height="15" fill="#f0df0f"/><path d="m220.14 396.88a5.009 5.009 0 0 1-4.6779-3.2441l-34.12-90.801a5.0061 5.0061 0 0 1 2.9215-6.439l31.827-11.959a4.9992 4.9992 0 0 1 6.4392 2.9219l34.12 90.801a5.0061 5.0061 0 0 1-2.9215 6.439h-1.2e-4l-31.827 11.959a4.9959 4.9959 0 0 1-1.7614 0.32226zm-2.2887-110.76a3.0057 3.0057 0 0 0-1.057 0.19336l-31.827 11.959a3.0039 3.0039 0 0 0-1.753 3.8638l34.12 90.801a2.9997 2.9997 0 0 0 3.8635 1.7529l31.827-11.959a3.0039 3.0039 0 0 0 1.753-3.8638l-34.12-90.801a3.0056 3.0056 0 0 0-2.8065-1.9463z" fill="#889"/></g><g transform="matrix(-1 0 0 1 601.86 276.38)"><rect transform="rotate(-20.595)" x="64.232" y="363.27" width="41" height="15" fill="#f0df0f"/><rect transform="rotate(-20.595)" x="64.232" y="412.27" width="41" height="15" fill="#f0df0f"/><path d="m220.14 396.88a5.009 5.009 0 0 1-4.6779-3.2441l-34.12-90.801a5.0061 5.0061 0 0 1 2.9215-6.439l31.827-11.959a4.9992 4.9992 0 0 1 6.4392 2.9219l34.12 90.801a5.0061 5.0061 0 0 1-2.9215 6.439h-1.2e-4l-31.827 11.959a4.9959 4.9959 0 0 1-1.7614 0.32226zm-2.2887-110.76a3.0057 3.0057 0 0 0-1.057 0.19336l-31.827 11.959a3.0039 3.0039 0 0 0-1.753 3.8638l34.12 90.801a2.9997 2.9997 0 0 0 3.8635 1.7529l31.827-11.959a3.0039 3.0039 0 0 0 1.753-3.8638l-34.12-90.801a3.0056 3.0056 0 0 0-2.8065-1.9463z" fill="#889"/></g><rect transform="rotate(-20.595)" x=".86763" y="256.14" width="41" height="15" fill="#f0df0f"/><rect transform="rotate(-20.595)" x=".86762" y="305.14" width="41" height="15" fill="#f0df0f"/><path d="m123.14 318.88a5.009 5.009 0 0 1-4.6779-3.2441l-34.12-90.801a5.0061 5.0061 0 0 1 2.9215-6.439l31.827-11.959a4.9992 4.9992 0 0 1 6.4392 2.9219l34.12 90.801a5.0061 5.0061 0 0 1-2.9215 6.439h-1.2e-4l-31.827 11.959a4.9959 4.9959 0 0 1-1.7614 0.32226zm-2.2887-110.76a3.0057 3.0057 0 0 0-1.057 0.19336l-31.827 11.959a3.0039 3.0039 0 0 0-1.753 3.8638l34.12 90.801a2.9997 2.9997 0 0 0 3.8635 1.7529l31.827-11.959a3.0039 3.0039 0 0 0 1.753-3.8638l-34.12-90.801a3.0056 3.0056 0 0 0-2.8065-1.9463z" fill="#889"/><circle cx="708" cy="300" r="31" fill="#483737"/><path d="m570.28 441.47a10.743 10.743 0 0 0 14.424-7.956l85.237-53.778-15.514-17.467-78.943 58.391a10.801 10.801 0 0 0-5.2033 20.811z" fill="#ffb8b8"/><path d="m652.15 394.03a4.5041 4.5041 0 0 1-3.7932-2.0635l-9.8706-15.339a4.5006 4.5006 0 0 1 1.1482-6.082l33.03-23.873a14.789 14.789 0 1 1 16.63 24.445l-34.729 22.205a4.4663 4.4663 0 0 1-2.4148 0.70695z" fill="#536c53"/><polygon transform="translate(81,81)" points="567.8 533.56 585.9 533.56 585.89 580.85 573.64 580.85" fill="#ffb8b8"/><path d="m645.88 658.35h23.644v14.887h-38.531a14.887 14.887 0 0 1 14.887-14.887z" fill="#2f2e41"/><polygon transform="translate(81,81)" points="612.93 531.05 630.35 526.16 643.13 571.68 631.32 575" fill="#ffb8b8"/><path d="m702.95 654.99 22.764-6.3902 4.0235 14.333-37.097 10.414a14.887 14.887 0 0 1 10.309-18.356z" fill="#2f2e41"/><path d="m757.16 580.11-47.596-56.171 28.881-35.044a4.4996 4.4996 0 0 1 6.9612 0.0205l43.702 53.634z" fill="#f0df0f"/><path d="m711.48 524.36a15.942 15.942 0 0 1 2.5862-3.4532l27.567-27.948a6.1337 6.1337 0 0 1 4.0758-1.83c3.1499-0.14873 8.3157 0.16954 9.7556 3.6254l-37.218 30.451z" fill="#f2f2f2"/><path d="m758.81 592a11.431 11.431 0 0 1-5.9578-1.8867l-0.13159-0.13574-43.592-66.669 7.2334-0.69922 38.767-30.238a4.5004 4.5004 0 0 1 6.5222 1.0674l42.376 64.138a4.5131 4.5131 0 0 1-1.238 6.2109l-41.006 27.65a7.9487 7.9487 0 0 1-2.9734 0.5625z" fill="#f0df0f"/><path d="m743.4 546.39a2.4993 2.4993 0 0 1-2.0774-1.1025l-5.0078-7.4385a2.5038 2.5038 0 0 1 0.67774-3.4707l25.691-17.296a2.505 2.505 0 0 1 3.4702 0.67773l5.0076 7.4385a2.5038 2.5038 0 0 1-0.67773 3.4707l-25.691 17.296a2.4907 2.4907 0 0 1-1.3926 0.4248z" fill="#889"/><path d="m646.86 654.7a5.4792 5.4792 0 0 1-5.4387-5.0039c-2.1819-24.785-13.127-149.7-14.328-174.93-1.3345-28.029 21.993-72.371 22.229-72.815l0.16138-0.30469 11.53 1.4404v1.3408l10.974 1.291 21.238 2.0557 6.0803 74.318 2.6885 50.402 25.259 102.94a4.476 4.476 0 0 1-3.1863 5.4141l-21.983 5.9951a4.5191 4.5191 0 0 1-5.5122-3.1094l-20.698-72.707a1.5 1.5 0 0 0-2.9419 0.457l2.189 70.896a5.3434 5.3434 0 0 1-1.6172 3.9121c-5.0391 4.7324-18.354 7.2588-25.841 8.3438a5.5788 5.5788 0 0 1-0.80274 0.0576z" fill="#a02c2c"/><path d="m712.92 342.39c-3.4883-3.6365-26.473 1.3609-31.576 6.7184l-34.936 57.106 57.778 10.749 12.765-72.559z" fill="#f0df0f"/><path d="m697.77 487.48a11.248 11.248 0 0 1-3.6575-0.60937c-3.3567-1.1514-7.4707-2.3564-12.228-3.5791-20.834-5.3574-28.189-22.51-21.862-50.98l0.15991-0.72266a210.73 210.73 0 0 1 32.957-75.263l2.45-3.5195a26.398 26.398 0 0 1 27.045-10.756c9.3743 1.9336 14.407 4.7354 14.96 8.3281 1.0847 7.0498-19.854 92.27-28.907 128.58a11.235 11.235 0 0 1-10.918 8.5195z" fill="#536c53"/><path d="m626 476.54a5.283 5.283 0 0 1-1.6052-0.25l-6.7527-2.1602a5.2688 5.2688 0 0 1-3.2405-7.082l35.831-84.104a78.693 78.693 0 0 1 34.124-37.827h2.4e-4a1.8414 1.8414 0 0 1 1.4614-0.13672 1.6571 1.6571 0 0 1 1.0049 0.8916c4.2141 9.2705-18.722 53.144-37.152 88.396-9.4373 18.051-17.587 33.641-18.515 38.086a5.2633 5.2633 0 0 1-5.1555 4.1865z" fill="#536c53"/><path d="m736.86 495.7a10.743 10.743 0 0 0 0.92142-16.447l-0.28478-100.78-23.04 3.8657 7.5358 97.902a10.801 10.801 0 0 0 14.868 15.463z" fill="#ffb8b8"/><path d="m718.1 403.48a4.4993 4.4993 0 0 1-4.4885-4.2031l-2.6802-40.666a14.807 14.807 0 0 1 13.784-15.73 14.79 14.79 0 0 1 15.761 14.626l0.364 41.22a4.5085 4.5085 0 0 1-4.4468 4.54l-18.239 0.21386z" fill="#536c53"/><circle cx="701.61" cy="308.02" r="24.561" fill="#ffb8b8"/><path d="m722.04 325.2c1.8318-5.8296 3.5136-12.703-0.11157-17.623-2.6121-3.5446-7.3019-4.9166-11.701-5.113s-8.8099 0.54917-13.199 0.20024-9.028-2.0813-11.258-5.878c-2.8912-4.9232-0.44247-11.704 4.2055-15.02s10.788-3.7785 16.445-3.0062a35.477 35.477 0 0 1 19.292 8.6298c5.2582 4.8529 8.6854 11.848 8.5327 19.002s-4.1649 14.278-10.559 17.49" fill="#483737"/><path d="m715.91 271.53c-5.8797-1.8112-8.5918-9.5847-5.9624-15.147s9.3507-8.4748 15.454-7.7 11.481 4.6904 15.191 9.5986 5.9468 10.759 7.8118 16.622 3.416 11.853 5.9633 17.453a54.168 54.168 0 0 0 44.45 30.943c4.129 0.29914 8.4139 0.0848 12.177-1.641 3.763-1.7259 6.9186-5.2054 7.3402-9.3238 2.1417 14.629-6.3688 30.176-19.846 36.255s-30.765 2.1683-40.313-9.1199c-9.3311-11.031-10.776-26.606-10.552-41.052 0.0616-3.9616 0.20762-7.998-0.88686-11.806s-3.6847-7.4286-7.4576-8.638c-3.0441-0.97577-6.3411-0.27238-9.462 0.41942s-6.4348 1.3576-9.4566 0.31479-5.4549-4.4792-4.2374-7.4349" fill="#483737"/><path d="m813.08 675h-264a1 1 0 1 1 0-2h264a1 1 0 0 1 0 2z" fill="#ccc"/></svg>
