<?xml version="1.0" encoding="UTF-8" standalone="no"?>
<svg
   width="406.1347"
   height="343.71317"
   data-name="Layer 1"
   version="1.1"
   viewBox="0 0 406.13469 343.71317"
   id="svg96"
   sodipodi:docname="ill_unlock.svg"
   inkscape:version="1.1.2 (0a00cf5339, 2022-02-04)"
   xmlns:inkscape="http://www.inkscape.org/namespaces/inkscape"
   xmlns:sodipodi="http://sodipodi.sourceforge.net/DTD/sodipodi-0.dtd"
   xmlns="http://www.w3.org/2000/svg"
   xmlns:svg="http://www.w3.org/2000/svg">
  <defs
     id="defs100" />
  <sodipodi:namedview
     id="namedview98"
     pagecolor="#ffffff"
     bordercolor="#666666"
     borderopacity="1.0"
     inkscape:pageshadow="2"
     inkscape:pageopacity="0.0"
     inkscape:pagecheckerboard="0"
     showgrid="false"
     inkscape:zoom="2.7344364"
     inkscape:cx="264.58834"
     inkscape:cy="181.75592"
     inkscape:window-width="2560"
     inkscape:window-height="1347"
     inkscape:window-x="0"
     inkscape:window-y="0"
     inkscape:window-maximized="1"
     inkscape:current-layer="svg96"
     fit-margin-top="40"
     lock-margins="true"
     fit-margin-left="40"
     fit-margin-right="40"
     fit-margin-bottom="40" />
  <path
     id="path62"
     style="fill:#808080;fill-opacity:1;stroke:#b1b1b1;stroke-width:6;stroke-miterlimit:4;stroke-dasharray:none;stroke-opacity:1"
     d="m 200.25704,92.572474 c -12.77201,0 -23.64615,4.48548 -32.61915,13.458976 -8.973,8.9735 -13.45898,19.84519 -13.45898,32.61719 v 23.28125 H 59.60078 c -4.042,0 -7.47929,1.41484 -10.30859,4.24414 -2.8293,2.8295 -4.24219,6.26474 -4.24219,10.30664 v 105.25 c 0,4.042 1.41289,7.47929 4.24219,10.30859 2.8295,2.8293 6.2667,4.24414 10.30859,4.24414 h 126.10938 c 4.042,0 7.47734,-1.41484 10.30664,-4.24414 2.8293,-2.8295 4.24414,-6.26669 4.24414,-10.30859 v -105.25 c 0,-4.042 -1.41484,-7.47734 -4.24414,-10.30664 -2.8295,-2.8293 -6.26474,-4.24414 -10.30664,-4.24414 h -16.98047 v -23.28125 c 0,-8.7305 3.0731,-16.16755 9.2168,-22.31055 6.1437,-6.1437 13.58054,-9.21484 22.31055,-9.21484 8.73,0 16.16754,3.07114 22.31054,9.21484 6.143,6.1437 9.21485,13.58055 9.21485,22.31055 h 14.55078 c 0,-12.772 -4.48549,-23.64419 -13.45899,-32.61719 -8.9735,-8.972996 -19.84518,-13.458976 -32.61718,-13.458976 z M 125.74141,205.67012 c 6.80901,0 12.60692,2.60708 17.39453,7.82031 4.7876,5.21323 7.18164,11.01102 7.18164,17.39454 0,6.59592 -2.39404,12.23488 -7.18164,16.91601 -4.78761,4.68126 -10.58552,7.02149 -17.39453,7.02149 -6.809,0 -12.60694,-2.34037 -17.39453,-7.02149 -4.7876,-4.68086 -7.18164,-10.31983 -7.18164,-16.91601 0,-6.38338 2.39404,-12.18131 7.18164,-17.39454 4.78759,-5.21323 10.58553,-7.82031 17.39453,-7.82031 z" />
  <path
     d="m 247.3016,132.94226 a 6.2635186,6.2635186 0 0 1 9.59638,-0.39018 l 13.47201,-4.83409 4.93429,7.47026 -19.1212,6.55963 a 6.2974001,6.2974001 0 0 1 -8.88157,-8.80542 z"
     fill="#ffb7b7"
     id="path66"
     style="stroke-width:0.688647" />
  <path
     d="m 260.80946,128.01463 20.91411,-8.16889 c 0,0 -2.31267,-14.96798 -1.12312,-22.322726 0.49982,-3.09033 1.50464,-6.26461 3.40459,-8.75261 2.50686,-3.28275 9.95822,-7.37433 9.95822,-7.37433 l 0.10943,0.23658 c 0.59751,1.29312 6.6165,31.779896 5.0597,41.435836 -1.56279,9.69091 -31.14396,18.06483 -32.57233,18.75648 l -0.19857,0.0963 z"
     fill="#2f2e41"
     id="path90-3"
     style="stroke-width:0.688647;fill:#8c6f6f;fill-opacity:1"
     sodipodi:nodetypes="ccaacccccc" />
  <polygon
     transform="matrix(0.68864686,0,0,0.68864686,-135.94307,-134.16777)"
     points="618.15,584.44 633.87,584.44 633.87,625.53 623.22,625.53 "
     fill="#ffb7b7"
     id="polygon68" />
  <path
     d="m 302.44263,303.71315 -23.65432,-6.9e-4 v -0.29919 a 9.2072081,9.2072081 0 0 1 9.2072,-9.20652 h 5.8e-4 l 14.44712,5.9e-4 z"
     fill="#2f2e41"
     id="path70"
     style="stroke-width:0.688647;fill:#545274;fill-opacity:1" />
  <polygon
     transform="matrix(0.68864686,0,0,0.68864686,-135.94307,-134.16777)"
     points="693.57,582.06 708.74,577.93 719.55,617.57 709.27,620.37 "
     fill="#ffb7b7"
     id="polygon72" />
  <path
     d="m 363.25015,297.48778 -22.82107,6.22302 -0.0788,-0.28864 a 9.2072081,9.2072081 0 0 1 6.45999,-11.30483 l 5.7e-4,-1.4e-4 13.93821,-3.80079 z"
     fill="#2f2e41"
     id="path74"
     style="stroke-width:0.688647;fill:#545274;fill-opacity:1" />
  <polygon
     transform="matrix(0.68864686,0,0,0.68864686,-135.94307,-134.16777)"
     points="699.25,610.6 719.52,603.12 702.79,522.23 693.34,446.26 614.42,448.03 609.11,528.73 620.52,619.26 639.22,613.55 640.01,532.66 654.97,486.02 "
     fill="#2f2e41"
     id="polygon76"
     style="fill:#6f8b8c;fill-opacity:1" />
  <path
     d="m 322.75083,76.790244 -21.68274,3.19725 -7.81132,7.72523 -2.42535,27.757296 1.50635,24.58607 -6.27955,43.35652 c 0,0 15.79066,-8.76579 28.0286,2.20725 12.23795,10.97304 29.36047,1.93923 29.71305,-5.36043 z"
     fill="#cbcbcb"
     id="path78"
     style="fill:#f0df0f;fill-opacity:1;stroke-width:0.688647" />
  <path
     d="m 311.74625,111.60134 -2.9e-4,-0.0312 10.77112,-35.109966 0.13919,-0.009 c 0.76667,-0.0499 18.82554,-1.11423 22.86445,7.80237 l 0.0196,0.043 -1.2269,36.486566 1.68974,57.14323 -33.40006,7.23424 -0.24277,0.0529 z"
     id="path80"
     style="fill:#8c6f6f;stroke-width:0.688647;fill-opacity:1" />
  <path
     d="m 299.80512,109.17041 1.97593,-29.763996 c -14.05321,0.87416 -13.84111,10.83792 -13.82527,11.27246 l -0.15357,44.521016 -2.81457,47.62957 10.23329,-0.76743 z"
     id="path82"
     style="fill:#8c6f6f;stroke-width:0.688647;fill-opacity:1" />
  <path
     d="m 319.67946,152.67911 a 6.2634498,6.2634498 0 0 1 8.48758,-4.49437 l 10.06526,-10.17614 7.67566,4.60856 -14.41614,14.17098 a 6.2974001,6.2974001 0 0 1 -11.81304,-4.10903 z"
     fill="#ffb7b7"
     id="path88"
     style="stroke-width:0.688647" />
  <path
     d="m 328.14294,144.47045 20.52236,-22.51325 -13.58493,-19.38471 1.39822,-9.477156 8.0069,-9.89035 0.15625,0.20203 c 0.85345,1.10437 20.9087,27.159526 21.48441,37.023706 0.57745,9.89999 -28.24899,34.94332 -29.47615,36.00383 l -0.17056,0.14757 z"
     fill="#2f2e41"
     id="path90"
     style="stroke-width:0.688647;fill:#8c6f6f;fill-opacity:1" />
  <circle
     cx="310.245"
     cy="59.760021"
     r="14.586228"
     fill="#ffb7b7"
     id="circle92"
     style="stroke-width:0.688647" />
  <path
     d="m 323.96285,48.101214 0.70718,-1.4233 -3.55818,-1.76789 c 0,0 -3.92521,-6.38679 -11.02799,-4.59196 -7.10278,1.79482 -10.29871,2.86896 -10.29871,2.86896 l -3.54915,1.78581 1.78131,1.77236 -3.19558,1.07423 2.13487,1.06071 -2.48402,1.42778 1.33721,7.31894 c 0,0 2.22096,-5.55132 6.49078,-3.42988 4.26981,2.12145 12.07955,-1.0966 12.07955,-1.0966 l 6.78524,13.13182 c 0,0 1.39981,-4.60327 3.89553,-3.37582 1e-5,10e-6 6.37599,-10.15411 -1.09838,-14.75496 z"
     fill="#2f2e41"
     id="path94"
     style="stroke-width:0.688647;fill:#6a6893;fill-opacity:1" />
</svg>
