<?xml version="1.0" encoding="UTF-8" standalone="no"?>
<svg
   width="1123.4348"
   height="471.14395"
   data-name="Layer 1"
   version="1.1"
   viewBox="0 0 1123.4348 471.14395"
   id="svg96"
   sodipodi:docname="ill_free.svg"
   inkscape:version="1.1.2 (0a00cf5339, 2022-02-04)"
   xmlns:inkscape="http://www.inkscape.org/namespaces/inkscape"
   xmlns:sodipodi="http://sodipodi.sourceforge.net/DTD/sodipodi-0.dtd"
   xmlns="http://www.w3.org/2000/svg"
   xmlns:svg="http://www.w3.org/2000/svg">
  <defs
     id="defs100" />
  <sodipodi:namedview
     id="namedview98"
     pagecolor="#ffffff"
     bordercolor="#666666"
     borderopacity="1.0"
     inkscape:pageshadow="2"
     inkscape:pageopacity="0.0"
     inkscape:pagecheckerboard="0"
     showgrid="false"
     inkscape:zoom="0.6836091"
     inkscape:cx="571.23289"
     inkscape:cy="400.08244"
     inkscape:window-width="1920"
     inkscape:window-height="1024"
     inkscape:window-x="0"
     inkscape:window-y="0"
     inkscape:window-maximized="1"
     inkscape:current-layer="svg96"
     fit-margin-right="120"
     lock-margins="false"
     fit-margin-top="40"
     fit-margin-left="120"
     fit-margin-bottom="40" />
  <path
     d="m 990.90503,431.14396 v -72.34 c 0,0 28.19197,51.286 0,72.34 z"
     fill="#008080"
     id="path2" />
  <path
     d="m 992.64503,431.13396 -53.29,-48.921 c 0,0 56.845,13.916 53.29,48.921 z"
     fill="#008000"
     id="path4" />
  <path
     d="M 435.39032,333.93694 198.13124,399.36991 120,116.07329 357.25908,50.64031 Z"
     fill="#ffffff"
     id="path6"
     style="fill:#eeeee3;fill-opacity:1;stroke-width:0.736601" />
  <path
     d="M 435.39032,333.93694 198.13124,399.36991 120,116.07329 357.25908,50.64031 Z M 201.15866,394.0303 430.04996,330.90583 354.23166,55.984348 125.34036,119.10882 Z"
     fill="#f1f1f1"
     id="path8"
     style="stroke-width:0.736601" />
  <path
     d="m 305.63074,177.54924 -59.47388,16.40189 a 3.2853864,3.2853864 0 0 1 -4.03598,-2.29105 l -16.40189,-59.47387 a 3.2853864,3.2853864 0 0 1 2.29105,-4.03599 l 59.47388,-16.40188 a 3.2853864,3.2853864 0 0 1 4.03598,2.29104 l 16.40189,59.47388 a 3.2853864,3.2853864 0 0 1 -2.29112,4.03598 z m -77.26941,-48.13317 a 1.9711435,1.9711435 0 0 0 -1.37465,2.42158 l 16.40189,59.47387 a 1.9711435,1.9711435 0 0 0 2.42158,1.37465 l 59.47387,-16.40189 a 1.9711435,1.9711435 0 0 0 1.37465,-2.42158 l -16.40189,-59.47387 a 1.9711435,1.9711435 0 0 0 -2.42157,-1.37465 z"
     fill="#e5e5e5"
     id="path10"
     style="stroke-width:0.736601" />
  <path
     d="m 290.55252,189.5411 -59.47387,16.40189 a 2.9567889,2.9567889 0 0 1 -3.63233,-2.06197 l -16.40188,-59.47387 a 2.9567889,2.9567889 0 0 1 2.06196,-3.63233 l 59.47388,-16.40189 a 2.9567889,2.9567889 0 0 1 3.63232,2.06197 l 16.40189,59.47388 a 2.9567889,2.9567889 0 0 1 -2.06189,3.63232 z"
     fill="#f0df0f"
     id="path12"
     style="stroke-width:0.736601" />
  <g
     fill="#f1f1f1"
     id="g26"
     transform="matrix(0.7366007,0,0,0.7366007,105.26799,6.4442683)"
     style="fill:#8a8a8a;fill-opacity:1">
    <rect
       transform="rotate(-15.418)"
       x="29.910999"
       y="341.98999"
       width="233.73"
       height="9.0320997"
       id="rect14"
       style="fill:#8a8a8a;fill-opacity:1" />
    <rect
       transform="rotate(-15.418)"
       x="29.910999"
       y="365.54001"
       width="233.73"
       height="9.0320997"
       id="rect16"
       style="fill:#8a8a8a;fill-opacity:1" />
    <rect
       transform="rotate(-15.418)"
       x="29.910999"
       y="389.09"
       width="233.73"
       height="9.0320997"
       id="rect18"
       style="fill:#8a8a8a;fill-opacity:1" />
    <rect
       transform="rotate(-15.418)"
       x="29.910999"
       y="430.53"
       width="233.73"
       height="9.0320997"
       id="rect20"
       style="fill:#8a8a8a;fill-opacity:1" />
    <rect
       transform="rotate(-15.418)"
       x="29.910999"
       y="454.07999"
       width="233.73"
       height="9.0320997"
       id="rect22"
       style="fill:#8a8a8a;fill-opacity:1" />
    <rect
       transform="rotate(-15.418)"
       x="29.910999"
       y="477.63"
       width="233.73"
       height="9.0320997"
       id="rect24"
       style="fill:#8a8a8a;fill-opacity:1" />
  </g>
  <path
     d="M 511.34122,398.41896 H 265.22083 V 104.54475 h 246.12039 z"
     fill="#ffffff"
     id="path28"
     style="fill:#eeeee3;fill-opacity:1;stroke-width:0.736601" />
  <path
     d="M 511.34122,398.41896 H 265.22083 V 104.54475 H 511.34122 Z M 269.56677,394.07707 H 507.00264 V 108.88738 H 269.56677 Z"
     fill="#e5e5e5"
     id="path30"
     style="stroke-width:0.736601" />
  <g
     fill="#f0df0f"
     id="g40"
     transform="matrix(0.7366007,0,0,0.7366007,105.26799,6.4442683)">
    <rect
       x="299.41"
       y="304.69"
       width="191.03"
       height="9.0320997"
       id="rect32" />
    <rect
       x="299.41"
       y="328.17999"
       width="191.03"
       height="9.0320997"
       id="rect34" />
    <rect
       x="299.41"
       y="351.66"
       width="191.03"
       height="9.0320997"
       id="rect36" />
    <circle
       cx="283.88"
       cy="310.53"
       r="5.8944998"
       id="circle38" />
  </g>
  <g
     fill="#e5e5e5"
     id="g58"
     transform="matrix(0.7366007,0,0,0.7366007,105.26799,6.4442683)"
     style="fill:#888888;fill-opacity:1">
    <rect
       x="299.41"
       y="203.50999"
       width="191.03"
       height="9.0320997"
       id="rect42"
       style="fill:#888888;fill-opacity:1" />
    <rect
       x="299.41"
       y="226.99001"
       width="191.03"
       height="9.0320997"
       id="rect44"
       style="fill:#888888;fill-opacity:1" />
    <rect
       x="299.41"
       y="250.47"
       width="191.03"
       height="9.0320997"
       id="rect46"
       style="fill:#888888;fill-opacity:1" />
    <circle
       cx="283.88"
       cy="208.36"
       r="5.8944998"
       id="circle48"
       style="fill:#888888;fill-opacity:1" />
    <rect
       x="299.41"
       y="406.87"
       width="191.03"
       height="9.0320997"
       id="rect50"
       style="fill:#888888;fill-opacity:1" />
    <rect
       x="299.41"
       y="430.35001"
       width="191.03"
       height="9.0320997"
       id="rect52"
       style="fill:#888888;fill-opacity:1" />
    <rect
       x="299.41"
       y="453.82999"
       width="191.03"
       height="9.0320997"
       id="rect54"
       style="fill:#888888;fill-opacity:1" />
    <circle
       cx="283.88"
       cy="411.72"
       r="5.8944998"
       id="circle56"
       style="fill:#888888;fill-opacity:1" />
  </g>
  <path
     id="path62"
     style="fill:#f0df0f;fill-opacity:1;stroke:#f0df0f;stroke-width:10.1;stroke-miterlimit:4;stroke-dasharray:none;stroke-opacity:1"
     d="m 754.95191,216.14584 c -12.77201,0 -23.64615,4.48548 -32.61915,13.45898 -8.973,8.9735 -13.45898,19.84519 -13.45898,32.61719 v 23.28125 h -94.57813 c -4.042,0 -7.47929,1.41484 -10.30859,4.24414 -2.8293,2.8295 -4.24219,6.26474 -4.24219,10.30664 v 105.25 c 0,4.042 1.41289,7.47929 4.24219,10.30859 2.8295,2.8293 6.2667,4.24414 10.30859,4.24414 h 126.10938 c 4.042,0 7.47734,-1.41484 10.30664,-4.24414 2.8293,-2.8295 4.24414,-6.26669 4.24414,-10.30859 v -105.25 c 0,-4.042 -1.41484,-7.47734 -4.24414,-10.30664 -2.8295,-2.8293 -6.26474,-4.24414 -10.30664,-4.24414 h -16.98047 v -23.28125 c 0,-8.7305 3.0731,-16.16755 9.2168,-22.31055 6.1437,-6.1437 13.58054,-9.21484 22.31055,-9.21484 8.73,0 16.16754,3.07114 22.31054,9.21484 6.143,6.1437 9.21485,13.58055 9.21485,22.31055 h 14.55078 c 0,-12.772 -4.48549,-23.64419 -13.45899,-32.61719 -8.9735,-8.973 -19.84518,-13.45898 -32.61718,-13.45898 z m -74.51563,113.09765 c 6.80901,0 12.60692,2.60708 17.39453,7.82031 4.7876,5.21323 7.18164,11.01102 7.18164,17.39454 0,6.59592 -2.39404,12.23488 -7.18164,16.91601 -4.78761,4.68126 -10.58552,7.02149 -17.39453,7.02149 -6.809,0 -12.60694,-2.34037 -17.39453,-7.02149 -4.7876,-4.68086 -7.18164,-10.31983 -7.18164,-16.91601 0,-6.38338 2.39404,-12.18131 7.18164,-17.39454 4.78759,-5.21323 10.58553,-7.82031 17.39453,-7.82031 z" />
  <path
     d="m 788.36503,233.05396 a 9.0954,9.0954 0 0 1 9.8515,-9.872 l 9.6066,-18.431 12.624,3.1061 -13.932,25.838 a 9.1446,9.1446 0 0 1 -18.15,-0.64078 z"
     fill="#ffb7b7"
     id="path66" />
  <polygon
     transform="translate(211.83502,-212.91304)"
     points="633.87,625.53 623.22,625.53 618.15,584.44 633.87,584.44 "
     fill="#ffb7b7"
     id="polygon68" />
  <path
     d="m 848.42503,422.94396 -34.349,-10e-4 v -0.43446 a 13.37,13.37 0 0 1 13.37,-13.369 h 8.5e-4 l 20.979,8.5e-4 z"
     fill="#2f2e41"
     id="path70"
     style="fill:#3d3c55;fill-opacity:1" />
  <polygon
     transform="translate(211.83502,-212.91304)"
     points="719.55,617.57 709.27,620.37 693.57,582.06 708.74,577.93 "
     fill="#ffb7b7"
     id="polygon72" />
  <path
     d="m 936.72503,413.90396 -33.139,9.0366 -0.11432,-0.41915 a 13.37,13.37 0 0 1 9.3807,-16.416 l 8.2e-4,-2.2e-4 20.24,-5.5192 z"
     fill="#2f2e41"
     id="path74"
     style="fill:#3d3c55;fill-opacity:1" />
  <polygon
     transform="translate(211.83502,-212.91304)"
     points="702.79,522.23 693.34,446.26 614.42,448.03 609.11,528.73 620.52,619.26 639.22,613.55 640.01,532.66 654.97,486.02 699.25,610.6 719.52,603.12 "
     fill="#2f2e41"
     id="polygon76"
     style="fill:#616280;fill-opacity:1" />
  <path
     d="m 877.91503,93.423963 -31.486,4.6428 -11.343,11.217997 -3.5219,40.307 2.1874,35.702 -9.1187,62.959 c 0,0 22.93,-12.729 40.701,3.2052 17.771,15.9342 42.635,2.816 43.147,-7.784 z"
     fill="#cbcbcb"
     id="path78" />
  <g
     fill="#2f2e41"
     id="g86"
     transform="translate(162.90502,-132.27604)"
     style="fill:#616280;fill-opacity:1">
    <path
       d="m 699.03,276.25 -4.3e-4,-0.0453 15.641,-50.984 0.20211,-0.0132 c 1.1133,-0.0725 27.337,-1.618 33.202,11.33 l 0.0284,0.0625 -1.7816,52.983 2.4537,82.979 -48.501,10.505 -0.35252,0.0768 z"
       id="path80"
       style="fill:#616280;fill-opacity:1" />
    <path
       d="m 681.69,272.72 2.8693,-43.221 c -20.407,1.2694 -20.099,15.738 -20.076,16.369 l -0.223,64.65 -4.0871,69.164 14.86,-1.1144 z"
       id="path82"
       style="fill:#616280;fill-opacity:1" />
    <path
       d="m 635.68,351.37 18.117,-42.047 12.645,-23.222 6.6021,41.889 -22.922,34.384 z"
       id="path84"
       style="fill:#616280;fill-opacity:1" />
  </g>
  <path
     d="m 873.45503,203.62396 a 9.0953,9.0953 0 0 1 12.325,-6.5264 l 14.616,-14.777 11.146,6.6922 -20.934,20.578 a 9.1446,9.1446 0 0 1 -17.154,-5.9668 z"
     fill="#ffb7b7"
     id="path88" />
  <path
     d="m 885.74503,191.70396 29.801,-32.692 -19.727,-28.149 2.0304,-13.762 11.627,-14.362 0.2269,0.29336 c 1.2393,1.6037 30.362,39.439 31.198,53.763 0.83853,14.376 -41.021,50.742 -42.803,52.282 l -0.24766,0.21428 z"
     fill="#2f2e41"
     id="path90"
     style="fill:#616280;fill-opacity:1" />
  <circle
     cx="859.755"
     cy="68.693962"
     r="21.181"
     fill="#ffb7b7"
     id="circle92" />
  <path
     d="m 879.67503,51.763963 1.0269,-2.0668 -5.1669,-2.5672 c 0,0 -5.6999,-9.2744 -16.014,-6.6681 -10.3141,2.6063 -14.955,4.1661 -14.955,4.1661 l -5.1538,2.5932 2.5867,2.5737 -4.6404,1.5599 3.1001,1.5403 -3.6071,2.0733 1.9418,10.628 c 0,0 3.2251,-8.0612 9.4254,-4.9806 6.2003,3.0806 17.541,-1.5924 17.541,-1.5924 l 9.853,19.069 c 0,0 2.0327,-6.6845 5.6568,-4.9021 2e-5,3e-5 9.2587,-14.745 -1.595,-21.426 z"
     fill="#2f2e41"
     id="path94"
     style="fill:#855e5e;fill-opacity:1" />
</svg>
