<?xml version="1.0" encoding="UTF-8"?>
<svg width="949" height="568.65" data-name="Layer 1" version="1.1" viewBox="0 0 949 568.65" xmlns="http://www.w3.org/2000/svg"><path d="m368.45 489.5a31.517 31.517 0 0 1-30.435-5.3612c-10.66-8.9471-14.002-23.687-16.721-37.336l-8.0435-40.37 16.84 11.595c12.11 8.3386 24.493 16.944 32.878 29.023s12.045 28.566 5.308 41.635" fill="#008000"/><path d="m367.01 538.38c1.7044-12.415 3.457-24.99 2.2614-37.538-1.0618-11.144-4.4617-22.029-11.383-30.953a51.491 51.491 0 0 0-13.211-11.971c-1.3211-0.83387-2.537 1.2598-1.2217 2.09a48.952 48.952 0 0 1 19.363 23.363c4.2156 10.722 4.8926 22.411 4.1661 33.801-0.43931 6.8881-1.3704 13.731-2.3086 20.565a1.2541 1.2541 0 0 0 0.84528 1.4888 1.2176 1.2176 0 0 0 1.4887-0.84529z" fill="#668000"/><path d="m350.6 516.41a23.201 23.201 0 0 1-20.215 10.433c-10.233-0.48578-18.764-7.6279-26.444-14.408l-22.715-20.056 15.034-0.71945c10.811-0.51738 21.901-1 32.199 2.334s19.794 11.358 21.677 22.016" fill="#8a0"/><path d="m371.83 545.51c-8.2036-14.516-17.719-30.648-34.722-35.805a38.746 38.746 0 0 0-14.604-1.5079c-1.5506 0.1337-1.1634 2.5238 0.38438 2.3904a35.996 35.996 0 0 1 23.306 6.166c6.5715 4.4731 11.688 10.692 16.019 17.287 2.6527 4.0394 5.0288 8.2503 7.4054 12.455 0.7595 1.3439 2.9794 0.3738 2.2111-0.98579z" fill="#668000"/><path d="m591.71 254.72-178.85 148.23a11.027 11.027 0 0 1-15.508-1.4518l-75.395-90.968a11.027 11.027 0 0 1 1.4518-15.508l178.85-148.23a11.027 11.027 0 0 1 15.508 1.4518l75.395 90.968a11.027 11.027 0 0 1-1.4517 15.508z" fill="#ccc"/><path d="m584.55 250.26-174.74 144.83a5.6803 5.6803 0 0 1-7.9892-0.74787l-71.987-86.857a5.6803 5.6803 0 0 1 0.74788-7.9892l174.74-144.83a5.6803 5.6803 0 0 1 7.9892 0.74788l71.987 86.857a5.6803 5.6803 0 0 1-0.74783 7.9892z" fill="#fff6d5"/><path d="m477.16 222.58-59.618 49.411a5.3402 5.3402 0 1 1-6.8154-8.2231l59.618-49.411a5.3402 5.3402 0 0 1 6.8154 8.2231z" fill="#ccc"/><g><path transform="matrix(-.53242 -.63286 .63286 -.53242 532.25 472.67)" d="m244.57 138.49-46.929 27.094v-27.094-27.094l23.464 13.547z" fill="#3f5000" stop-color="#000000" stroke-opacity=".13739" stroke-width="1.8898"/><ellipse transform="matrix(.75354 -.6574 .99957 -.029154 0 0)" cx="-516.01" cy="849.81" rx="76.016" ry="31.858" fill="#0ff" stop-color="#000000" stroke-opacity=".13739" stroke-width="3.3166"/><circle cx="370.79" cy="306.95" r="16.688" fill="#dbc600"/></g><polygon transform="translate(0,-20)" points="473.46 556.21 479.29 508.92 461.2 508.93 461.2 556.21" fill="#ffb8b8"/><path d="m458.07 532.21 24.144-1e-3h1e-3a15.386 15.386 0 0 1 15.386 15.386v0.5l-39.531 1e-3z" fill="#696691"/><polygon transform="translate(0,-20)" points="429.46 556.21 435.29 508.92 417.2 508.93 417.2 556.21" fill="#ffb8b8"/><path d="m414.07 532.21 24.144-1e-3h1e-3a15.386 15.386 0 0 1 15.386 15.386v0.5l-39.531 1e-3z" fill="#696691"/><path d="m429.5 521.75h-2e-3l-10.426-3e-3a4.4816 4.4816 0 0 1-4.4949-4.3379l-0.32837-9.1211c-2.6355-72.94-5.3608-148.36 11.517-182.26l0.13233-0.2666 55.88-2.0225 11.219 102.91a44.621 44.621 0 0 1-0.52 13.164l-14.831 78.149a4.4988 4.4988 0 0 1-4.5972 3.6582l-11.71-0.37988a4.5019 4.5019 0 0 1-4.3018-4.9434l9.199-72.279a24.702 24.702 0 0 0-0.83472-9.2842l-11.44-39.994a1.5002 1.5002 0 0 0-2.9282 0.20605l-17.077 122.93a4.5184 4.5184 0 0 1-4.4566 3.8809z" fill="#555977"/><circle cx="436.18" cy="196.28" r="24.561" fill="#ffb8b8"/><path d="m479.16 331.33h-50.823a4.5004 4.5004 0 0 1-4.4531-5.1504l2.5108-17.196-14.744-40.554a29.844 29.844 0 0 1 24.009-39.767 29.73 29.73 0 0 1 31.021 16.815l3.2385 6.8906 13.666 73.641a4.4996 4.4996 0 0 1-4.4246 5.3203z" fill="#dbc600"/><path d="m371.87 374.46a10.743 10.743 0 0 0 7.4446-14.694l39.602-89.472-22.655-5.706-31.804 89.742a10.801 10.801 0 0 0 7.4118 20.13z" fill="#ffb8b8"/><path d="m413.56 286.3-22.033-10.314a4.8169 4.8169 0 0 1-1.9743-7.0216l13.39-20.223a13.377 13.377 0 0 1 24.198 11.413l-6.9242 23.163a4.8169 4.8169 0 0 1-6.6567 2.9816z" fill="#dbc600"/><path d="m537.08 144.22a10.743 10.743 0 0 1-8.8089 13.919l-56.569 79.835-16.503-16.536 60.794-73.275a10.801 10.801 0 0 1 21.086-3.9426z" fill="#ffb8b8"/><path d="m484.78 228.61a4.8116 4.8116 0 0 1-1.2349 3.8161l-16.349 17.809a13.377 13.377 0 0 1-22.195-14.939l10.512-21.858a4.8169 4.8169 0 0 1 7.0421-1.9001l20.142 13.643a4.8114 4.8114 0 0 1 2.0828 3.4284z" fill="#dbc600"/><path d="m468.45 186a25.26 25.26 0 0 0-0.91846-6.5759c-3.957-14.622-18.565-23.399-33.225-21.196a31.7 31.7 0 0 0-8.7686-1.2278 31.621 31.621 0 0 0-31.246 26.767l-11.842 76.233h64l10.334-66.526a31.777 31.777 0 0 0 0.269-7.4745z" fill="#2f2e41"/><path d="m548 548.65h-211a1 1 0 1 1 0-2h211a1 1 0 0 1 0 2z" fill="#ccc"/><g fill="#a0616a"><path d="m740.57 97.668a10.056 10.056 0 0 1 10.986 10.819l32.707 14.395-15.602 10.071-28.667-15.214a10.11 10.11 0 0 1 0.57555-20.071z"/><circle cx="872.5" cy="55.15" r="24.561"/><polygon transform="translate(-20,20)" points="829.96 338.08 848.05 338.08 848.05 385.36 835.79 385.36"/></g><path d="m831.18 417.25-39.531-1e-3v-0.5a15.386 15.386 0 0 1 15.386-15.386h1e-3l24.144 1e-3z" fill="#696691"/><polygon transform="translate(-20,20)" points="880.96 338.08 899.05 338.08 899.05 385.36 886.79 385.36" fill="#a0616a"/><g><path d="m882.18 417.25-39.531-1e-3v-0.5a15.386 15.386 0 0 1 15.386-15.386h1e-3l24.144 1e-3z" fill="#696691"/><path d="m878.47 395.29a4.5066 4.5066 0 0 1-0.54883-0.0342l-17.946-2.209a4.4929 4.4929 0 0 1-3.9443-4.2354l-5.2295-117.76a1.4999 1.4999 0 0 0-2.8574-0.55371l-13.434 44.784-2.7666 71.937a4.498 4.498 0 0 1-5.0227 4.2949l-15.541-1.8291a4.4851 4.4851 0 0 1-3.9732-4.5566l1.3193-67.714 10.529-106.29 0.47046 0.0176 64.022 2.4678-0.5769 177.2a4.5015 4.5015 0 0 1-4.5007 4.4854z" fill="#a80"/><path d="m881.12 223.32c-0.0391 0-0.0781 0-0.11743-1e-3l-64.479-1.6894a4.4998 4.4998 0 0 1-4.3411-5.1045l12.39-91.191a44.132 44.132 0 0 1 18.68-30.792 38.196 38.196 0 0 1 31.108-5.5469c22.506 5.7031 36.008 29.87 30.097 53.872l-18.968 77.029a4.5265 4.5265 0 0 1-4.3701 3.4239z" fill="#566c79"/><path d="m796.53 150.9a21.822 21.822 0 0 1-11.964-3.5547l-37.602-24.67a4.4992 4.4992 0 0 1-0.79883-6.8564l5.6646-5.9805a4.4838 4.4838 0 0 1 4.9316-1.0869l42.002 16.726 38.909-27.786a16.155 16.155 0 1 1 16.446 27.678l-48.088 23.357a21.74 21.74 0 0 1-9.4995 2.1738z" fill="#566c79"/></g><path d="m881.01 78.638c4.1902 0.9894 9.2453 1.7486 12.24-1.3448a12.51 12.51 0 0 0 1.4159-1.8901l3.9152-5.9774c2.9992-4.5789 6.0511-9.2773 7.3205-14.602a23.741 23.741 0 0 0-17.907-28.674c-5.8457-1.3088-11.566-3.5608-17.542-3.15s-12.985 0.27592-18-3c0.31289 1.4605 2.0025 7.9134 2.0025 7.9134s-7.5414 6.9187-9.054 8.6438a14.166 14.166 0 0 1 19.723 10.671c0.4281 2.6258 0.17666 5.538 1.7367 7.6932 1.4838 2.0498 4.1451 2.768 6.3817 3.9515a15.563 15.563 0 0 1 6.8468 19.045z" fill="#2f2e41"/><path d="m851.52 372.11h-163.59c-5.3287-6e-3 -9.647-4.3243-9.653-9.653v-243.55c6e-3 -5.3287 4.3243-9.647 9.653-9.653h163.59c5.3287 6e-3 9.6469 4.3243 9.6529 9.653v243.55c-0.01 5.3287-4.3242 9.6469-9.6529 9.653z" fill="#ccc"/><path d="m849.18 365.09h-158.91c-2.7451-3e-3 -4.9697-2.2276-4.9727-4.9727v-238.87c3e-3 -2.7451 2.2276-4.9697 4.9727-4.9727h158.91c2.7451 3e-3 4.9697 2.2276 4.9727 4.9727v238.87c-3e-3 2.7451-2.2276 4.9697-4.9727 4.9727z" fill="#fff"/><g fill="#ccc"><path d="m814.96 166.25h-100.62a4.6802 4.6802 0 1 1 0-9.3604h100.62a4.6802 4.6802 0 0 1 0 9.3604z"/><path d="m782.2 226.36h-67.863a4.6802 4.6802 0 1 1 0-9.3604h67.863a4.6802 4.6802 0 1 1 0 9.3604z"/><path d="m782.2 326.36h-67.863a4.6802 4.6802 0 1 1 0-9.3604h67.863a4.6802 4.6802 0 1 1 0 9.3604z"/></g><path d="m848.37 219.8a10.056 10.056 0 0 1 12.838-8.5398l20.783-29.069 6.665 17.332-20.758 24.948a10.11 10.11 0 0 1-19.529-4.6707z" fill="#a0616a"/><path d="m872.18 218.23a4.5356 4.5356 0 0 1-0.98107-0.0247 4.4888 4.4888 0 0 1-3.2051-2.06l-4.3922-6.9683a4.4798 4.4798 0 0 1 0.16818-5.0482l26.602-36.553-17.291-44.576a16.07 16.07 0 0 1 8.8135-20.739 16.154 16.154 0 0 1 22.073 11.656l10.728 52.373a21.884 21.884 0 0 1-6.6505 20.454l-33.21 30.325a4.4868 4.4868 0 0 1-2.6552 1.1611z" fill="#566c79"/><path d="m928 419.65h-211a1 1 0 0 1 0-2h211a1 1 0 0 1 0 2z" fill="#ccc"/><path d="m276.62 210.78h-203.59c-5.3287-6e-3 -9.647-4.3243-9.653-9.653v-143.55c6e-3 -5.3287 4.3243-9.647 9.653-9.653h203.59c5.3287 6e-3 9.647 4.3243 9.653 9.653v143.55c-6e-3 5.3287-4.3243 9.6469-9.653 9.653z" fill="#ccc"/><path d="m274.28 203.76h-198.91c-2.7451-3e-3 -4.9697-2.2276-4.9727-4.9727v-138.87c3e-3 -2.7451 2.2276-4.9697 4.9727-4.9727h198.91c2.7451 3e-3 4.9697 2.2276 4.9727 4.9727v138.87c-3e-3 2.7451-2.2276 4.9697-4.9727 4.9727z" fill="#666"/><path d="m262.65 164.62-42.141 24.33v-24.33-24.33l21.07 12.165z" fill="#ff0" stop-color="#000000" stroke-opacity=".13739" stroke-width="1.8898"/><path transform="matrix(-.8603 -1.0226 1.0226 -.8603 577.25 590.82)" d="m244.57 138.49-46.929 27.094v-27.094-27.094l23.464 13.547z" fill="#6e7521" stop-color="#000000" stroke-opacity=".13739" stroke-width="1.8898"/><g fill="#ffb8b8"><path d="m268.17 37.971a10.056 10.056 0 0 0-5.31 14.476l-23.42 26.99 18.409 2.4388 19.418-26.004a10.11 10.11 0 0 0-9.0966-17.901z"/><path d="m111.8 48.777a10.056 10.056 0 0 1-7.7544 13.328l-5.8281 35.256-13.628-12.615 7.6237-31.546a10.11 10.11 0 0 1 19.586-4.4234z"/><polygon transform="translate(20,20)" points="146.49 338.08 128.4 338.08 128.4 385.36 140.66 385.36"/></g><path d="m145.27 401.36 24.144-1e-3h1e-3a15.386 15.386 0 0 1 15.386 15.386v0.5l-39.531 1e-3z" fill="#696691"/><polygon transform="translate(20,20)" points="83.491 338.08 65.397 338.08 65.399 385.36 77.659 385.36" fill="#ffb8b8"/><path d="m82.272 401.36 24.144-1e-3h1e-3a15.386 15.386 0 0 1 15.386 15.386v0.5l-39.531 1e-3z" fill="#696691"/><circle cx="145.84" cy="57.947" r="24.561" fill="#ffb8b8"/><g><path d="m142.9 389.65-2.0308-129.41a1.4998 1.4998 0 0 0-2.9592-0.32422l-33.291 126.58a4.5551 4.5551 0 0 1-4.571 3.459l-18.29-0.78223a4.5009 4.5009 0 0 1-4.272-5.0606l28.249-162.66 0.0579-0.459 78.682 3.7226 0.51318 0.0234-16.872 165.18a4.5189 4.5189 0 0 1-4.4873 4.166h-16.229a4.5182 4.5182 0 0 1-4.4995-4.4365z" fill="#9a7081"/><path d="m205.04 235.68-114.18-9.3701a4.4993 4.4993 0 0 1-3.8635-6.0146l17.981-49.712 1.0347-59.003a16.181 16.181 0 0 1 16.667-15.891l7.593-6.8828h27.82l2.4224 3.1758 19.357 2.9746a16.272 16.272 0 0 1 13.58 13.833l16.414 121.8a4.5006 4.5006 0 0 1-4.4539 5.1006c-0.12404 0-0.2488-5e-3 -0.3738-0.0156z" fill="#7f7da3"/><path d="m182.79 100.68 48.684-14.264 22.033-29.008a4.4987 4.4987 0 0 1 5.3523-1.416l13.756 5.8799a4.4996 4.4996 0 0 1 2.1191 6.4033l-16.466 28.256a25.197 25.197 0 0 1-11.654 10.423l-57.261 25.312z" fill="#8280a5"/><path d="m89.393 122.02a20.865 20.865 0 0 1-8.6038-18.575l2.1365-28.308a4.5117 4.5117 0 0 1 4.4876-4.1611h0.03979l16.132 0.14356a4.5009 4.5009 0 0 1 4.376 5.3652l-2.9932 15.271 21.36 9.0254-17.987 34.993z" fill="#7f7da3"/></g><path d="m160.13 28.496s-25.685-13.83-39.685 2.4924 5.3339 41.848 5.3339 41.848l27.548 3.4744s1-18.726 7.559-18.363 26.929-23.266-0.7559-29.451z" fill="#2f2e41"/><g fill="#ccc"><path d="m232 418.65h-211a1 1 0 0 1 0-2h211a1 1 0 0 1 0 2z"/><path d="m814.96 186.25h-100.62a4.6802 4.6802 0 1 1 0-9.3604h100.62a4.6802 4.6802 0 0 1 0 9.3604z"/><path d="m814.96 206.25h-100.62a4.6802 4.6802 0 1 1 0-9.3604h100.62a4.6802 4.6802 0 0 1 0 9.3604z"/><path d="m814.96 146.25h-100.62a4.6802 4.6802 0 1 1 0-9.3604h100.62a4.6802 4.6802 0 0 1 0 9.3604z"/><path d="m814.96 266.25h-100.62a4.6802 4.6802 0 1 1 0-9.3604h100.62a4.6802 4.6802 0 0 1 0 9.3604z"/><path d="m814.96 286.25h-100.62a4.6802 4.6802 0 1 1 0-9.3604h100.62a4.6802 4.6802 0 0 1 0 9.3604z"/><path d="m814.96 306.25h-100.62a4.6802 4.6802 0 1 1 0-9.3604h100.62a4.6802 4.6802 0 0 1 0 9.3604z"/></g></svg>
