<?xml version="1.0" encoding="UTF-8"?>
<svg width="418.75" height="66.198" version="1.1" viewBox="0 0 110.79 17.515" xmlns="http://www.w3.org/2000/svg">
  <g transform="translate(-31.829 -56.096)">
    <g fill="#b4ba46" fill-opacity=".5" stop-color="#000000" stroke-width=".26458" style="white-space:pre" aria-label="“Freely you received, freely give”">
      <path d="m37.121 63.19h0.7717l0.08957-0.52021c0.0689-0.37896 0.25149-0.68557 0.46164-0.99908l-0.4582-0.2825c-0.39619 0.32039-0.70624 0.77515-0.78548 1.285zm1.1438 0h0.7717l0.09302-0.52021c0.0689-0.37896 0.24805-0.68557 0.46164-0.99908l-0.4582-0.2825c-0.39619 0.32039-0.70969 0.77515-0.78548 1.285z"/>
      <path d="m39.364 66.8h1.0129l0.35829-2.0498h1.9224l0.14469-0.83371h-1.9258l0.22738-1.2954h2.1635l0.14814-0.83716h-3.1798z"/>
      <path d="m45.189 63.968c0.11024 0 0.22393 0.01722 0.33073 0.03445l0.12058-0.95774c-0.11024-0.02756-0.22049-0.04823-0.33417-0.05168-0.3893 0-0.66146 0.22049-0.86816 0.53054l0.08613-0.45475-0.91295 0.0034-0.64768 3.7276h0.97496l0.43408-2.446c0.19982-0.27216 0.47542-0.39274 0.81649-0.38585z"/>
      <path d="m48.621 66.201-0.44786-0.54777c-0.25149 0.25838-0.565 0.4203-0.93018 0.40997-0.47198-0.01378-0.70624-0.35484-0.69246-0.80271h2.2875l0.05512-0.42375c0.1068-0.95429-0.32728-1.8121-1.3711-1.8328-1.1093-0.02412-1.819 0.89572-1.9224 1.9327l-0.01034 0.1378c-0.07924 0.99908 0.54432 1.7811 1.571 1.7949 0.54777 0.0069 1.1438-0.19982 1.4607-0.66835zm-1.1507-2.3978c0.40652 0.01034 0.56844 0.31695 0.50987 0.69246l-0.02067 0.08613h-1.3367c0.14469-0.3893 0.37552-0.79237 0.84749-0.77859z"/>
      <path d="m52.321 66.201-0.44786-0.54777c-0.25149 0.25838-0.565 0.4203-0.93018 0.40997-0.47198-0.01378-0.70624-0.35484-0.69246-0.80271h2.2875l0.05512-0.42375c0.1068-0.95429-0.32728-1.8121-1.3711-1.8328-1.1093-0.02412-1.819 0.89572-1.9224 1.9327l-0.01034 0.1378c-0.07924 0.99908 0.54432 1.7811 1.571 1.7949 0.54777 0.0069 1.1438-0.19982 1.4607-0.66835zm-1.1507-2.3978c0.40652 0.01034 0.56844 0.31695 0.50988 0.69246l-0.02067 0.08613h-1.3367c0.14469-0.3893 0.37552-0.79237 0.84749-0.77859z"/>
      <path d="m54.746 61.508h-0.97496l-0.91984 5.2917h0.97841z"/>
      <path d="m56.162 67.362 2.1807-4.2891h-1.0783l-1.068 2.3117-0.26527-2.3117h-1.006l0.60978 3.6759-0.18604 0.34451c-0.15847 0.29628-0.3893 0.40652-0.72347 0.40308-0.04479 0-0.08957-0.0034-0.13436-0.01033l-0.07579 0.75792c0.15503 0.0379 0.30661 0.07235 0.46509 0.07579 0.64423 0 1.0266-0.41341 1.2816-0.95774z"/>
      <path d="m61.34 67.362 2.1807-4.2891h-1.0783l-1.068 2.3117-0.26527-2.3117h-1.006l0.60978 3.6759-0.18604 0.34451c-0.15848 0.29628-0.3893 0.40652-0.72347 0.40308-0.04479 0-0.08957-0.0034-0.13436-0.01033l-0.07579 0.75792c0.15503 0.0379 0.30661 0.07235 0.46509 0.07579 0.64423 0 1.0266-0.41341 1.2816-0.95774z"/>
      <path d="m63.355 64.995c-0.08957 0.99219 0.42375 1.8535 1.4883 1.8741 1.1128 0.02412 1.8259-0.85438 1.9396-1.8982l0.0069-0.07579c0.08957-0.99563-0.41341-1.8707-1.4883-1.8914-1.1231-0.02067-1.8293 0.86816-1.9396 1.9189zm0.98185-0.07235c0.05857-0.50987 0.30661-1.1369 0.9164-1.1197 0.57878 0.02067 0.60634 0.65457 0.56155 1.0921l-0.0069 0.07235c-0.05857 0.50988-0.30661 1.1231-0.9164 1.1024-0.57533-0.01723-0.60289-0.63045-0.56155-1.0714z"/>
      <path d="m69.253 66.8h0.90606l0.64768-3.7276h-0.97841l-0.46164 2.6355c-0.19293 0.23771-0.44442 0.36174-0.75448 0.3514-0.33417-0.01378-0.40997-0.26527-0.37552-0.565l0.40997-2.4219h-0.97152l-0.40308 2.4116c-0.0689 0.73381 0.21704 1.3711 1.0266 1.3849 0.41341 0.0069 0.75792-0.15158 1.0301-0.4582z"/>
      <path d="m74.848 63.968c0.11024 0 0.22393 0.01722 0.33073 0.03445l0.12058-0.95774c-0.11024-0.02756-0.22049-0.04823-0.33418-0.05168-0.3893 0-0.66146 0.22049-0.86816 0.53054l0.08613-0.45475-0.91295 0.0034-0.64768 3.7276h0.97496l0.43408-2.446c0.19982-0.27216 0.47542-0.39274 0.81649-0.38585z"/>
      <path d="m78.28 66.201-0.44786-0.54777c-0.25149 0.25838-0.565 0.4203-0.93018 0.40997-0.47198-0.01378-0.70624-0.35484-0.69246-0.80271h2.2875l0.05512-0.42375c0.1068-0.95429-0.32728-1.8121-1.3711-1.8328-1.1093-0.02412-1.819 0.89572-1.9224 1.9327l-0.01033 0.1378c-0.07924 0.99908 0.54432 1.7811 1.571 1.7949 0.54777 0.0069 1.1438-0.19982 1.4607-0.66835zm-1.1507-2.3978c0.40652 0.01034 0.56844 0.31695 0.50987 0.69246l-0.02067 0.08613h-1.3367c0.14469-0.3893 0.37552-0.79237 0.84749-0.77859z"/>
      <path d="m80.402 66.07c-0.57533-0.013781-0.53744-0.66146-0.49609-1.0783l0.01033-0.09646c0.05512-0.49609 0.2446-1.1128 0.85438-1.0921 0.38585 0.01378 0.52366 0.3135 0.52021 0.66146h0.90951c0.0069-0.84405-0.49954-1.4435-1.3643-1.4607-1.1128-0.02412-1.7846 0.85438-1.8948 1.8879l-0.01033 0.09991c-0.08613 0.9853 0.37207 1.8604 1.4469 1.881 0.81304 0.01378 1.5641-0.52021 1.6226-1.3608l-0.9164 0.0034c-0.0689 0.33762-0.32384 0.565-0.68213 0.55466z"/>
      <path d="m85.552 66.201-0.44786-0.54777c-0.25149 0.25838-0.565 0.4203-0.93018 0.40997-0.47198-0.01378-0.70624-0.35484-0.69246-0.80271h2.2875l0.05512-0.42375c0.1068-0.95429-0.32728-1.8121-1.3711-1.8328-1.1093-0.02412-1.819 0.89572-1.9224 1.9327l-0.01033 0.1378c-0.07924 0.99908 0.54432 1.7811 1.571 1.7949 0.54777 0.0069 1.1438-0.19982 1.4607-0.66835zm-1.1507-2.3978c0.40652 0.01034 0.56844 0.31695 0.50987 0.69246l-0.02067 0.08613h-1.3367c0.14469-0.3893 0.37552-0.79237 0.84749-0.77859z"/>
      <path d="m86.841 62.125c0.0069 0.30661 0.25494 0.50643 0.55122 0.49954 0.30317-0.0034 0.54088-0.22393 0.53399-0.53399-0.0069-0.30661-0.25149-0.50988-0.55122-0.50298-0.30661 0.0069-0.54088 0.22393-0.53399 0.53744zm0.86816 0.9474h-0.97841l-0.64768 3.7276h0.97841z"/>
      <path d="m91.523 63.073h-1.0473l-1.0576 2.4908-0.27561-2.4908h-0.98874l0.64079 3.7276h0.92673z"/>
      <path d="m94.485 66.201-0.44786-0.54777c-0.25149 0.25838-0.565 0.4203-0.93018 0.40997-0.47198-0.01378-0.70624-0.35484-0.69246-0.80271h2.2875l0.05512-0.42375c0.1068-0.95429-0.32728-1.8121-1.3711-1.8328-1.1093-0.02412-1.819 0.89572-1.9224 1.9327l-0.01034 0.1378c-0.07924 0.99908 0.54433 1.7811 1.571 1.7949 0.54777 0.0069 1.1438-0.19982 1.4607-0.66835zm-1.1507-2.3978c0.40652 0.01034 0.56844 0.31695 0.50987 0.69246l-0.02067 0.08613h-1.3367c0.14469-0.3893 0.37552-0.79237 0.84749-0.77859z"/>
      <path d="m97.21 66.8h0.86816l0.9164-5.2917h-0.97496l-0.36518 1.9051c-0.21015-0.26527-0.49954-0.40308-0.8406-0.40997-1.0645-0.02412-1.5606 0.99219-1.6743 1.912l-0.01033 0.07579c-0.08268 0.81993 0.16881 1.8569 1.1644 1.8776 0.39963 0.01034 0.71658-0.1757 0.97152-0.46853zm-1.099-1.8121 0.0069-0.07235c0.06546-0.49609 0.29972-1.1334 0.90262-1.1128 0.26527 0.01034 0.44786 0.1378 0.53744 0.38585l-0.26527 1.4917c-0.17914 0.23082-0.40308 0.39274-0.70969 0.37896-0.54432-0.01722-0.51676-0.67868-0.47198-1.0714z"/>
      <path d="m99.887 65.953h-0.81993l-0.12747 0.72692c-0.07924 0.42719-0.3135 0.7407-0.53054 1.1059l0.50987 0.27561c0.44786-0.35829 0.7717-0.86472 0.86127-1.4332z"/>
      <path d="m104.71 63.799 0.12747-0.72692h-0.72002l0.0551-0.32384c0.0654-0.34106 0.32728-0.51676 0.66835-0.51332 0.0999 0 0.19292 0.01723 0.28938 0.04134l0.0861-0.77515c-0.1757-0.0379-0.3514-0.07235-0.53054-0.07235-0.84061-0.01378-1.3987 0.49609-1.5021 1.3195l-0.0413 0.32039-0.53743 0.0034-0.12747 0.72692h0.54088l-0.52366 3.0007h0.97841l0.52021-3.0007z"/>
      <path d="m106.92 63.968c0.11024 0 0.22393 0.01722 0.33073 0.03445l0.12058-0.95774c-0.11024-0.02756-0.22049-0.04823-0.33417-0.05168-0.3893 0-0.66146 0.22049-0.86817 0.53054l0.0861-0.45475-0.91295 0.0034-0.64768 3.7276h0.97496l0.43408-2.446c0.19982-0.27216 0.47543-0.39274 0.81649-0.38585z"/>
      <path d="m110.35 66.201-0.44786-0.54777c-0.25149 0.25838-0.565 0.4203-0.93018 0.40997-0.47198-0.01378-0.70624-0.35484-0.69246-0.80271h2.2875l0.0551-0.42375c0.1068-0.95429-0.32728-1.8121-1.3711-1.8328-1.1093-0.02412-1.819 0.89572-1.9224 1.9327l-0.0103 0.1378c-0.0792 0.99908 0.54432 1.7811 1.571 1.7949 0.54777 0.0069 1.1438-0.19982 1.4607-0.66835zm-1.1507-2.3978c0.40652 0.01034 0.56844 0.31695 0.50987 0.69246l-0.0207 0.08613h-1.3367c0.1447-0.3893 0.37552-0.79237 0.8475-0.77859z"/>
      <path d="m114.05 66.201-0.44787-0.54777c-0.25149 0.25838-0.56499 0.4203-0.93017 0.40997-0.47198-0.01378-0.70625-0.35484-0.69247-0.80271h2.2876l0.0551-0.42375c0.1068-0.95429-0.32728-1.8121-1.3712-1.8328-1.1093-0.02412-1.819 0.89572-1.9224 1.9327l-0.0103 0.1378c-0.0792 0.99908 0.54433 1.7811 1.571 1.7949 0.54777 0.0069 1.1438-0.19982 1.4607-0.66835zm-1.1507-2.3978c0.40653 0.01034 0.56845 0.31695 0.50988 0.69246l-0.0207 0.08613h-1.3367c0.14469-0.3893 0.37552-0.79237 0.84749-0.77859z"/>
      <path d="m116.47 61.508h-0.97497l-0.91984 5.2917h0.97841z"/>
      <path d="m117.89 67.362 2.1808-4.2891h-1.0783l-1.068 2.3117-0.26527-2.3117h-1.006l0.60978 3.6759-0.18603 0.34451c-0.15848 0.29628-0.3893 0.40652-0.72347 0.40308-0.0448 0-0.0896-0.0034-0.13436-0.01033l-0.0758 0.75792c0.15503 0.0379 0.30661 0.07235 0.46508 0.07579 0.64424 0 1.0266-0.41341 1.2816-0.95774z"/>
      <path d="m124.73 66.673 0.61323-3.6001-0.89228-0.0034-0.12747 0.36174c-0.21015-0.29628-0.53399-0.4203-0.88883-0.42719-1.068-0.02412-1.6123 0.97496-1.726 1.912l-7e-3 0.07579c-0.0827 0.83371 0.20671 1.8604 1.2092 1.8776 0.36518 0.0069 0.66146-0.14125 0.91295-0.39963l-0.0551 0.21704c-0.12402 0.50298-0.47887 0.82338-1.0129 0.8096-0.33417-0.0069-0.61322-0.16192-0.81993-0.4203l-0.48231 0.59256c0.32039 0.38585 0.81993 0.58911 1.316 0.59945 1.0232 0.02412 1.819-0.56844 1.9603-1.5951zm-2.0567-1.6847 0.0103-0.0689c0.0689-0.51332 0.3514-1.1334 0.95773-1.1162 0.2515 0.0069 0.44787 0.11024 0.54777 0.34451l-0.28938 1.571c-0.18604 0.21704-0.41342 0.3514-0.70625 0.34106-0.55121-0.02067-0.565-0.66146-0.52021-1.0714z"/>
      <path d="m126.24 62.125c7e-3 0.30661 0.25494 0.50643 0.55122 0.49954 0.30317-0.0034 0.54088-0.22393 0.53399-0.53399-7e-3 -0.30661-0.25149-0.50988-0.55122-0.50298-0.30661 0.0069-0.54088 0.22393-0.53399 0.53744zm0.86817 0.9474h-0.97841l-0.64768 3.7276h0.97841z"/>
      <path d="m130.92 63.073h-1.0473l-1.0576 2.4908-0.27561-2.4908h-0.98874l0.64078 3.7276h0.92674z"/>
      <path d="m133.88 66.201-0.44786-0.54777c-0.25149 0.25838-0.565 0.4203-0.93018 0.40997-0.47197-0.01378-0.70624-0.35484-0.69246-0.80271h2.2875l0.0551-0.42375c0.10679-0.95429-0.32729-1.8121-1.3712-1.8328-1.1093-0.02412-1.819 0.89572-1.9224 1.9327l-0.0103 0.1378c-0.0792 0.99908 0.54432 1.7811 1.571 1.7949 0.54777 0.0069 1.1438-0.19982 1.4607-0.66835zm-1.1507-2.3978c0.40652 0.01034 0.56844 0.31695 0.50987 0.69246l-0.0207 0.08613h-1.3367c0.14469-0.3893 0.37551-0.79237 0.84749-0.77859z"/>
      <path d="m136.17 61.508h-0.7717l-0.093 0.53399c-0.0724 0.37552-0.25149 0.68558-0.46509 0.99563l0.49265 0.28939c0.37896-0.32728 0.67869-0.78548 0.75448-1.2885zm1.1576 0h-0.7717l-0.093 0.53399c-0.0689 0.37552-0.24804 0.68558-0.46164 0.99563l0.48921 0.28939c0.3824-0.32728 0.68212-0.78548 0.75447-1.2885z"/>
    </g>
  </g>
</svg>
