<?xml version="1.0" encoding="UTF-8" standalone="no"?>
<svg
   data-name="Layer 1"
   width="892"
   height="500.74997"
   viewBox="0 0 892 500.74997"
   version="1.1"
   id="svg95"
   sodipodi:docname="bible_study.svg"
   inkscape:version="1.1.2 (0a00cf5339, 2022-02-04)"
   xmlns:inkscape="http://www.inkscape.org/namespaces/inkscape"
   xmlns:sodipodi="http://sodipodi.sourceforge.net/DTD/sodipodi-0.dtd"
   xmlns="http://www.w3.org/2000/svg"
   xmlns:svg="http://www.w3.org/2000/svg">
  <defs
     id="defs99" />
  <sodipodi:namedview
     id="namedview97"
     pagecolor="#ffffff"
     bordercolor="#666666"
     borderopacity="1.0"
     inkscape:pageshadow="2"
     inkscape:pageopacity="0.0"
     inkscape:pagecheckerboard="0"
     showgrid="false"
     inkscape:zoom="1.5"
     inkscape:cx="436"
     inkscape:cy="250.66667"
     inkscape:window-width="2560"
     inkscape:window-height="1347"
     inkscape:window-x="0"
     inkscape:window-y="0"
     inkscape:window-maximized="1"
     inkscape:current-layer="svg95" />
  <path
     id="rect93"
     style="fill:#cbcbcb;stroke-width:10.6445"
     d="m 332.29724,18.39106 c 0,0 83.82641,-10.3961828 125.98421,-10.4509961 C 501.8037,7.8834766 588.37443,18.39106 588.37443,18.39106 v 268.16962 c 0,0 -80.72001,-19.36876 -121.96795,-19.6619 -45.2419,-0.32153 -134.10924,19.6619 -134.10924,19.6619 z"
     sodipodi:nodetypes="caccacc" />
  <path
     id="b2aec908-dac2-485e-9341-1f8763a52ddc-1398"
     data-name="Path 133"
     d="m 771.57958,471.59712 a 96.07143,96.07143 0 0 1 -4.48837,26.55724 c -0.0607,0.19954 -0.128,0.39608 -0.19349,0.59562 H 750.1494 c 0.0176,-0.17892 0.0358,-0.3785 0.0534,-0.59562 1.11664,-12.838 -5.26293,-90.04234 -12.9611,-103.40438 0.67445,1.08391 35.6365,36.05501 34.3379,76.84714 z"
     fill="#f1f1f1" />
  <path
     id="bc80851e-3fc6-46a5-adb1-be50bb758626-1399"
     data-name="Path 134"
     d="m 770.32281,498.15436 c -0.14011,0.19954 -0.28569,0.39911 -0.4349,0.59562 h -12.565 c 0.0952,-0.16985 0.20561,-0.36939 0.33358,-0.59562 2.07558,-3.746 8.21919,-14.94632 13.92187,-26.55724 6.126,-12.4777 11.751,-25.42849 11.27734,-30.11579 0.14678,1.05655 4.38767,33.28435 -12.53289,56.67303 z"
     fill="#f1f1f1" />
  <path
     id="ac74e0d2-c10f-4860-b119-67c8c5820ae0-1400"
     data-name="Path 133"
     d="m 66.35039,478.58382 a 71.35136,71.35136 0 0 0 3.33348,19.7238 c 0.045,0.14819 0.095,0.29416 0.1437,0.44236 h 12.43881 c -0.01306,-0.13288 -0.02657,-0.28111 -0.03964,-0.44236 -0.82932,-9.53465 3.90872,-66.87356 9.62608,-76.79742 -0.50091,0.80501 -26.46688,26.77773 -25.50243,57.07362 z"
     fill="#f1f1f1" />
  <path
     id="b887613c-750d-48e2-8424-1e5e637b4506-1401"
     data-name="Path 134"
     d="m 67.28379,498.30762 c 0.10405,0.14819 0.21218,0.29642 0.323,0.44236 h 9.33193 c -0.07073,-0.12615 -0.1527,-0.27434 -0.24775,-0.44236 -1.54151,-2.78211 -6.10431,-11.10049 -10.33963,-19.7238 -4.54975,-9.26707 -8.7274,-18.88549 -8.37558,-22.3667 -0.10904,0.78469 -3.25871,24.71995 9.30803,42.0905 z"
     fill="#f1f1f1" />
  <path
     d="M 356.00244,57.47605 353.091,50.02439 c 1.14111,-0.4458 28.40759,-10.98682 68.42358,-16.36377 36.99609,-4.97217 92.11572,-6.15918 144.61279,16.41455 l -3.16015,7.34961 C 512.22552,35.60642 458.73577,36.75535 422.79766,41.56004 c -39.11675,5.23095 -66.523,15.80957 -66.79522,15.91601 z"
     fill="#ffffff"
     id="path10" />
  <path
     d="M 356.00244,85.47605 353.091,78.02439 c 1.14111,-0.4458 28.40759,-10.98682 68.42358,-16.36377 36.99609,-4.97168 92.11572,-6.15869 144.61279,16.41455 l -3.16015,7.34961 C 512.22552,63.60642 458.73577,64.75437 422.79766,69.56004 c -39.11675,5.23095 -66.523,15.80957 -66.79522,15.91601 z"
     fill="#ffffff"
     id="path12" />
  <path
     d="m 356.00244,113.47605 -2.91144,-7.45166 c 1.14111,-0.4458 28.40759,-10.98682 68.42358,-16.36377 36.99609,-4.97217 92.11572,-6.15918 144.61279,16.41455 l -3.16015,7.34961 C 512.22552,91.60642 458.73577,92.75437 422.79766,97.56004 c -39.11675,5.23095 -66.523,15.80957 -66.79522,15.91601 z"
     fill="#ffffff"
     id="path14" />
  <path
     d="m 356.00244,141.47605 -2.91144,-7.45166 c 1.14111,-0.4458 28.40759,-10.98682 68.42358,-16.36377 36.99609,-4.97119 92.11572,-6.15967 144.61279,16.41455 l -3.16015,7.34961 c -50.7417,-21.81836 -104.23145,-20.66992 -140.16956,-15.86474 -39.11675,5.23095 -66.523,15.80957 -66.79522,15.91601 z"
     fill="#ffffff"
     id="path16" />
  <path
     d="m 356.00244,169.47605 -2.91144,-7.45166 c 1.14111,-0.4458 28.40759,-10.98682 68.42358,-16.36377 36.99609,-4.97217 92.11572,-6.15918 144.61279,16.41455 l -3.16015,7.34961 c -50.7417,-21.81885 -104.23145,-20.66992 -140.16956,-15.86474 -39.11675,5.23095 -66.523,15.80957 -66.79522,15.91601 z"
     fill="#ffffff"
     id="path18" />
  <path
     d="m 356.00244,197.47605 -2.91144,-7.45166 c 1.14111,-0.4458 28.40759,-10.98682 68.42358,-16.36377 36.99609,-4.97119 92.11572,-6.15918 144.61279,16.41455 l -3.16015,7.34961 c -50.7417,-21.81885 -104.23145,-20.66943 -140.16956,-15.86474 -39.11675,5.23095 -66.523,15.80957 -66.79522,15.91601 z"
     fill="#ffffff"
     id="path20" />
  <path
     d="m 562.71318,252.51353 1.04786,-25.4511 35.9462,-71.46937 a 10.36837,10.36837 0 0 1 4.70375,-4.67666 10.48992,10.48992 0 0 1 8.1044,-0.52916 10.48617,10.48617 0 0 1 6.5397,6.62761 10.84685,10.84685 0 0 1 0.45528,2.03538 10.38654,10.38654 0 0 1 -1.04237,5.97876 l -35.995,71.56615 z"
     fill="#f0df0f"
     id="path26" />
  <path
     d="m 608.8877,150.31528 -39.01961,77.58 -2.975,-1.4963 37.739,-75.03389 a 9.94459,9.94459 0 0 1 4.25561,-1.04981 z"
     fill="#3f3d56"
     id="path28" />
  <path
     d="m 619.0142,159.11358 -37.53234,74.623 -2.975,-1.49629 38.93871,-77.41917 a 9.99773,9.99773 0 0 1 1.1347,2.35045 10.32774,10.32774 0 0 1 0.43393,1.94201 z"
     fill="#3f3d56"
     id="path30" />
  <path
     d="m 615.27773,152.45466 -39.451,78.43763 -2.975,-1.4963 39.50037,-78.53588 a 9.68811,9.68811 0 0 1 1.2287,0.51722 10.19806,10.19806 0 0 1 1.69693,1.07733 z"
     fill="#3f3d56"
     id="path32" />
  <path
     d="m 567.226,248.23722 -3.96976,3.19722 0.33277,-8.42931 c 1.36299,0.47286 2.83864,2.5247 3.63699,5.23209 z"
     fill="#3f3d56"
     id="path34" />
  <path
     d="m 255.67444,340.10387 -4.75244,-14.41554 5.063,-47.401 a 6.17835,6.17835 0 0 1 1.64294,-3.59484 6.25081,6.25081 0 0 1 4.40941,-1.99459 6.24846,6.24846 0 0 1 5.0374,2.32533 6.46275,6.46275 0 0 1 0.68075,1.0398 6.18914,6.18914 0 0 1 0.67227,3.55332 l -5.06981,47.46525 z"
     fill="#f0df0f"
     id="path36" />
  <path
     d="m 259.99876,273.41845 -5.49583,51.45382 -1.97311,-0.21075 5.31546,-49.76514 a 5.92579,5.92579 0 0 1 2.15348,-1.47793 z"
     fill="#3f3d56"
     id="path38" />
  <path
     d="m 267.49195,276.20239 -5.28635,49.4926 -1.97311,-0.21075 5.48443,-51.34714 a 5.95733,5.95733 0 0 1 1.12577,1.07307 6.15337,6.15337 0 0 1 0.64926,0.99222 z"
     fill="#3f3d56"
     id="path40" />
  <path
     d="m 264.01153,273.27178 -5.55653,52.02261 -1.97312,-0.21075 5.56355,-52.08778 a 5.77252,5.77252 0 0 1 0.79378,0.0308 6.0769,6.0769 0 0 1 1.17232,0.24509 z"
     fill="#3f3d56"
     id="path42" />
  <path
     d="m 257.29481,336.77238 -1.54377,2.61574 -1.582,-4.77138 c 0.85945,-0.0221 2.11278,0.81294 3.12577,2.15564 z"
     fill="#3f3d56"
     id="path44" />
  <g
     id="f2202155-5d0d-4949-a3af-453985752dd6"
     data-name="Group 23"
     transform="translate(-60)">
    <path
       id="bb56e1bb-a377-463a-b777-e3f2ac15f40f-1402"
       data-name="Path 385"
       d="m 904.43982,522.824 a 8.3053512,8.3053512 0 1 1 -14.42,-8.24494 q 0.0278,-0.0485 0.0562,-0.0968 a 8.9384,8.9384 0 0 1 0.78233,-1.10977 l -6.98631,-49.79568 -0.20922,-1.49188 -1.4191,-10.1611 -0.20922,-1.46457 0.77323,0.0364 13.536,0.61857 3.62961,0.16374 0.45484,9.2696 2.57439,52.11534 a 8.29444,8.29444 0 0 1 1.43729,10.16107 z"
       transform="translate(-154,-199.62501)"
       fill="#ffb8b8" />
    <path
       id="a248d591-cba6-4901-9d10-c9b24d625163-1403"
       data-name="Path 386"
       d="m 883.70282,462.53612 17.18834,-1.57647 a 3.39309,3.39309 0 0 0 3.06015,-3.67235 l -3.18387,-35.743 a 13.032022,13.032022 0 0 0 -25.96079,2.3177 q 0.033,0.36922 0.0869,0.73608 l 5.15422,35.05894 a 3.38765,3.38765 0 0 0 3.34579,2.89368 2.40171,2.40171 0 0 0 0.30928,-0.0146 z"
       transform="translate(-154,-199.62501)"
       fill="#cbcbcb" />
    <path
       id="f743e301-5bba-4392-b658-4efdfb4065cc-1404"
       data-name="Path 387"
       d="m 896.73121,433.66028 a 23.939,23.939 0 0 0 -8.80476,-27.55227 c -6.48144,-4.43467 -15.35078,-6.02661 -24.90239,5.34435 a 118.91248,118.91248 0 0 0 -24.10642,47.758 l 39.11608,6.36773 c 0,0 13.3022,-16.26048 18.69749,-31.91781 z"
       transform="translate(-154,-199.62501)"
       fill="#cbcbcb" />
    <path
       id="eac80286-6d9c-481f-b372-04b3b845d333-1405"
       data-name="Path 388"
       d="m 833.466,689.83059 h -11.15267 l -5.30524,-43.0168 h 16.45968 z"
       transform="translate(-154,-199.62501)"
       fill="#ffb8b8" />
    <path
       id="e474a022-de70-4f17-bf9b-ca694d09b1b4-1406"
       data-name="Path 389"
       d="M 800.80766,700.18545 H 835.8584 V 686.6431 H 814.35 a 13.54235,13.54235 0 0 0 -13.54235,13.54235 z"
       transform="translate(-154,-199.62501)"
       fill="#2f2e41" />
    <path
       id="a9ae19c7-51aa-4dd0-9022-ef91b49440e0-1407"
       data-name="Path 390"
       d="m 925.15587,680.10342 -10.58863,3.50046 -18.5392,-39.178 15.62824,-5.16607 z"
       transform="translate(-154,-199.62501)"
       fill="#ffb8b8" />
    <path
       id="bdf88be3-aecd-443e-97f8-a32ede953949-1408"
       data-name="Path 391"
       d="m 897.39522,700.18535 33.28,-10.99986 -4.25,-12.85819 -20.42179,6.7499 a 13.54236,13.54236 0 0 0 -8.60824,17.10815 z"
       transform="translate(-154,-199.62501)"
       fill="#2f2e41" />
    <circle
       id="e601451a-496c-4b1c-9fe2-c3a71e9d5111"
       data-name="Ellipse 65"
       cx="718.17633"
       cy="172.86134"
       r="22.34256"
       fill="#ffb8b8" />
    <path
       id="fd5880a1-dddd-4cd5-886d-5f97a9f21c4e-1409"
       data-name="Path 392"
       d="m 852.61373,677.85651 10.35666,-68.35765 a 3.18387,3.18387 0 0 1 6.2422,-0.27289 l 15.772,65.14374 a 4.12355,4.12355 0 0 0 4.62841,3.07929 l 43.50529,-6.99175 a 4.09361,4.09361 0 0 0 3.26845,-5.23064 L 879.65843,478.19712 a 3.184,3.184 0 0 1 -0.0555,-1.63741 l 1.88849,-8.18709 a 4.079,4.079 0 0 0 -2.11682,-4.56112 c -7.725,-3.94164 -27.29029,-12.136 -42.05525,-3.16022 a 4.14,4.14 0 0 0 -1.89121,2.66263 l -44.31583,208.28857 a 4.09357,4.09357 0 0 0 3.63868,4.92952 l 53.44986,4.78674 q 0.18191,0.0163 0.36386,0.0164 a 4.10082,4.10082 0 0 0 4.04624,-3.47952 z"
       transform="translate(-154,-199.62501)"
       fill="#2f2e41" />
    <path
       id="acdc6559-e36c-4b0b-aac1-c1a10856fa7d-1410"
       data-name="Path 393"
       d="m 886.99131,356.70074 a 16.9016,16.9016 0 0 1 -4.41647,-3.83884 5.731,5.731 0 0 1 -0.88239,-5.549 c 1.12891,-2.4907 4.48288,-3.27484 7.08274,-2.42973 2.59986,0.84511 4.60751,2.88549 6.50691,4.85131 1.6729,1.72838 3.394,3.54046 4.18452,5.81373 0.79052,2.27327 0.3857,5.156 -1.5883,6.536 -1.93761,1.35361 -4.723,0.79961 -6.58606,-0.654 a 16.8,16.8 0 0 1 -4.11628,-5.70366 z"
       transform="translate(-154,-199.62501)"
       fill="#2f2e41" />
    <path
       id="a8902353-3630-4aaa-9386-a524a4077d2f-1411"
       data-name="Path 394"
       d="m 894.5589,350.33484 c 0.12372,-6.295 7.29925,-10.80968 13.49688,-9.69352 6.19763,1.11616 10.96068,6.39958 13.34495,12.227 5.03778,12.31247 1.25626,26.36151 -3.59777,38.75222 -4.85403,12.39071 -10.86154,24.9606 -10.1529,38.24552 a 39.95755,39.95755 0 0 0 23.21039,33.658 c -6.99359,3.17021 -15.35352,-0.10461 -21.23094,-5.04689 -13.052,-10.97525 -18.08982,-30.516 -11.97224,-46.43353 3.01739,-7.85142 8.33535,-14.56845 12.48713,-21.88317 4.15178,-7.31472 7.19826,-15.93572 5.05416,-24.06911 -2.1441,-8.13339 -11.26635,-14.71767 -19.065,-11.57112 z"
       transform="translate(-154,-199.62501)"
       fill="#2f2e41" />
    <path
       id="b05157c8-b93b-43b3-a4ba-0cfdfe0a562e-1412"
       data-name="Path 395"
       d="m 870.83638,382.40093 c 1.94762,-3.29122 3.91161,-7.61218 0.353,-10.48948 a 7.33564,7.33564 0 0 0 -5.50354,-1.45549 c -4.0135,0.484 -8.38449,0.68317 -12.26972,-0.775 a 11.502,11.502 0 0 1 -6.67249,-5.99568 c -2.00128,-4.75215 0.50578,-10.52676 4.69848,-13.53052 a 15.82834,15.82834 0 0 1 17.51854,-0.3102 c 5.43077,-2.39881 12.01955,-1.33176 16.95363,1.97035 4.93408,3.30211 8.30989,8.59006 10.1438,14.23643 a 27.47766,27.47766 0 0 1 0.83964,15.11426 22.46169,22.46169 0 0 1 -13.93264,15.3544 8.08884,8.08884 0 0 1 -7.98877,-1.18256 15.02706,15.02706 0 0 1 -4.0426,-5.92564 c -0.74139,-2.4898 -1.1371,-5.25248 -0.0973,-7.01087 z"
       transform="translate(-154,-199.62501)"
       fill="#2f2e41" />
    <path
       id="fb245157-e4e6-4551-ad6a-dca5f4b0f94b-1413"
       data-name="Path 397"
       d="m 804.55552,402.33738 a 9.57347,9.57347 0 0 1 0.21741,1.49189 l 39.077,22.54361 9.49794,-5.46805 10.12561,13.25579 -15.87386,11.31455 a 7.27742,7.27742 0 0 1 -8.7329,-0.21288 l -40.29866,-31.78953 a 9.55158,9.55158 0 1 1 5.982,-11.13535 z"
       transform="translate(-154,-199.62501)"
       fill="#ffb8b8" />
    <path
       id="b7c0657c-f78e-4619-b8ae-65b0c7791644-1414"
       data-name="Path 398"
       d="m 845.15712,427.44082 12.63,16.36871 a 4.09355,4.09355 0 0 0 6.1858,0.33929 L 878.27025,429.302 a 11.371,11.371 0 1 0 -13.57752,-18.24405 q -0.18541,0.138 -0.36509,0.28341 l -17.93154,10.02647 a 4.09358,4.09358 0 0 0 -1.24172,6.073 z"
       transform="translate(-154,-199.62501)"
       fill="#cbcbcb" />
  </g>
  <polygon
     points="220.675,488.808 226.443,442.047 208.55,442.048 208.552,488.809 "
     fill="#a0616a"
     id="polygon61"
     transform="translate(20)" />
  <path
     d="m 225.45946,484.85062 23.87519,-10e-4 h 10e-4 a 15.216,15.216 0 0 1 15.21515,15.2149 v 0.49443 l -39.09058,0.001 z"
     fill="#2f2e41"
     id="path63" />
  <polygon
     points="126.143,485.373 138.836,439.999 123.121,437.325 114.156,483.561 "
     fill="#a0616a"
     id="polygon65"
     transform="translate(20)" />
  <path
     d="m 131.68954,479.18488 23.60707,3.56811 9.5e-4,1.5e-4 a 15.216,15.216 0 0 1 12.76973,17.31842 l -0.0739,0.48888 -38.65154,-5.84216 z"
     fill="#2f2e41"
     id="path67" />
  <path
     d="m 171.53509,257.07023 13.46077,3.52685 -0.89548,21.82368 -0.111,39.7342 a 7.96294,7.96294 0 1 1 -10.53872,1.32422 l -4.13638,-39.87975 z"
     fill="#a0616a"
     id="path69" />
  <path
     d="m 169.192,232.0732 a 10.9883,10.9883 0 0 1 6.79265,-9.7718 10.27307,10.27307 0 0 1 11.12014,1.78846 9.79485,9.79485 0 0 1 3.265,7.57486 c 0.0355,12.78474 -2.85071,31.41963 -2.87992,31.606 l -0.0461,0.29647 -19.67517,6.62559 z"
     fill="#cbcbcb"
     id="path71" />
  <path
     d="m 204.37211,268.36446 30.09365,-7.78983 13.91083,46.85 0.49443,174.53462 -23.0127,-0.144 -9.61983,-141.26361 -61.30962,130.53008 -24.72161,-2.96659 53.89312,-139.92436 c 0,0 -2.96659,-24.72162 6.42762,-37.08243 l -1.97773,-12.85524 z"
     fill="#2f2e41"
     id="path73" />
  <path
     d="m 184.08045,280.02059 a 4.61107,4.61107 0 0 1 -0.9838,-3.70921 l -13.72677,-41.18081 a 10.47677,10.47677 0 0 1 2.88958,-11.0581 l 5.959,-5.41654 4.03827,-16.15307 23.21007,5.67342 -1.9123,7.64922 10.50427,-1.90917 22.12488,49.27714 -46.24681,18.4852 -2.27757,0.0357 a 4.61041,4.61041 0 0 1 -3.57882,-1.69381 z"
     fill="#cbcbcb"
     id="path75" />
  <path
     d="m 216.29546,245.25071 13.26156,-4.21451 10.90865,18.92291 21.14543,33.64059 a 7.963,7.963 0 1 1 -8.19893,6.75245 l -24.81288,-31.49326 z"
     fill="#a0616a"
     id="path77" />
  <path
     d="m 200.95343,225.37615 a 10.987,10.987 0 0 1 0.51761,-11.88858 10.2786,10.2786 0 0 1 10.35411,-4.43251 9.79511,9.79511 0 0 1 6.80835,4.65655 c 6.86362,10.78577 14.38537,28.07835 14.46045,28.2512 l 0.11926,0.27523 -13.08676,16.11637 z"
     fill="#cbcbcb"
     id="path79" />
  <circle
     cx="199.42914"
     cy="181.05591"
     r="18.441231"
     fill="#a0616a"
     id="circle81" />
  <circle
     cx="166.83949"
     cy="155.51358"
     r="17.763599"
     fill="#2f2e41"
     id="circle83" />
  <path
     d="m 151.51745,170.22299 a 17.76455,17.76455 0 0 0 27.43172,-9.32737 17.76458,17.76458 0 1 1 -34.652,-7.28472 17.758,17.758 0 0 0 7.22028,16.61209 z"
     fill="#2f2e41"
     id="path85" />
  <path
     d="m 221.62048,170.24272 c -3.10107,-5.5518 -4.28766,-7.87094 -8.28612,-11.24692 -3.53584,-2.98572 -7.885,-3.86253 -11.393,-1.0335 a 21.00834,21.00834 0 1 0 12.67583,19.28369 21.18256,21.18256 0 0 0 -0.14313,-2.37544 c 3.04928,-0.42822 4.09714,-4.19956 7.14642,-4.62783 z"
     fill="#2f2e41"
     id="path87" />
  <path
     d="M536,700.375H155a1,1,0,0,1,0-2H536a1,1,0,0,1,0,2Z"
     transform="translate(-154 -199.62501)"
     fill="#cbcbcb"
     id="path89" />
  <path
     d="M1045,700.375H664a1,1,0,0,1,0-2h381a1,1,0,0,1,0,2Z"
     transform="translate(-154 -199.62501)"
     fill="#cbcbcb"
     id="path91" />
  <path
     d="m 381.94341,244.36882 c 0.65537,-4.1371 2.37578,-7.1273 5.69367,-9.74886 5.52981,-4.42385 11.55118,-9.01153 12.08368,-16.6304 0.73729,-10.11753 -6.30809,-15.56544 -15.89311,-15.77024 -10.5681,-0.20479 -18.88334,5.81655 -19.70255,16.71236 l 11.59214,-0.0818 c 0.77825,-3.89138 3.19499,-7.16829 7.53692,-7.04541 3.9733,0.0818 5.16117,3.03115 4.58772,6.63579 -0.73733,4.62865 -4.91539,7.61887 -8.31521,10.36328 -5.16117,4.1781 -7.2502,9.05253 -7.70078,15.6064 z m -13.886,12.78005 c 0.0818,3.6456 2.94924,6.18521 6.51288,6.14425 3.68656,-0.0818 6.47196,-2.82636 6.39004,-6.55387 -0.0818,-3.64557 -2.99019,-6.18522 -6.55387,-6.1033 -3.68656,0.0818 -6.43097,2.82636 -6.34905,6.51292 z"
     id="path14292"
     style="font-style:italic;font-weight:bold;font-size:26.6667px;font-family:Roboto;-inkscape-font-specification:'Roboto Bold Italic';fill:#f0df0f;stroke-width:19.1667" />
  <path
     d="m 460.11477,235.79262 c 0.65537,-4.1371 2.37578,-7.1273 5.69367,-9.74886 5.52981,-4.42385 11.55118,-9.01153 12.08368,-16.6304 0.73729,-10.11753 -6.30809,-15.56544 -15.89311,-15.77024 -10.5681,-0.20479 -18.88334,5.81655 -19.70255,16.71236 l 11.59214,-0.0818 c 0.77825,-3.89138 3.19499,-7.16829 7.53692,-7.04541 3.9733,0.0818 5.16117,3.03115 4.58772,6.63579 -0.73733,4.62865 -4.91539,7.61887 -8.31521,10.36328 -5.16117,4.1781 -7.2502,9.05253 -7.70078,15.6064 z m -13.886,12.78005 c 0.0818,3.6456 2.94924,6.18521 6.51288,6.14425 3.68656,-0.0818 6.47196,-2.82636 6.39004,-6.55387 -0.0818,-3.64557 -2.99019,-6.18522 -6.55387,-6.1033 -3.68656,0.0818 -6.43097,2.82636 -6.34905,6.51292 z"
     id="path14292-3"
     style="font-style:italic;font-weight:bold;font-size:26.6667px;font-family:Roboto;-inkscape-font-specification:'Roboto Bold Italic';fill:#f0df0f;stroke-width:19.1667" />
  <path
     d="m 531.22536,242.22894 c 0.65537,-4.1371 2.37578,-7.1273 5.69367,-9.74886 5.52981,-4.42385 11.55118,-9.01153 12.08368,-16.6304 0.73729,-10.11753 -6.30809,-15.56544 -15.89311,-15.77024 -10.5681,-0.20479 -18.88334,5.81655 -19.70255,16.71236 l 11.59214,-0.0818 c 0.77825,-3.89138 3.19499,-7.16829 7.53692,-7.04541 3.9733,0.0818 5.16117,3.03115 4.58772,6.63579 -0.73733,4.62865 -4.91539,7.61887 -8.31521,10.36328 -5.16117,4.1781 -7.2502,9.05253 -7.70078,15.6064 z m -13.886,12.78005 c 0.0818,3.6456 2.94924,6.18521 6.51288,6.14425 3.68656,-0.0818 6.47196,-2.82636 6.39004,-6.55387 -0.0818,-3.64557 -2.99019,-6.18522 -6.55387,-6.1033 -3.68656,0.0818 -6.43097,2.82636 -6.34905,6.51292 z"
     id="path14292-6"
     style="font-style:italic;font-weight:bold;font-size:26.6667px;font-family:Roboto;-inkscape-font-specification:'Roboto Bold Italic';fill:#f0df0f;stroke-width:19.1667" />
</svg>
