<?xml version="1.0" encoding="UTF-8" standalone="no"?>
<svg
   data-name="Layer 1"
   width="881.50024"
   height="636.57254"
   viewBox="0 0 881.50024 636.57254"
   version="1.1"
   id="svg96"
   sodipodi:docname="sunday_school.svg"
   inkscape:version="1.1.2 (0a00cf5339, 2022-02-04)"
   xmlns:inkscape="http://www.inkscape.org/namespaces/inkscape"
   xmlns:sodipodi="http://sodipodi.sourceforge.net/DTD/sodipodi-0.dtd"
   xmlns="http://www.w3.org/2000/svg"
   xmlns:svg="http://www.w3.org/2000/svg"
   xmlns:rdf="http://www.w3.org/1999/02/22-rdf-syntax-ns#"
   xmlns:cc="http://creativecommons.org/ns#"
   xmlns:dc="http://purl.org/dc/elements/1.1/">
  <defs
     id="defs100" />
  <sodipodi:namedview
     id="namedview98"
     pagecolor="#ffffff"
     bordercolor="#666666"
     borderopacity="1.0"
     inkscape:pageshadow="2"
     inkscape:pageopacity="0.0"
     inkscape:pagecheckerboard="0"
     showgrid="false"
     inkscape:zoom="0.96750959"
     inkscape:cx="303.35617"
     inkscape:cy="213.95137"
     inkscape:window-width="2560"
     inkscape:window-height="1347"
     inkscape:window-x="0"
     inkscape:window-y="0"
     inkscape:window-maximized="1"
     inkscape:current-layer="g1357" />
  <title
     id="title2">product_photography</title>
  <path
     d="M386.169,503.17359s1.84982,36.99614-77.07527,82.62469c0,0-.09369.20172,577.75625,0,0,0-65.97642-46.86175-70.29264-99.273"
     transform="translate(-159.24988 -131.71373)"
     opacity="0.2"
     id="path4" />
  <path
     d="M814.1139,476.72487V165.844a17.34639,17.34639,0,0,0,12.99772-16.791v0a17.33921,17.33921,0,0,0-17.33925-17.3392H393.63032a17.33922,17.33922,0,0,0-17.33925,17.3392v0a17.33925,17.33925,0,0,0,17.33925,17.33925h.00377L384,477l-77.3497,98.99783s-.6503.00217,577.75624,0C884.40654,575.99783,884,577,814.1139,476.72487Z"
     transform="translate(-159.24988 -131.71373)"
     fill="#e6e6e6"
     id="path6" />
  <g
     id="g1357"
     transform="matrix(0.54876307,0,0,0.54876307,216.19111,163.24317)">
    <path
       d="m 101.34071,240.42439 a 5.653,5.653 0 0 1 -3.853421,-7.76467 l -14.74,-13.6493 10.1381,-2.48964 12.443001,13.34329 a 5.68369,5.68369 0 0 1 -3.98775,10.56032 z"
       fill="#ffb6b6"
       id="path1220" />
    <path
       d="m 56.360108,203.19803 -15.44982,-45.09888 a 14.26783,14.26783 0 0 1 8.864,-18.10225 v 0 a 14.25264,14.25264 0 0 1 18.718751,11.40364 l 6.17529,41.87151 25.832891,26.45539 -6.794671,9.68138 z"
       fill="#3f3d56"
       id="path1222" />
    <polygon
       points="140.192,415.96 151.222,415.96 156.469,373.418 140.19,373.418 "
       fill="#ffb6b6"
       id="polygon1224"
       transform="translate(-109.3368)" />
    <path
       d="m 27.120618,410.51914 17.43511,-1.04064 v 7.47 l 16.57605,11.448 a 4.666,4.666 0 0 1 -2.65139,8.50572 H 24.922217 Z"
       fill="#2f2e41"
       id="path1226" />
    <path
       d="m 40.491338,216.13138 c 0,0 -3.43856,-3.602 -10.02855,4.90805 -6.088321,7.70612 -5.785621,9.21045 -5.000001,19 0.64,7 -5.63145,42.18191 0.61855,48.16195 l 5.040001,112.68 c 0,0 15.29054,4.29144 16.01054,-2.90857 l 39.479451,-143.28144 -4.71711,-36.63338 z"
       fill="#2f2e41"
       id="path1228" />
    <polygon
       points="222.852,414.894 232.517,409.58 216.619,369.773 202.354,377.616 "
       fill="#ffb6b6"
       id="polygon1230"
       transform="translate(-109.3368)" />
    <path
       d="m 107.62099,411.92533 14.77686,-9.31185 3.5989,6.54585 20.04089,2.04573 a 4.666,4.666 0 0 1 1.77453,8.73087 l -18.18929,10.00045 -4.35934,2.39676 -6.8581,3.77057 z"
       fill="#2f2e41"
       id="path1232" />
    <path
       d="m 25.684857,235.1434 c 0,0 -0.19953,18.15167 -1.8743,28.78386 a 38.89,38.89 0 0 0 5.884731,27.82731 c 3.93332,5.82568 9.72644,11.25648 18.08434,13.48559 l 58.703852,96.3122 c 0,0 15.4665,-3.60617 12.62858,-10.26235 L 84.676929,246.71332 62.894018,216.88446 Z"
       fill="#2f2e41"
       id="path1234" />
    <path
       d="m 25.209857,183.78926 -1.74707,56.25017 58.253552,-16.12072 1.02494,-2.7812 2.49738,-9.47136 c 0,0 -5.77587,-13.62672 -4.59816,-45.35682 l -14.71486,-39.23243 -23.308001,-0.47635 -0.13,0.13 a 63.075,63.075 0 0 0 -17.277781,57.05871 z"
       fill="#3f3d56"
       id="path1236" />
    <path
       d="m 142.39705,206.90679 a 5.653,5.653 0 0 1 -7.2583,-4.73879 l -19.62539,-4.29111 7.476,-7.28622 17.49044,5.192 a 5.68369,5.68369 0 0 1 1.91725,11.12415 z"
       fill="#ffb6b6"
       id="path1238" />
    <path
       d="M 84.752109,197.62684 48.568978,166.58835 a 14.26783,14.26783 0 0 1 -1.53828,-20.09713 v 0 a 14.25262,14.25262 0 0 1 21.916211,0.33815 l 26.55277,32.95918 35.679811,9.70458 -0.94777,11.78977 z"
       fill="#3f3d56"
       id="path1240" />
    <path
       d="m 78.462779,88.64257 a 25.145,25.145 0 1 1 -0.88007,-6.60685 25.145,25.145 0 0 1 0.88007,6.60685 z"
       fill="#ffb8b8"
       id="path1242" />
    <path
       d="m 69.309279,55.54129 c -2.038,-0.0605 -1.3384,-3.902 -2.98037,-5.1275 q -0.012,0.0558 -0.0249,0.11132 a 4.00216,4.00216 0 0 1 -7.648171,0.3263 6.08258,6.08258 0 0 0 -3.862,-4.05153 c -0.10225,3.56059 -2.79555,6.65086 -6.0086,8.18873 -3.21305,1.53787 -6.8766,1.79379 -10.43833,1.84647 -3.56172,0.0526 -7.17472,-0.0666 -10.6286,0.805 -3.453811,0.87154 -6.813291,2.92075 -8.288931,6.16283 -1.4757,3.24208 -0.42281,7.70573 2.80391,9.21464 -2.4997,0.0133 -4.62078,2.076 -5.4851,4.42159 a 17.5571,17.5571 0 0 0 -0.542,7.41887 c 0.70251,9.19517 2.41529,19.09484 9.1109,25.43625 5.103001,4.83307 12.407161,6.78 19.435511,6.75191 7.02835,-0.0282 5.79256,-0.6742 12.58822,-2.46805 0,0 6.460801,-18.52155 4.83392,-20.34359 -1.62688,-1.822 -2.97817,-4.1535 -2.68374,-6.57835 0.29443,-2.42485 2.90035,-4.597 5.161841,-3.674 -0.38025,-0.9721 -0.66675,-1.15727 -0.84619,-1.10791 a 8.595,8.595 0 0 0 0.29882,-0.845 9.61594,9.61594 0 0 1 6.00542,-6.36825 7.4573,7.4573 0 0 1 8.15078,2.4667 c 7.44124,-6.97875 2.82471,-22.23669 -8.95244,-22.58643 z"
       fill="#2f2e41"
       id="path1244" />
    <path
       d="m 778.58664,470.8766 a 5.65306,5.65306 0 0 0 3.85343,-7.76467 l 14.74,-13.6493 -10.1381,-2.48964 -12.443,13.34329 a 5.68369,5.68369 0 0 0 3.98775,10.56032 z"
       transform="translate(-167.66498,-230.45221)"
       fill="#9e616a"
       id="path1246" />
    <path
       d="m 786.2208,459.861 -6.79467,-9.68138 25.83293,-26.45539 6.17528,-41.87151 a 14.25265,14.25265 0 0 1 18.71876,-11.40364 v 0 a 14.26784,14.26784 0 0 1 8.864,18.10225 l -15.44981,45.09888 z"
       transform="translate(-167.66498,-230.45221)"
       fill="#e6e6e6"
       id="path1248"
       style="fill:#decd87" />
    <polygon
       points="681.409,373.418 681.407,415.96 670.377,415.96 665.13,373.418 "
       fill="#9e616a"
       id="polygon1250" />
    <path
       d="M 855.00516,667.3544 H 821.447 a 4.666,4.666 0 0 1 -2.65138,-8.50572 l 16.576,-11.448 v -7.47 l 17.43512,1.04064 z"
       transform="translate(-167.66498,-230.45221)"
       fill="#2f2e41"
       id="path1252" />
    <path
       d="m 839.436,446.58359 c 0,0 8.92,15.81 15.51,24.32 6.08832,7.70612 5.30416,11.7985 4.51855,21.58805 -0.64,7 0.63145,20.18191 -5.61855,26.16195 l -5.04,112.68 c 0,0 -15.29054,4.29144 -16.01054,-2.90857 L 793.316,485.14358 798.03311,448.5102 Z"
       transform="translate(-167.66498,-230.45221)"
       fill="#2f2e41"
       id="path1254" />
    <polygon
       points="619.245,377.616 598.747,414.894 589.082,409.58 604.981,369.773 "
       fill="#9e616a"
       id="polygon1256" />
    <path
       d="m 761.52191,666.55592 -6.85809,-3.77057 -4.35934,-2.39676 -18.1893,-10.00045 a 4.666,4.666 0 0 1 1.77453,-8.73087 l 20.04089,-2.04573 3.59891,-6.54585 14.77686,9.31185 z"
       transform="translate(-167.66498,-230.45221)"
       fill="#2f2e41"
       id="path1258" />
    <path
       d="m 854.2425,465.59561 c 0,0 0.19953,18.15167 1.8743,28.78386 a 38.89009,38.89009 0 0 1 -5.88473,27.82731 c -3.93332,5.82568 -9.72645,11.25648 -18.08435,13.48559 l -58.70384,96.3122 c 0,0 -15.46651,-3.60617 -12.62859,-10.26235 l 34.43514,-144.57669 21.78291,-29.82886 z"
       transform="translate(-167.66498,-230.45221)"
       fill="#2f2e41"
       id="path1260" />
    <path
       d="m 837.43967,357.18271 -0.12994,-0.13 -23.308,0.47635 -14.71487,39.23243 c 1.17772,31.7301 -4.59815,45.35682 -4.59815,45.35682 l 2.49738,9.47136 -7.72151,46.90192 74.23677,-15.02027 -8.98385,-69.2299 a 63.075,63.075 0 0 0 -17.27783,-57.05871 z"
       transform="translate(-167.66498,-230.45221)"
       fill="#e6e6e6"
       id="path1262"
       style="fill:#decd87" />
    <path
       d="m 737.53031,437.359 a 5.65309,5.65309 0 0 0 7.2583,-4.73879 l 19.62538,-4.29111 -7.476,-7.28622 -17.49045,5.192 a 5.68369,5.68369 0 0 0 -1.91724,11.12415 z"
       transform="translate(-167.66498,-230.45221)"
       fill="#9e616a"
       id="path1264" />
    <path
       d="m 749.69563,431.73511 -0.94777,-11.78977 35.67981,-9.70458 26.55277,-32.95918 a 14.25262,14.25262 0 0 1 21.91621,-0.33815 v 0 a 14.26782,14.26782 0 0 1 -1.53828,20.09713 l -36.18312,31.03849 z"
       transform="translate(-167.66498,-230.45221)"
       fill="#e6e6e6"
       id="path1266"
       style="fill:#decd87" />
    <path
       d="m 802.34464,312.48793 a 25.145,25.145 0 1 1 -0.88007,6.60685 25.145,25.145 0 0 1 0.88007,-6.60685 z"
       transform="translate(-167.66498,-230.45221)"
       fill="#9e616a"
       id="path1268" />
    <path
       d="m 810.61808,285.9935 c 2.038,-0.0605 27.40055,1.24111 30.96227,1.29379 3.56173,0.0526 7.17472,-0.0666 10.6286,0.805 3.45381,0.87154 6.8133,2.92075 8.28893,6.16283 1.4757,3.24208 1.81687,11.29068 2.68119,13.63623 a 17.55694,17.55694 0 0 1 0.542,7.41887 c -0.70252,9.19517 -2.4153,19.09484 -9.11091,25.43625 -5.103,4.83307 -12.40716,6.78 -19.43551,6.75191 -7.02835,-0.0282 -5.79255,-0.6742 -12.58822,-2.46805 0,0 -6.4608,-18.52155 -4.83392,-20.34359 1.62689,-1.822 2.97818,-4.1535 2.68374,-6.57835 -0.29444,-2.42485 -2.90035,-4.597 -5.16184,-3.674 0.38026,-0.9721 0.66676,-1.15727 0.84619,-1.10791 a 8.595,8.595 0 0 1 -0.29882,-0.845 9.61594,9.61594 0 0 0 -6.00542,-6.36825 7.45729,7.45729 0 0 0 -8.15077,2.4667 c -7.44119,-6.97875 -2.82467,-22.23669 8.95249,-22.58643 z"
       transform="translate(-167.66498,-230.45221)"
       fill="#2f2e41"
       id="path1270" />
    <path
       d="m 517.84957,161.60588 c -5.71,6.06 -14.01,9.27 -22.31,9.91 a 43.63512,43.63512 0 0 1 -46.98,-42.97 c -0.09,-6.7 1.37,-13.37 1.04,-20.07 -0.82,-16.55 -12.44,-31.59 -11.2,-48.12 l 7.96,2.47 q -8.01,-2.52 -16.02,-5.04 a 20.85262,20.85262 0 0 1 -5.22,-2.19 c -4.66,-3.06 -6.03,-9.81 -3.79,-14.92 2.25,-5.11 7.43994,-8.53 12.91,-9.67 a 29.22641,29.22641 0 0 1 11.26,0.07 44.765,44.765 0 0 1 5.26,1.27 34.91334,34.91334 0 0 1 30.31,4.12 34.81452,34.81452 0 0 1 12.18,14.75 34.15167,34.15167 0 0 1 2.87,11.88995 c 0.6,11.16 -4.16,22.72 -3.48,33.5 a 25.35108,25.35108 0 0 0 1.95,8.57 c 5.9,13.73 24.45,19.16 29.1,33.37 2.59,7.91009 -0.12997,17.00006 -5.84,23.06005 z"
       fill="#2f2e41"
       id="path1274" />
    <polygon
       points="491.573,317.486 522.187,347.025 514.529,354.962 480.27,329.2 "
       fill="#9e616a"
       id="polygon1276"
       transform="translate(0,29.15648)" />
    <path
       d="m 541.37779,386.45252 -5.434,5.63225 -3.45411,3.58014 -14.41226,14.93808 a 4.666,4.666 0 0 1 -7.96215,-3.99765 l 3.27052,-19.87778 -5.37582,-5.1866 12.85458,-11.8248 z"
       fill="#2f2e41"
       id="path1278" />
    <polygon
       points="430.053,323.848 448.577,362.145 438.648,366.948 415.399,330.936 "
       fill="#9e616a"
       id="polygon1280"
       transform="translate(0,29.15648)" />
    <path
       d="m 463.03738,407.57027 -7.04525,3.40807 -4.47832,2.16634 -18.6857,9.039 a 4.666,4.666 0 0 1 -6.09074,-6.50231 l 9.93663,-17.52386 -3.25291,-6.7245 16.14834,-6.6556 z"
       fill="#2f2e41"
       id="path1282" />
    <path
       d="m 464.77102,192.28786 c 0,0 8.92,15.81 15.51,24.32 6.08832,7.70612 5.30416,11.7985 4.51855,21.58805 -0.64,7 0.63145,20.18191 -5.61855,26.16195 l -2.73146,61.0674 33.69145,38.6126 c 0,0 -13.62144,19.35806 -14.34144,12.15805 l -49.87873,-46.37864 -27.26982,-98.96942 4.71711,-36.63338 z"
       fill="#2f2e41"
       id="path1284" />
    <path
       d="m 479.57752,211.29988 c 0,0 0.19953,18.15167 1.8743,28.78386 a 38.89009,38.89009 0 0 1 -5.88473,27.82731 c -3.93332,5.82568 -9.72645,11.25648 -18.08435,13.48559 l -28.57824,46.88677 15.8744,45.42543 c 0,0 -22.81723,13.14326 -19.97931,6.48707 l -27.61881,-59.0611 23.40467,-98.265 21.78291,-29.82886 z"
       fill="#2f2e41"
       id="path1286" />
    <path
       d="m 462.77469,102.88698 -0.12994,-0.13 -23.308,0.47635 -14.71487,39.23243 c 1.17772,31.7301 -4.59815,45.35682 -4.59815,45.35682 l 2.49738,9.47136 1.02494,2.7812 65.49032,29.10045 -8.98385,-69.2299 a 63.075,63.075 0 0 0 -17.27783,-57.05871 z"
       fill="#f0df0f"
       id="path1288" />
    <path
       d="m 362.86533,183.06327 a 5.65309,5.65309 0 0 0 7.2583,-4.73879 l 19.62538,-4.29111 -7.476,-7.28622 -17.49045,5.192 a 5.68369,5.68369 0 0 0 -1.91724,11.12415 z"
       fill="#9e616a"
       id="path1290" />
    <path
       d="m 375.03065,177.43938 -0.94777,-11.78977 35.67981,-9.70458 26.55277,-32.95918 a 14.25262,14.25262 0 0 1 21.91621,-0.33815 v 0 a 14.26782,14.26782 0 0 1 -1.53828,20.09713 l -36.18312,31.03849 z"
       fill="#f0df0f"
       id="path1292" />
    <path
       d="m 513.8794,230.88715 a 5.65306,5.65306 0 0 0 -3.98522,-7.69786 l -2.29673,-19.95731 -8.00076,6.70576 3.40762,17.92374 a 5.68368,5.68368 0 0 0 10.87509,3.02567 z"
       fill="#9e616a"
       id="path1294" />
    <path
       d="m 509.5068,218.21816 -11.82532,-0.24208 -6.06907,-36.47457 -30.12332,-29.73118 a 14.25264,14.25264 0 0 1 1.86647,-21.83921 v 0 a 14.26784,14.26784 0 0 1 19.84074,3.55055 l 27.24435,39.11971 z"
       fill="#f0df0f"
       id="path1296" />
    <path
       d="m 427.67966,58.1922 a 25.145,25.145 0 1 1 -0.88007,6.60685 25.145,25.145 0 0 1 0.88007,-6.60685 z"
       fill="#9e616a"
       id="path1298" />
    <path
       d="m 492.63961,96.60588 -39.86,-8.15 c -1.45,-7.65 11.94,-17.96 15.42,-30.53 -6.22,-0.75 -14.55005,-2 -21.76,-3.63 -7.21,-1.64 -13.31,-3.65 -15.07,-5.94 a 24.01676,24.01676 0 0 1 28.33,-18.71 l 4.88995,1 c 0.16,0.03 0.32,0.07 0.48005,0.11 a 23.87959,23.87959 0 0 1 14.65,10.05 56.812,56.812 0 0 1 13.53,10.41 34.15167,34.15167 0 0 1 2.87,11.88995 c 0.59996,11.16009 -4.16005,22.72009 -3.48,33.50005 z"
       fill="#2f2e41"
       id="path1302" />
  </g>
  <ellipse
     cx="458.1012"
     cy="399.55668"
     rx="127.40581"
     ry="9.80045"
     opacity="0.2"
     id="ellipse8" />
  <polygon
     points="234.38 34.679 654.864 46.925 655.046 33.925 234.38 34.679"
     opacity="0.2"
     id="polygon10" />
  <rect
     x="437.2258"
     y="92.518181"
     width="23.174919"
     height="4.7058301"
     rx="1.47923"
     fill="#e6e8ec"
     id="rect14" />
  <circle
     cx="466.57397"
     cy="94.871094"
     r="2.6691599"
     fill="#e6e8ec"
     id="circle16" />
  <path
     d="M386.384,177.90064l-62.07389.38555S222.13874,232.649,293.85145,345.23027c0,0,29.302-6.93994,61.68834,16.9643C355.53979,362.19457,374.43185,182.14171,386.384,177.90064Z"
     transform="translate(-159.24988 -131.71373)"
     fill="#f0df0f"
     id="path28" />
  <path
     d="M367.919,178.46417c-11.12082,46.45358-23.69259,166.2664-23.69259,166.2664-28.93492-21.3567-55.389-18.09518-60.70289-17.15706a205.62807,205.62807,0,0,0,10.32794,18.1056s29.30193-6.93995,61.68831,16.96429c0,0,18.892-180.05284,30.84419-184.29391Z"
     transform="translate(-159.24988 -131.71373)"
     opacity="0.2"
     id="path30" />
  <polygon
     points="134.216 104.405 128.818 130.623 60.984 118.293 60.961 118.285 59.419 87.441 72.528 87.441 134.216 104.405"
     fill="#3f3d56"
     id="polygon32" />
  <polygon
     points="71.433 87.441 60.984 118.293 60.961 118.285 59.419 87.441 71.433 87.441"
     opacity="0.2"
     id="polygon34" />
  <ellipse
     cx="131.9027"
     cy="115.97185"
     rx="7.71104"
     ry="17.7354"
     fill="#3f3d56"
     id="ellipse36" />
  <path
     d="M251.0552,622.48566a2.35677,2.35677,0,0,1-2.357-2.357v-372.443a2.35695,2.35695,0,1,1,4.7139,0v372.443A2.35677,2.35677,0,0,1,251.0552,622.48566Z"
     transform="translate(-159.24988 -131.71373)"
     fill="#3f3d56"
     id="path38" />
  <path
     d="M283.43888,688.03008a2.35748,2.35748,0,0,1-2.31046-1.90581L248.742,520.09638a2.35705,2.35705,0,0,1,4.2844-1.74377L338.6187,648.90929a2.35722,2.35722,0,0,1-3.94237,2.58529l-79.009-120.51479L285.75486,685.222a2.35672,2.35672,0,0,1-1.86208,2.76481A2.38952,2.38952,0,0,1,283.43888,688.03008Z"
     transform="translate(-159.24988 -131.71373)"
     fill="#3f3d56"
     id="path40" />
  <path
     d="M161.60475,658.72747a2.35706,2.35706,0,0,1-1.96888-3.64867l89.44814-136.485a2.35672,2.35672,0,0,1,3.94237,2.58344l-89.44814,136.485A2.35425,2.35425,0,0,1,161.60475,658.72747Z"
     transform="translate(-159.24988 -131.71373)"
     fill="#3f3d56"
     id="path42" />
  <path
     d="M813.616,177.90064l62.07389.38555S977.86126,232.649,906.14855,345.23027c0,0-29.302-6.93994-61.68834,16.9643C844.46021,362.19457,825.56815,182.14171,813.616,177.90064Z"
     transform="translate(-159.24988 -131.71373)"
     fill="#f0df0f"
     id="path44" />
  <path
     d="M832.081,178.46417c11.12082,46.45358,23.69259,166.2664,23.69259,166.2664,28.93492-21.3567,55.389-18.09518,60.70289-17.15706a205.62807,205.62807,0,0,1-10.32794,18.1056s-29.30193-6.93995-61.68831,16.96429c0,0-18.892-180.05284-30.84419-184.29391Z"
     transform="translate(-159.24988 -131.71373)"
     opacity="0.2"
     id="path46" />
  <polygon
     points="747.284 104.405 752.682 130.623 820.516 118.293 820.539 118.285 822.081 87.441 808.973 87.441 747.284 104.405"
     fill="#3f3d56"
     id="polygon48" />
  <polygon
     points="810.067 87.441 820.516 118.293 820.539 118.285 822.081 87.441 810.067 87.441"
     opacity="0.2"
     id="polygon50" />
  <ellipse
     cx="749.59754"
     cy="115.97185"
     rx="7.71104"
     ry="17.7354"
     fill="#3f3d56"
     id="ellipse52" />
  <path
     d="M948.9448,622.48566a2.35677,2.35677,0,0,1-2.35695-2.357v-372.443a2.35695,2.35695,0,1,1,4.7139,0v372.443A2.35677,2.35677,0,0,1,948.9448,622.48566Z"
     transform="translate(-159.24988 -131.71373)"
     fill="#3f3d56"
     id="path54" />
  <path
     d="M916.56158,688.03008a2.38246,2.38246,0,0,1-.4539-.04327,2.35772,2.35772,0,0,1-1.86254-2.76481l30.087-154.24313-79.0085,120.51571a2.35722,2.35722,0,1,1-3.94237-2.58529l85.59232-130.55668a2.35733,2.35733,0,0,1,4.28486,1.74377l-32.386,166.02789A2.35834,2.35834,0,0,1,916.56158,688.03008Z"
     transform="translate(-159.24988 -131.71373)"
     fill="#3f3d56"
     id="path56" />
  <path
     d="M1038.39479,658.72747a2.35346,2.35346,0,0,1-1.973-1.06523l-89.44814-136.485a2.35672,2.35672,0,0,1,3.94237-2.58344l89.44814,136.485a2.35705,2.35705,0,0,1-1.96934,3.64867Z"
     transform="translate(-159.24988 -131.71373)"
     fill="#3f3d56"
     id="path58" />
  <path
     d="M546.27705,459.002l16.88725-4.70176s6.61464-1.32049,2.5729-14.239-12.05785-9.303-12.05785-9.303l-14.98069,4.35227-5.9145,1.82653,8.32195,11.675.69757,7.78162Z"
     transform="translate(-159.24988 -131.71373)"
     fill="#3f3d56"
     id="path60" />
  <polygon
     points="354.396 293.155 349.098 314.319 376.245 340.629 378.579 341.214 384.805 339.465 390.104 318.302 384.737 312.658 390.223 311.221 378.516 299.856 372.407 301.138 367.507 296.273 370.814 294.951 371.126 293.706 367.12 290.553 354.396 293.155"
     fill="#3f3d56"
     id="polygon62" />
  <polygon
     points="379.831 323.006 376.324 337.011 360.144 321.715 364.196 307.515 379.831 323.006"
     fill="#f0df0f"
     id="polygon64" />
  <polygon
     points="354.396 293.155 353.653 296.123 380.648 322.384 382.982 322.968 389.014 321.336 389.346 321.329 390.104 318.302 384.737 312.658 390.223 311.221 378.516 299.856 372.407 301.138 367.507 296.273 370.814 294.951 371.126 293.706 367.12 290.553 354.396 293.155"
     fill="none"
     stroke="#3f3d56"
     stroke-miterlimit="10"
     id="polygon66" />
  <ellipse
     cx="526.116"
     cy="424.60113"
     rx="1.52396"
     ry="2.24584"
     transform="translate(-172.80352 700.12301) rotate(-75.94348)"
     fill="#f0df0f"
     id="ellipse68" />
  <ellipse
     cx="543.26592"
     cy="447.25101"
     rx="1.52396"
     ry="2.24584"
     transform="translate(-181.79062 733.90811) rotate(-75.94348)"
     fill="#f0df0f"
     id="ellipse70" />
  <path
     d="M557.49712,485.366l-3.68271-12.52121s9.575-22.83278-1.47308-25.04241-11.78467,21.35971-11.78467,21.35971l4.41925,13.99428Z"
     transform="translate(-159.24988 -131.71373)"
     fill="#ffb6b6"
     id="path72" />
  <circle
     cx="329.87286"
     cy="300.0488"
     r="29.257469"
     fill="#ffb6b6"
     id="circle74" />
  <path
     d="m 339.3385,320.70112 c 0,0 1.721,21.51285 6.0236,23.23387 4.3026,1.72102 -46.46774,13.76828 -46.46774,13.76828 l 12.9077,-14.62874 c 0,0 2.58155,-22.37336 -3.442,-27.53644 z"
     fill="#ffb6b6"
     id="path76" />
  <path
     d="M539.82012,478.73709l11.78466-1.47308s13.99429,7.36542,13.99429,16.94045,8.102,25.04241,8.102,25.04241,5.89233,20.62317-7.36542,22.09625-25.04241-22.09625-25.04241-22.09625Z"
     transform="translate(-159.24988 -131.71373)"
     fill="#f0df0f"
     id="path78" />
  <path
     d="M546.449,595.84719s25.779-24.30587,33.14437-22.83279,22.09624,3.68271,22.09624,14.73083-24.30586,36.82707-24.30586,36.82707-18.41354,40.50978-36.09054,41.98287a305.05046,305.05046,0,0,0-34.61744,5.15579s8.10195,29.46165,3.6827,37.56361-21.3597,17.677-22.83278,16.94045-22.09625-19.88662-30.93474-47.13865-14.73083-47.87519-6.62888-49.34828S546.449,595.84719,546.449,595.84719Z"
     transform="translate(-159.24988 -131.71373)"
     fill="#2f2e41"
     id="path80" />
  <path
     d="M599.48,585.53561s5.15579-.73655,4.41925,11.78466-2.94617,57.45023-6.62888,66.28873-4.41924,19.15008-2.94616,22.83278,4.41925,9.575-.73654,10.31159-26.51549-2.20963-28.72512-2.94617-4.41925-13.25775-2.94617-13.25775,5.1558-.73654,3.68271-5.89233-2.20962-5.15579,0-6.62887,8.102-3.68271,6.62888-5.15579-2.94617-36.09053-2.94617-36.09053Z"
     transform="translate(-159.24988 -131.71373)"
     fill="#2f2e41"
     id="path82" />
  <path
     d="M592.11456,694.54374s12.52121-3.68271,13.99429,4.41925c0,0,2.20963,12.5212-7.36541,16.94045a118.32886,118.32886,0,0,0-17.677,10.31158s-15.46737,5.89234-16.20391-1.47308S567.8087,690.861,567.8087,690.861Z"
     transform="translate(-159.24988 -131.71373)"
     fill="#2f2e41"
     id="path84" />
  <path
     d="M508.88538,703.38224l-23.56933-19.15008s4.41925,23.56933-1.47308,27.98858l-2.69154,7.86887,7.53706,6.16543S511.83155,722.53232,508.88538,703.38224Z"
     transform="translate(-159.24988 -131.71373)"
     fill="#2f2e41"
     id="path86" />
  <path
     d="M475.741,670.97441s15.46738,4.41925,13.25775,19.88662-5.0427,32.27154-5.0427,32.27154-.84963,41.38261-11.89775,44.32877-13.99429-2.94616-13.99429-2.94616-12.55861-32.33761-8.8385-41.98286c4.503-11.67475,10.99166-24.78374,8.8385-28.72512C455.94538,689.92894,459.5371,668.76479,475.741,670.97441Z"
     transform="translate(-159.24988 -131.71373)"
     fill="#2f2e41"
     id="path88" />
  <path
     d="M466.90252,467.689s5.89233.73654,15.46737,2.20963,16.20391-5.89233,21.3597-4.41925S551.60478,477.264,551.60478,477.264l-6.62887,50.82136s8.102,58.92332,6.62887,69.2349,17.677,8.8385,6.62888,21.3597-30.1982,23.56933-69.2349,19.88662-44.19249-2.94617-44.19249-8.8385,8.8385-55.97715,5.89234-60.3964-8.8385-9.575-5.89234-14.73083,5.89234-8.10195,1.47309-12.5212-6.62888-8.8385-6.62888-11.04812-10.31158-38.30016-10.31158-38.30016,4.41925-17.677,9.575-18.41353,9.575-4.41925,13.25775-4.41925,5.89233.73654,8.10195,0Z"
     transform="translate(-159.24988 -131.71373)"
     fill="#f0df0f"
     id="path90" />
  <path
     d="M537.53373,421.50066c-.3789-1.70244-2.23382-7.394-6.005-8.78258-2.75915-1.01592-7.893,1.1306-10.45.77452l-.32964-.93652a21.25135,21.25135,0,0,0-1.36723-5.37631A27.51307,27.51307,0,0,0,504.28694,391.793c-8.42185-3.52064-21.743-6.43171-33.30044,2.7935-15.87479,12.67135-13.07748,31.63221-11.924,36.893q.28866,1.31635.49457,2.64938c.71141,4.634,2.76165,5.18683,2.76165,5.18683s-.04415-.13353-.11624-.37719l14.33856,1.39577,7.75206-1.323c.12968.7581.18,1.20626.18,1.20626,22.62147-3.45775,35.78554-15.373,37.92333-17.43929,1.87926,1.24589,5.3793,3.2803,8.77353,3.7266C536.14106,427.15845,537.91264,423.20309,537.53373,421.50066ZM479.247,432.89239l-18.21615-.66259c-.25824-4.97225,1.02581-10.78653,8.34792-11.08323,7.05976-.28607,10.91322,5.45367,12.95533,10.70894Z"
     transform="translate(-159.24988 -131.71373)"
     fill="#2f2e41"
     id="path92" />
  <metadata
     id="metadata917">
    <rdf:RDF>
      <cc:Work
         rdf:about="">
        <dc:title>product_photography</dc:title>
      </cc:Work>
    </rdf:RDF>
  </metadata>
</svg>
