<?xml version="1.0" encoding="UTF-8" standalone="no"?>
<!-- Created with Inkscape (http://www.inkscape.org/) -->

<svg
   width="1024"
   height="848"
   viewBox="0 0 270.93333 224.36667"
   version="1.1"
   id="svg5"
   inkscape:version="1.1.2 (0a00cf5339, 2022-02-04)"
   sodipodi:docname="other_plans.svg"
   inkscape:export-filename="other_plans.png"
   inkscape:export-xdpi="96"
   inkscape:export-ydpi="96"
   xmlns:inkscape="http://www.inkscape.org/namespaces/inkscape"
   xmlns:sodipodi="http://sodipodi.sourceforge.net/DTD/sodipodi-0.dtd"
   xmlns="http://www.w3.org/2000/svg"
   xmlns:svg="http://www.w3.org/2000/svg">
  <sodipodi:namedview
     id="namedview7"
     pagecolor="#ffffff"
     bordercolor="#666666"
     borderopacity="1.0"
     inkscape:pageshadow="2"
     inkscape:pageopacity="0.0"
     inkscape:pagecheckerboard="0"
     inkscape:document-units="px"
     showgrid="false"
     units="px"
     inkscape:zoom="0.54866745"
     inkscape:cx="437.42343"
     inkscape:cy="581.40865"
     inkscape:window-width="2560"
     inkscape:window-height="1347"
     inkscape:window-x="0"
     inkscape:window-y="0"
     inkscape:window-maximized="1"
     inkscape:current-layer="layer1"
     inkscape:snap-page="true"
     borderlayer="true" />
  <defs
     id="defs2">
    <filter
       style="color-interpolation-filters:sRGB;"
       inkscape:label="Color Shift"
       id="filter16787"
       x="0"
       y="0"
       width="1"
       height="1">
      <feColorMatrix
         type="hueRotate"
         values="324"
         result="color1"
         id="feColorMatrix16783" />
      <feColorMatrix
         type="saturate"
         values="0.599995"
         result="color2"
         id="feColorMatrix16785" />
    </filter>
  </defs>
  <g
     inkscape:label="Layer 1"
     inkscape:groupmode="layer"
     id="layer1"
     style="opacity:1">
    <rect
       style="fill:#ffffff;fill-opacity:1;stroke-width:2.20473;stroke-opacity:0.496744;stop-color:#000000"
       id="rect1868-6"
       width="270.93332"
       height="224.36667"
       x="3.695488e-06"
       y="-3.8146973e-06" />
    <rect
       style="fill:#f9f298;stroke-width:1.3874;stroke-opacity:0.496744;stop-color:#000000;fill-opacity:1"
       id="rect1868"
       width="118.46516"
       height="203.2"
       x="0"
       y="-1.7763568e-15" />
    <rect
       style="fill:#f0df0f;fill-opacity:1;stroke:none;stroke-width:1.73136;stroke-dasharray:6.92542, 6.92542;stop-color:#000000"
       id="rect888"
       width="270.93332"
       height="21.166666"
       x="0"
       y="203.2" />
    <text
       xml:space="preserve"
       style="font-style:normal;font-variant:normal;font-weight:normal;font-stretch:normal;font-size:3.52778px;line-height:normal;font-family:Roboto;-inkscape-font-specification:Roboto;text-decoration-color:#000000;fill:#000000;fill-opacity:1;stroke-width:264.583;stop-color:#000000"
       x="28.030357"
       y="215.67641"
       id="text198764"><tspan
         sodipodi:role="line"
         id="tspan198762"
         style="font-style:normal;font-variant:normal;font-weight:normal;font-stretch:normal;font-size:3.52778px;font-family:Roboto;-inkscape-font-specification:Roboto;fill:#000000;stroke-width:264.583"
         x="28.030357"
         y="215.67641"><tspan
           style="font-weight:bold;font-size:7.05556px;fill:#000000"
           id="tspan258614">Let's copy, church                                                   Learn more at  /copy.church/</tspan></tspan></text>
    <g
       id="g69434"
       transform="matrix(0.26458333,0,0,0.26458333,8.4666671,207.43333)">
      <path
         id="rect117162-5"
         style="fill:#f0df0f;fill-opacity:1;stroke-width:1.48697;stroke-opacity:0.13739;stop-color:#000000"
         d="M 10,0 C 4.46,0 0,4.46 0,10 v 28 c 0,5.54 4.46,10 10,10 h 8 L 48,10 C 48,4.46 43.54,0 38,0 Z" />
      <path
         id="rect117162"
         style="fill:#635c06;fill-opacity:1;stroke-width:1.48697;stroke-opacity:0.13739;stop-color:#000000"
         d="m 48,10 v 28 c 0,5.54 -4.46,10 -10,10 H 18 Z"
         sodipodi:nodetypes="csscc" />
      <g
         aria-label="©"
         id="text8373"
         style="font-weight:bold;font-size:53.3333px;font-family:'Roboto Condensed';-inkscape-font-specification:'Roboto Condensed,  Bold';fill:#000000;fill-opacity:1;stroke-width:1.88976;stroke-opacity:0.13739;stop-color:#000000"
         transform="matrix(0.81126808,0,0,0.77005394,-0.8337397,0.2558013)">
        <path
           d="m 5.9582521,24.315369 c 0,11.015618 8.2812449,19.505196 18.4895719,19.505196 10.182286,0 18.489573,-8.489578 18.489573,-19.505196 0,-11.015619 -8.307287,-19.4531139 -18.489573,-19.4531139 -10.208327,0 -18.4895719,8.4374949 -18.4895719,19.4531139 z m 3.1770815,0 c 0,-9.192703 6.8489544,-16.1979075 15.3124904,-16.1979075 8.437495,0 15.28645,7.0052045 15.28645,16.1979075 0,9.192702 -6.848955,16.24999 -15.28645,16.24999 -8.463536,0 -15.3124904,-7.057288 -15.3124904,-16.24999 z m 19.6093634,3.463539 c 0,3.385415 -1.588541,4.661456 -4.661456,4.661456 -3.333331,0 -5.05208,-2.68229 -5.05208,-6.562496 v -3.124999 c 0,-3.828122 1.718749,-6.536454 5.05208,-6.536454 3.072915,0 4.687498,1.328124 4.687498,4.661456 h 4.062497 c 0,-5.442706 -3.385415,-8.177079 -8.749995,-8.177079 -5.598955,0 -9.088536,4.114581 -9.088536,10.078119 v 3.098957 c 0,5.989579 3.489581,10.078119 9.088536,10.078119 5.36458,0 8.723953,-2.708332 8.723953,-8.177079 z"
           style="font-weight:900;font-family:Roboto;-inkscape-font-specification:'Roboto Heavy';fill:#000000;fill-opacity:1"
           id="path67279" />
      </g>
      <path
         d="m 34.987778,37.967418 -2.025088,-0.800786 -1.26803,3.206347 c -0.115677,0.292508 -0.115703,0.57221 -10e-5,0.839101 0.115623,0.26689 0.319687,0.458174 0.612199,0.573849 0.269995,0.106816 0.544085,0.104578 0.822227,-0.0066 0.27814,-0.111175 0.475048,-0.313016 0.590724,-0.605528 z m 5.400191,2.135552 -2.02509,-0.800787 -1.267936,3.206384 c -0.115679,0.29251 -0.115694,0.572213 -1e-4,0.839102 0.115622,0.266891 0.319689,0.458173 0.6122,0.57385 0.269993,0.106816 0.544084,0.104578 0.822224,-0.0066 0.278142,-0.111175 0.475049,-0.313017 0.590727,-0.605527 z m 3.418862,-4.697549 C 44.064902,34.75291 44.02072,34.091453 43.674368,33.42108 43.328011,32.750708 42.78357,32.268703 42.041043,31.975064 l 1.268028,-3.206343 -4.725171,-1.868595 -1.268029,3.206345 c -0.742505,-0.293686 -1.469377,-0.314376 -2.180557,-0.06222 -0.711181,0.252162 -1.195792,0.704503 -1.453838,1.357022 L 32.0131,35.620182 42.138459,39.624339 Z M 43.560635,24.18467 c 0.596138,-1.507567 0.571006,-2.996794 0.0134,-4.326985 -0.615005,-1.467128 -1.936103,-2.745364 -3.413476,-3.335334 -1.502537,-0.600069 -3.37425,-0.588077 -4.853319,0.06771 -1.318546,0.584612 -2.353526,1.658235 -2.949715,3.165781 l -0.867596,2.193837 2.025109,0.800794 0.867589,-2.193819 c 0.373775,-0.945012 0.983411,-1.601319 1.791813,-1.964931 0.968422,-0.435588 2.199876,-0.4399 3.185317,-0.04432 0.960298,0.385483 1.819412,1.220272 2.212629,2.17743 0.336837,0.819919 0.33697,1.713952 -0.03675,2.658985 l -1.201227,3.037616 2.025091,0.800787 z"
         id="path70730-3"
         style="stroke-width:0.72589"
         sodipodi:nodetypes="ccssssscccssssscssccccssccscaaasccsaaasccc" />
    </g>
    <text
       xml:space="preserve"
       style="font-style:normal;font-variant:normal;font-weight:500;font-stretch:normal;font-size:14.1111px;line-height:normal;font-family:Roboto;-inkscape-font-specification:'Roboto Medium';text-decoration-color:#000000;white-space:pre;inline-size:117.472;fill:#000000;fill-opacity:1;stroke:none;stroke-width:0.264583;stroke-opacity:0.496744;stop-color:#000000"
       x="45.0061"
       y="87.527321"
       id="text4250"
       transform="translate(-32.91114,-59.512275)"><tspan
         x="45.0061"
         y="87.527321"
         id="tspan191732">Choose the
</tspan><tspan
         x="45.0061"
         y="105.1662"
         id="tspan191734">right plan
</tspan><tspan
         x="45.0061"
         y="122.80507"
         id="tspan191736">for your faith.</tspan></text>
    <text
       xml:space="preserve"
       style="font-style:normal;font-variant:normal;font-weight:500;font-stretch:normal;font-size:8.46667px;line-height:normal;font-family:Roboto;-inkscape-font-specification:'Roboto Medium';text-decoration-color:#000000;white-space:pre;inline-size:97.9163;fill:#000000;fill-opacity:1;stroke:none;stroke-width:0.264583;stroke-opacity:0.496744;stop-color:#000000"
       x="12.034861"
       y="90.066635"
       id="text43980"
       transform="translate(0.16704978)"><tspan
         x="12.034861"
         y="90.066635"
         id="tspan191738">We have affordable </tspan><tspan
         x="12.034861"
         y="100.64997"
         id="tspan191740">options to fit any budget.</tspan></text>
    <text
       xml:space="preserve"
       style="font-style:normal;font-variant:normal;font-weight:500;font-stretch:normal;font-size:8.46667px;line-height:1.2;font-family:Roboto;-inkscape-font-specification:'Roboto Medium';text-decoration-color:#000000;white-space:pre;inline-size:128.435;fill:#000000;fill-opacity:1;stroke:none;stroke-width:0.264583;stroke-opacity:0.496744;stop-color:#000000"
       x="132.39934"
       y="27.278545"
       id="text60932"><tspan
         x="132.39934"
         y="27.278545"
         id="tspan191744">Nominal package<tspan
   style="font-size:11.2889px"
   id="tspan191742">
</tspan></tspan><tspan
         x="132.39934"
         y="38.300684"
         id="tspan191748"><tspan
           style="font-size:7.05556px"
           id="tspan191746">Learn how Jesus died for you and... </tspan></tspan><tspan
         x="132.39934"
         y="48.460688"
         id="tspan191752"><tspan
   style="font-size:7.05556px"
   id="tspan191750">actually that's about it.</tspan>
</tspan><tspan
         x="132.39934"
         y="58.620692"
         id="tspan191754">
</tspan><tspan
         x="132.39934"
         y="71.305238"
         id="tspan191760"><tspan
           style="fill:#432f21"
           id="tspan191756">Regular package</tspan><tspan
           style="font-size:11.2889px"
           id="tspan191758">
</tspan></tspan><tspan
         x="132.39934"
         y="82.327379"
         id="tspan191770"><tspan
           style="font-size:7.05556px"
           id="tspan191762">Books to help you know how </tspan><tspan
           style="font-size:7.05556px"
           id="tspan191764">free</tspan><tspan
           style="font-style:italic"
           id="tspan191766"> </tspan><tspan
           style="font-size:7.05556px"
           id="tspan191768">God's </tspan></tspan><tspan
         x="132.39934"
         y="92.487383"
         id="tspan191774"><tspan
   style="font-size:7.05556px"
   id="tspan191772">grace really is.</tspan>
</tspan><tspan
         x="132.39934"
         y="102.64739"
         id="tspan191776">
</tspan><tspan
         x="132.39934"
         y="115.33193"
         id="tspan191782"><tspan
           style="fill:#585858"
           id="tspan191778">Layman package</tspan><tspan
           style="font-size:11.2889px"
           id="tspan191780">
</tspan></tspan><tspan
         x="132.39934"
         y="126.35407"
         id="tspan191786"><tspan
           style="font-size:7.05556px"
           id="tspan191784">Become like God himself, knowing good </tspan></tspan><tspan
         x="132.39934"
         y="139.03863"
         id="tspan191792"><tspan
           style="font-size:7.05556px"
           id="tspan191788">and evil, with theological commentaries.</tspan><tspan
           style="font-size:11.2889px"
           id="tspan191790">
</tspan></tspan><tspan
         x="132.39934"
         y="150.06076"
         id="tspan191794">
</tspan><tspan
         x="132.39934"
         y="162.74531"
         id="tspan191800"><tspan
           style="fill:#967d2b"
           id="tspan191796">Divine package</tspan><tspan
           style="font-size:11.2889px"
           id="tspan191798">
</tspan></tspan><tspan
         x="132.39934"
         y="173.76744"
         id="tspan191804"><tspan
           style="font-size:7.05556px"
           id="tspan191802">All our holiest resources + a signed </tspan></tspan><tspan
         x="132.39934"
         y="183.92745"
         id="tspan191808"><tspan
           style="font-size:7.05556px"
           id="tspan191806">prayer from your favorite theologian!</tspan></tspan></text>
    <text
       xml:space="preserve"
       style="font-style:normal;font-variant:normal;font-weight:bold;font-stretch:normal;font-size:7.05556px;line-height:normal;font-family:Roboto;-inkscape-font-specification:'Roboto Bold';text-decoration-color:#000000;white-space:pre;fill:#34c33e;fill-opacity:1;stroke:none;stroke-width:0.264583;stroke-opacity:0.496744;stop-color:#000000"
       x="236.4993"
       y="27.273249"
       id="text272798"><tspan
         sodipodi:role="line"
         id="tspan272796"
         style="font-style:normal;font-variant:normal;font-weight:bold;font-stretch:normal;font-size:7.05556px;font-family:Roboto;-inkscape-font-specification:'Roboto Bold';fill:#34c33e;fill-opacity:1;stroke-width:0.264583"
         x="236.4993"
         y="27.273249">FREE</tspan></text>
    <text
       xml:space="preserve"
       style="font-style:normal;font-variant:normal;font-weight:bold;font-stretch:normal;font-size:7.05556px;line-height:normal;font-family:Roboto;-inkscape-font-specification:'Roboto Bold';text-decoration-color:#000000;white-space:pre;fill:#3469b1;fill-opacity:1;stroke:none;stroke-width:0.264583;stroke-opacity:0.496744;stop-color:#000000"
       x="225.52667"
       y="70.050179"
       id="text272798-3"><tspan
         sodipodi:role="line"
         id="tspan272796-6"
         style="font-style:normal;font-variant:normal;font-weight:bold;font-stretch:normal;font-size:7.05556px;font-family:Roboto;-inkscape-font-specification:'Roboto Bold';fill:#3469b1;fill-opacity:1;stroke-width:0.264583"
         x="225.52667"
         y="70.050179">$100/year</tspan></text>
    <text
       xml:space="preserve"
       style="font-style:normal;font-variant:normal;font-weight:bold;font-stretch:normal;font-size:7.05556px;line-height:normal;font-family:Roboto;-inkscape-font-specification:'Roboto Bold';text-decoration-color:#000000;white-space:pre;fill:#3469b1;fill-opacity:1;stroke:none;stroke-width:0.264583;stroke-opacity:0.496744;stop-color:#000000"
       x="225.52667"
       y="114.90012"
       id="text272798-3-7"><tspan
         sodipodi:role="line"
         id="tspan272796-6-5"
         style="font-style:normal;font-variant:normal;font-weight:bold;font-stretch:normal;font-size:7.05556px;font-family:Roboto;-inkscape-font-specification:'Roboto Bold';fill:#3469b1;fill-opacity:1;stroke-width:0.264583"
         x="225.52667"
         y="114.90012">$500/year</tspan></text>
    <text
       xml:space="preserve"
       style="font-style:normal;font-variant:normal;font-weight:bold;font-stretch:normal;font-size:7.05556px;line-height:normal;font-family:Roboto;-inkscape-font-specification:'Roboto Bold';text-decoration-color:#000000;white-space:pre;fill:#3469b1;fill-opacity:1;stroke:none;stroke-width:0.264583;stroke-opacity:0.496744;stop-color:#000000"
       x="224.07285"
       y="162.43236"
       id="text272798-3-7-3"><tspan
         sodipodi:role="line"
         id="tspan272796-6-5-5"
         style="font-style:normal;font-variant:normal;font-weight:bold;font-stretch:normal;font-size:7.05556px;font-family:Roboto;-inkscape-font-specification:'Roboto Bold';fill:#3469b1;fill-opacity:1;stroke-width:0.264583"
         x="224.07285"
         y="162.43236">Contact us</tspan></text>
  </g>
</svg>
