<?xml version="1.0" encoding="UTF-8" standalone="no"?>
<svg
   width="866.52"
   height="637.06"
   data-name="Layer 1"
   version="1.1"
   viewBox="0 0 866.52 637.06"
   id="svg96"
   sodipodi:docname="ill_open.svg"
   inkscape:version="1.1.2 (0a00cf5339, 2022-02-04)"
   xmlns:inkscape="http://www.inkscape.org/namespaces/inkscape"
   xmlns:sodipodi="http://sodipodi.sourceforge.net/DTD/sodipodi-0.dtd"
   xmlns="http://www.w3.org/2000/svg"
   xmlns:svg="http://www.w3.org/2000/svg">
  <defs
     id="defs100" />
  <sodipodi:namedview
     id="namedview98"
     pagecolor="#ffffff"
     bordercolor="#666666"
     borderopacity="1.0"
     inkscape:pageshadow="2"
     inkscape:pageopacity="0.0"
     inkscape:pagecheckerboard="0"
     showgrid="false"
     inkscape:zoom="0.6836091"
     inkscape:cx="454.93836"
     inkscape:cy="384.72279"
     inkscape:window-width="2560"
     inkscape:window-height="1347"
     inkscape:window-x="0"
     inkscape:window-y="0"
     inkscape:window-maximized="1"
     inkscape:current-layer="svg96" />
  <path
     d="m828 563.42v-72.34s28.192 51.286 0 72.34z"
     fill="#008080"
     id="path2" />
  <path
     d="m829.74 563.41-53.29-48.921s56.845 13.916 53.29 48.921z"
     fill="#008000"
     id="path4" />
  <path
     d="M 373.385,318.44897 136.12592,383.88194 57.994683,100.58532 295.25376,35.152344 Z"
     fill="#ffffff"
     id="path6"
     style="stroke-width:0.736601" />
  <path
     d="M 373.385,318.44897 136.12592,383.88194 57.994683,100.58532 295.25376,35.152344 Z M 139.15334,378.54233 368.04464,315.41786 292.22634,40.496382 63.335038,103.62085 Z"
     fill="#f1f1f1"
     id="path8"
     style="stroke-width:0.736601" />
  <path
     d="m 243.62542,162.06127 -59.47388,16.40189 a 3.2853864,3.2853864 0 0 1 -4.03598,-2.29105 l -16.40189,-59.47387 a 3.2853864,3.2853864 0 0 1 2.29105,-4.03599 L 225.4786,96.260374 a 3.2853864,3.2853864 0 0 1 4.03598,2.29104 l 16.40189,59.473876 a 3.2853864,3.2853864 0 0 1 -2.29112,4.03598 z M 166.35601,113.9281 a 1.9711435,1.9711435 0 0 0 -1.37465,2.42158 l 16.40189,59.47387 a 1.9711435,1.9711435 0 0 0 2.42158,1.37465 l 59.47387,-16.40189 a 1.9711435,1.9711435 0 0 0 1.37465,-2.42158 L 228.25146,98.900864 a 1.9711435,1.9711435 0 0 0 -2.42157,-1.37465 z"
     fill="#e5e5e5"
     id="path10"
     style="stroke-width:0.736601" />
  <path
     d="m 228.5472,174.05313 -59.47387,16.40189 a 2.9567889,2.9567889 0 0 1 -3.63233,-2.06197 l -16.40188,-59.47387 a 2.9567889,2.9567889 0 0 1 2.06196,-3.63233 l 59.47388,-16.40189 a 2.9567889,2.9567889 0 0 1 3.63232,2.06197 l 16.40189,59.47388 a 2.9567889,2.9567889 0 0 1 -2.06189,3.63232 z"
     fill="#f0df0f"
     id="path12"
     style="stroke-width:0.736601" />
  <g
     fill="#f1f1f1"
     id="g26"
     transform="matrix(0.7366007,0,0,0.7366007,43.262669,-9.0436983)">
    <rect
       transform="rotate(-15.418)"
       x="29.910999"
       y="341.98999"
       width="233.73"
       height="9.0320997"
       id="rect14" />
    <rect
       transform="rotate(-15.418)"
       x="29.910999"
       y="365.54001"
       width="233.73"
       height="9.0320997"
       id="rect16" />
    <rect
       transform="rotate(-15.418)"
       x="29.910999"
       y="389.09"
       width="233.73"
       height="9.0320997"
       id="rect18" />
    <rect
       transform="rotate(-15.418)"
       x="29.910999"
       y="430.53"
       width="233.73"
       height="9.0320997"
       id="rect20" />
    <rect
       transform="rotate(-15.418)"
       x="29.910999"
       y="454.07999"
       width="233.73"
       height="9.0320997"
       id="rect22" />
    <rect
       transform="rotate(-15.418)"
       x="29.910999"
       y="477.63"
       width="233.73"
       height="9.0320997"
       id="rect24" />
  </g>
  <path
     d="M 449.3359,382.93099 H 203.21551 V 89.056784 H 449.3359 Z"
     fill="#ffffff"
     id="path28"
     style="stroke-width:0.736601" />
  <path
     d="M 449.3359,382.93099 H 203.21551 V 89.056784 H 449.3359 Z M 207.56145,378.5891 H 444.99732 V 93.399414 H 207.56145 Z"
     fill="#e5e5e5"
     id="path30"
     style="stroke-width:0.736601" />
  <g
     fill="#f0df0f"
     id="g40"
     transform="matrix(0.7366007,0,0,0.7366007,43.262669,-9.0436983)">
    <rect
       x="299.41"
       y="304.69"
       width="191.03"
       height="9.0320997"
       id="rect32" />
    <rect
       x="299.41"
       y="328.17999"
       width="191.03"
       height="9.0320997"
       id="rect34" />
    <rect
       x="299.41"
       y="351.66"
       width="191.03"
       height="9.0320997"
       id="rect36" />
    <circle
       cx="283.88"
       cy="310.53"
       r="5.8944998"
       id="circle38" />
  </g>
  <g
     fill="#e5e5e5"
     id="g58"
     transform="matrix(0.7366007,0,0,0.7366007,43.262669,-9.0436983)">
    <rect
       x="299.41"
       y="203.50999"
       width="191.03"
       height="9.0320997"
       id="rect42" />
    <rect
       x="299.41"
       y="226.99001"
       width="191.03"
       height="9.0320997"
       id="rect44" />
    <rect
       x="299.41"
       y="250.47"
       width="191.03"
       height="9.0320997"
       id="rect46" />
    <circle
       cx="283.88"
       cy="208.36"
       r="5.8944998"
       id="circle48" />
    <rect
       x="299.41"
       y="406.87"
       width="191.03"
       height="9.0320997"
       id="rect50" />
    <rect
       x="299.41"
       y="430.35001"
       width="191.03"
       height="9.0320997"
       id="rect52" />
    <rect
       x="299.41"
       y="453.82999"
       width="191.03"
       height="9.0320997"
       id="rect54" />
    <circle
       cx="283.88"
       cy="411.72"
       r="5.8944998"
       id="circle56" />
  </g>
  <path
     d="m848.78 588.09h-381a1 1 0 0 1 0-2h381a1 1 0 0 1 0 2z"
     fill="#cbcbcb"
     id="path60" />
  <path
     id="path62"
     style="fill:#f0df0f;stroke:#f0df0f;fill-opacity:1;stroke-opacity:1;stroke-width:10.1;stroke-miterlimit:4;stroke-dasharray:none"
     d="M 592.04688 348.42188 C 579.27487 348.42188 568.40073 352.90736 559.42773 361.88086 C 550.45473 370.85436 545.96875 381.72605 545.96875 394.49805 L 545.96875 417.7793 L 451.39062 417.7793 C 447.34862 417.7793 443.91133 419.19414 441.08203 422.02344 C 438.25273 424.85294 436.83984 428.28818 436.83984 432.33008 L 436.83984 537.58008 C 436.83984 541.62208 438.25273 545.05937 441.08203 547.88867 C 443.91153 550.71797 447.34873 552.13281 451.39062 552.13281 L 577.5 552.13281 C 581.542 552.13281 584.97734 550.71797 587.80664 547.88867 C 590.63594 545.05917 592.05078 541.62198 592.05078 537.58008 L 592.05078 432.33008 C 592.05078 428.28808 590.63594 424.85274 587.80664 422.02344 C 584.97714 419.19414 581.5419 417.7793 577.5 417.7793 L 560.51953 417.7793 L 560.51953 394.49805 C 560.51953 385.76755 563.59263 378.3305 569.73633 372.1875 C 575.88003 366.0438 583.31687 362.97266 592.04688 362.97266 C 600.77688 362.97266 608.21442 366.0438 614.35742 372.1875 C 620.50042 378.3312 623.57227 385.76805 623.57227 394.49805 L 638.12305 394.49805 C 638.12305 381.72605 633.63756 370.85386 624.66406 361.88086 C 615.69056 352.90786 604.81888 348.42188 592.04688 348.42188 z M 517.53125 461.51953 C 524.34026 461.51953 530.13817 464.12661 534.92578 469.33984 C 539.71338 474.55307 542.10742 480.35086 542.10742 486.73438 C 542.10742 493.3303 539.71338 498.96926 534.92578 503.65039 C 530.13817 508.33165 524.34026 510.67188 517.53125 510.67188 C 510.72225 510.67188 504.92431 508.33151 500.13672 503.65039 C 495.34912 498.96953 492.95508 493.33056 492.95508 486.73438 C 492.95508 480.351 495.34912 474.55307 500.13672 469.33984 C 504.92431 464.12661 510.72225 461.51953 517.53125 461.51953 z " />
  <path
     d="m625.46 365.33a9.0954 9.0954 0 0 1 9.8515-9.872l9.6066-18.431 12.624 3.1061-13.932 25.838a9.1446 9.1446 0 0 1-18.15-0.64078z"
     fill="#ffb7b7"
     id="path66" />
  <polygon
     transform="translate(48.93 -80.637)"
     points="623.22 625.53 618.15 584.44 633.87 584.44 633.87 625.53"
     fill="#ffb7b7"
     id="polygon68" />
  <path
     d="m685.52 555.22-34.349-1e-3v-0.43446a13.37 13.37 0 0 1 13.37-13.369h8.5e-4l20.979 8.5e-4z"
     fill="#2f2e41"
     id="path70" />
  <polygon
     transform="translate(48.93 -80.637)"
     points="709.27 620.37 693.57 582.06 708.74 577.93 719.55 617.57"
     fill="#ffb7b7"
     id="polygon72" />
  <path
     d="m773.82 546.18-33.139 9.0366-0.11432-0.41915a13.37 13.37 0 0 1 9.3807-16.416l8.2e-4 -2.2e-4 20.24-5.5192z"
     fill="#2f2e41"
     id="path74" />
  <polygon
     transform="translate(48.93 -80.637)"
     points="719.52 603.12 702.79 522.23 693.34 446.26 614.42 448.03 609.11 528.73 620.52 619.26 639.22 613.55 640.01 532.66 654.97 486.02 699.25 610.6"
     fill="#2f2e41"
     id="polygon76" />
  <path
     d="m715.01 225.7-31.486 4.6428-11.343 11.218-3.5219 40.307 2.1874 35.702-9.1187 62.959s22.93-12.729 40.701 3.2052 42.635 2.816 43.147-7.784z"
     fill="#cbcbcb"
     id="path78" />
  <g
     fill="#2f2e41"
     id="g86">
    <path
       d="m699.03 276.25-4.3e-4 -0.0453 15.641-50.984 0.20211-0.0132c1.1133-0.0725 27.337-1.618 33.202 11.33l0.0284 0.0625-1.7816 52.983 2.4537 82.979-48.501 10.505-0.35252 0.0768z"
       id="path80" />
    <path
       d="m681.69 272.72 2.8693-43.221c-20.407 1.2694-20.099 15.738-20.076 16.369l-0.223 64.65-4.0871 69.164 14.86-1.1144z"
       id="path82" />
    <path
       d="m635.68 351.37 18.117-42.047 12.645-23.222 6.6021 41.889-22.922 34.384z"
       id="path84" />
  </g>
  <path
     d="m710.55 335.9a9.0953 9.0953 0 0 1 12.325-6.5264l14.616-14.777 11.146 6.6922-20.934 20.578a9.1446 9.1446 0 0 1-17.154-5.9668z"
     fill="#ffb7b7"
     id="path88" />
  <path
     d="m722.84 323.98 29.801-32.692-19.727-28.149 2.0304-13.762 11.627-14.362 0.2269 0.29336c1.2393 1.6037 30.362 39.439 31.198 53.763 0.83853 14.376-41.021 50.742-42.803 52.282l-0.24766 0.21428z"
     fill="#2f2e41"
     id="path90" />
  <circle
     cx="696.85"
     cy="200.97"
     r="21.181"
     fill="#ffb7b7"
     id="circle92" />
  <path
     d="m716.77 184.04 1.0269-2.0668-5.1669-2.5672s-5.6999-9.2744-16.014-6.6681-14.955 4.1661-14.955 4.1661l-5.1538 2.5932 2.5867 2.5737-4.6404 1.5599 3.1001 1.5403-3.6071 2.0733 1.9418 10.628s3.2251-8.0612 9.4254-4.9806 17.541-1.5924 17.541-1.5924l9.853 19.069s2.0327-6.6845 5.6568-4.9021c2e-5 3e-5 9.2587-14.745-1.595-21.426z"
     fill="#2f2e41"
     id="path94" />
</svg>
